SplineFontDB: 3.2
FontName: KotopoMaldika-Regular
FullName: Kotopo Maldika
FamilyName: Kotopo Maldika
Weight: Regular
Copyright: SIL Open Font License. Adam D. Prakasa (2023)
Version: 001.004
ItalicAngle: 0
UnderlinePosition: -100
UnderlineWidth: 50
Ascent: 800
Descent: 200
InvalidEm: 0
sfntRevision: 0x00010000
LayerCount: 2
Layer: 0 1 "Back" 1
Layer: 1 1 "Fore" 0
XUID: [1021 16 1011222284 13381]
StyleMap: 0x0040
FSType: 0
OS2Version: 4
OS2_WeightWidthSlopeOnly: 0
OS2_UseTypoMetrics: 0
CreationTime: 1682755994
ModificationTime: 1682763651
PfmFamily: 17
TTFWeight: 400
TTFWidth: 5
LineGap: 90
VLineGap: 0
Panose: 2 0 5 3 0 0 0 0 0 0
OS2TypoAscent: 800
OS2TypoAOffset: 0
OS2TypoDescent: -200
OS2TypoDOffset: 0
OS2TypoLinegap: 90
OS2WinAscent: 903
OS2WinAOffset: 0
OS2WinDescent: 229
OS2WinDOffset: 0
HheadAscent: 903
HheadAOffset: 0
HheadDescent: -229
HheadDOffset: 0
OS2SubXSize: 650
OS2SubYSize: 700
OS2SubXOff: 0
OS2SubYOff: 140
OS2SupXSize: 650
OS2SupYSize: 700
OS2SupXOff: 0
OS2SupYOff: 480
OS2StrikeYSize: 49
OS2StrikeYPos: 258
OS2CapHeight: 689
OS2XHeight: 689
OS2Vendor: 'CLGR'
OS2CodePages: 00000001.00000000
OS2UnicodeRanges: 00000003.00000000.00000000.00000000
Lookup: 4 0 1 "'rlig' Required Ligatures in Latin lookup 0" { "'rlig' Required Ligatures in Latin lookup 0-1"  } ['rlig' ('DFLT' <'dflt' > 'latn' <'dflt' > ) ]
Lookup: 258 0 0 "'kern' Horizontal Kerning in Latin lookup 0" { "'kern' Horizontal Kerning in Latin lookup 0-1" [150,15,0] } ['kern' ('DFLT' <'dflt' > 'latn' <'dflt' > ) ]
MarkAttachClasses: 1
DEI: 91125
KernClass2: 4 5 "'kern' Horizontal Kerning in Latin lookup 0-1"
 119 H K L Q X h l q x Hcircumflex hcircumflex Hbar hbar Lslash lslash Rcaron rcaron uni0241 uni0242 uni0262 uni0266 uni0274
 17 A a Abreve abreve
 88 at O Y o y Ecircumflex ecircumflex Obreve obreve Ycircumflex ycircumflex uni018F uni0259
 145 G H K Q X g h k q x Gdotaccent gdotaccent Hcircumflex hcircumflex Hbar hbar Lslash lslash uni0194 uni0241 uni0242 uni0262 uni0263 uni0266 uni029F

StartChar: .notdef
Encoding: 65536 -1 0
Width: 364
Flags: W
LayerCount: 2
Fore
SplineSet
33 0 m 1,0,-1
 33 666 l 1,1,-1
 298 666 l 1,2,-1
 298 0 l 1,3,-1
 33 0 l 1,0,-1
66 33 m 1,4,-1
 265 33 l 1,5,-1
 265 633 l 1,6,-1
 66 633 l 1,7,-1
 66 33 l 1,4,-1
EndSplineSet
EndChar

StartChar: exclam
Encoding: 33 33 5
Width: 192
Flags: W
LayerCount: 2
Fore
SplineSet
54 62 m 1,0,-1
 54 155 l 1,1,-1
 141 155 l 1,2,-1
 141 62 l 1,3,-1
 54 62 l 1,0,-1
54 229 m 1,4,-1
 54 555 l 1,5,-1
 141 555 l 1,6,-1
 141 229 l 1,7,-1
 54 229 l 1,4,-1
EndSplineSet
EndChar

StartChar: quotedbl
Encoding: 34 34 6
AltUni2: 00201c.ffffffff.0 00201d.ffffffff.0 00201e.ffffffff.0
Width: 355
Flags: W
LayerCount: 2
Fore
SplineSet
55 626 m 2,0,-1
 52 700 l 1,1,-1
 135 700 l 1,2,-1
 135 669 l 2,3,4
 135 644 135 644 131 568 c 2,5,-1
 127 497 l 1,6,-1
 60 497 l 1,7,-1
 60 525 l 2,8,9
 60 532 60 532 59 547 c 128,-1,10
 58 562 58 562 57 586.5 c 128,-1,11
 56 611 56 611 55 626 c 2,0,-1
222 673 m 2,12,-1
 222 700 l 1,13,-1
 303 700 l 1,14,-1
 303 673 l 2,15,16
 303 653 303 653 299 571 c 2,17,-1
 296 497 l 1,18,-1
 229 497 l 1,19,-1
 226 571 l 2,20,21
 222 653 222 653 222 673 c 2,12,-1
EndSplineSet
EndChar

StartChar: quotesingle
Encoding: 39 39 7
AltUni2: 002018.ffffffff.0 002019.ffffffff.0 00201a.ffffffff.0
Width: 355
Flags: W
LayerCount: 2
Fore
SplineSet
137 673 m 2,0,-1
 137 700 l 1,1,-1
 218 700 l 1,2,-1
 218 673 l 2,3,4
 218 653 218 653 214 571 c 2,5,-1
 211 497 l 1,6,-1
 144 497 l 1,7,-1
 141 571 l 2,8,9
 137 653 137 653 137 673 c 2,0,-1
EndSplineSet
EndChar

StartChar: comma
Encoding: 44 44 8
Width: 192
Flags: W
LayerCount: 2
Fore
SplineSet
54 62 m 1,0,-1
 54 155 l 1,1,-1
 141 155 l 1,2,-1
 141 97 l 2,3,4
 141 8 141 8 119 -36 c 0,5,6
 112 -50 112 -50 106.5 -53 c 128,-1,7
 101 -56 101 -56 81 -58 c 0,8,9
 54 -60 54 -60 54 -57 c 0,10,11
 54 -52 54 -52 71 -18 c 0,12,13
 89 18 89 18 89 41 c 0,14,15
 89 56 89 56 86 59 c 128,-1,16
 83 62 83 62 71 62 c 2,17,-1
 54 62 l 1,0,-1
EndSplineSet
EndChar

StartChar: period
Encoding: 46 46 9
Width: 192
Flags: W
LayerCount: 2
Fore
SplineSet
142 62 m 4,0,1
 87.5 62 l 4,2,3
 79.25 62 79.25 62 71 62 c 6,4,-1
 54 62 l 5,5,-1
 54 155 l 5,6,-1
 141 155 l 5,7,-1
 142 62 l 6,8,9
 142 62 l 4,0,1
EndSplineSet
EndChar

StartChar: zero
Encoding: 48 48 10
Width: 547
Flags: W
LayerCount: 2
Fore
SplineSet
337 628 m 0,0,1
 305 645 305 645 272 645 c 0,2,3
 208 645 208 645 174 593 c 0,4,5
 153 562 153 562 146.5 522 c 128,-1,6
 140 482 140 482 140 384 c 0,7,8
 140 303 140 303 142.5 276.5 c 128,-1,9
 145 250 145 250 154 221 c 0,10,11
 171 168 171 168 199 144 c 128,-1,12
 227 120 227 120 274 120 c 0,13,14
 347 120 347 120 378.5 181 c 128,-1,15
 410 242 410 242 410 384 c 0,16,17
 410 588 410 588 337 628 c 0,0,1
199 701 m 0,18,19
 229 711 229 711 270 711 c 0,20,21
 329 711 329 711 370 692 c 0,22,23
 454 652 454 652 484 519 c 0,24,25
 494 476 494 476 494 388 c 0,26,27
 494 281 494 281 481 235 c 0,28,29
 446 109 446 109 365 70 c 0,30,31
 344 60 344 60 329 57.5 c 128,-1,32
 314 55 314 55 274 54 c 0,33,34
 216 54 216 54 188 66 c 0,35,36
 95 109 95 109 64 245 c 0,37,38
 53 294 53 294 53 379 c 0,39,40
 53 481 53 481 67 534 c 0,41,42
 103 669 103 669 199 701 c 0,18,19
EndSplineSet
EndChar

StartChar: one
Encoding: 49 49 11
Width: 512
Flags: W
LayerCount: 2
Fore
SplineSet
195 685 m 0,0,1
 226 706 226 706 245 706 c 0,2,3
 247 706 247 706 252.5 705.5 c 128,-1,4
 258 705 258 705 261 705 c 2,5,-1
 297 703 l 1,6,-1
 300 645 l 2,7,8
 303 595 303 595 305 363 c 2,9,-1
 305 138 l 1,10,-1
 456 138 l 1,11,-1
 456 68 l 1,12,-1
 56 68 l 1,13,-1
 56 138 l 1,14,-1
 218 138 l 1,15,-1
 218 625 l 1,16,-1
 200 613 l 2,17,18
 193 608 193 608 140.5 571.5 c 128,-1,19
 88 535 88 535 81 530 c 0,20,21
 80 530 80 530 80 529.5 c 128,-1,22
 80 529 80 529 79 529 c 0,23,24
 73 529 73 529 73 563 c 2,25,-1
 73 601 l 1,26,-1
 119 632 l 2,27,28
 132 641 132 641 160 660.5 c 128,-1,29
 188 680 188 680 195 685 c 0,0,1
EndSplineSet
EndChar

StartChar: two
Encoding: 50 50 12
Width: 527
Flags: W
LayerCount: 2
Fore
SplineSet
194 704 m 0,0,1
 214 710 214 710 253 710 c 0,2,3
 321 710 321 710 357 697 c 0,4,5
 417 676 417 676 446 618 c 0,6,7
 461 587 461 587 461 542 c 0,8,9
 461 480 461 480 429.5 433.5 c 128,-1,10
 398 387 398 387 290 290 c 0,11,12
 250 252 250 252 219 228 c 0,13,14
 204 215 204 215 176 179.5 c 128,-1,15
 148 144 148 144 148 137 c 0,16,17
 148 132 148 132 310 132 c 2,18,-1
 473 132 l 1,19,-1
 473 62 l 1,20,-1
 55 62 l 1,21,-1
 55 92 l 2,22,23
 55 137 55 137 98 194.5 c 128,-1,24
 141 252 141 252 243 342 c 0,25,26
 322 412 322 412 346.5 443.5 c 128,-1,27
 371 475 371 475 377 515 c 0,28,29
 378 521 378 521 378 533 c 0,30,31
 378 566 378 566 361.5 594.5 c 128,-1,32
 345 623 345 623 318 634 c 0,33,34
 299 642 299 642 267 642 c 0,35,36
 227 642 227 642 203 631 c 0,37,38
 183 622 183 622 165.5 603.5 c 128,-1,39
 148 585 148 585 144 568 c 0,40,41
 140 549 140 549 137 544 c 128,-1,42
 134 539 134 539 124 539 c 0,43,44
 122 539 122 539 100 541 c 0,45,46
 61 545 61 545 61 548 c 128,-1,47
 61 551 61 551 67 585 c 0,48,49
 72 609 72 609 79 621 c 128,-1,50
 86 633 86 633 105 652 c 0,51,52
 127 675 127 675 143 684 c 128,-1,53
 159 693 159 693 194 704 c 0,0,1
EndSplineSet
EndChar

StartChar: three
Encoding: 51 51 13
Width: 549
Flags: W
LayerCount: 2
Fore
SplineSet
205 704 m 0,0,1
 225 710 225 710 270 710 c 0,2,3
 334 710 334 710 363 701 c 0,4,5
 415 685 415 685 446 640.5 c 128,-1,6
 477 596 477 596 477 541 c 0,7,8
 477 523 477 523 472 498 c 0,9,10
 465 468 465 468 441 442 c 128,-1,11
 417 416 417 416 384 402 c 2,12,-1
 351 389 l 1,13,-1
 386 379 l 2,14,15
 421 367 421 367 448 343 c 0,16,17
 495 302 495 302 495 237 c 0,18,19
 495 234 495 234 494.5 228 c 128,-1,20
 494 222 494 222 494 219 c 0,21,22
 488 138 488 138 431.5 94.5 c 128,-1,23
 375 51 375 51 277 51 c 0,24,25
 189 51 189 51 131 91.5 c 128,-1,26
 73 132 73 132 58 205 c 2,27,-1
 54 223 l 1,28,-1
 85 226 l 2,29,30
 121 230 121 230 123 230 c 0,31,32
 135 230 135 230 138.5 225 c 128,-1,33
 142 220 142 220 146 204 c 0,34,35
 153 178 153 178 176 155 c 128,-1,36
 199 132 199 132 224 125 c 0,37,38
 246 120 246 120 270 120 c 0,39,40
 332 120 332 120 358 137 c 0,41,42
 384 153 384 153 394.5 172.5 c 128,-1,43
 405 192 405 192 407 230 c 0,44,45
 407 236 407 236 407.5 244 c 128,-1,46
 408 252 408 252 408 254 c 0,47,48
 408 275 408 275 396 294 c 0,49,50
 364 343 364 343 263 351 c 2,51,-1
 208 355 l 1,52,-1
 208 419 l 1,53,-1
 258 422 l 2,54,55
 345 428 345 428 375 470 c 0,56,57
 388 489 388 489 388 535 c 0,58,59
 388 566 388 566 385.5 577.5 c 128,-1,60
 383 589 383 589 372 603 c 0,61,62
 342 641 342 641 277 641 c 2,63,-1
 261 641 l 2,64,65
 219 639 219 639 197 622 c 0,66,67
 161 595 161 595 154 559 c 0,68,69
 152 548 152 548 148 544 c 128,-1,70
 144 540 144 540 137 541 c 0,71,72
 111 541 111 541 95 542 c 2,73,-1
 65 544 l 1,74,-1
 69 565 l 2,75,76
 79 623 79 623 125 662 c 0,77,78
 146 680 146 680 160.5 687.5 c 128,-1,79
 175 695 175 695 205 704 c 0,0,1
EndSplineSet
EndChar

StartChar: four
Encoding: 52 52 14
Width: 580
Flags: W
LayerCount: 2
Fore
SplineSet
350 430 m 2,0,1
 350 590 350 590 348 590 c 128,-1,2
 346 590 346 590 279 490 c 0,3,4
 187 354 187 354 171 331 c 2,5,-1
 129 271 l 1,6,-1
 350 271 l 1,7,-1
 350 430 l 2,0,1
296 629 m 2,8,-1
 345 700 l 1,9,-1
 431 700 l 1,10,-1
 431 271 l 1,11,-1
 474 271 l 2,12,13
 508 271 508 271 516 266 c 128,-1,14
 524 261 524 261 524 239 c 128,-1,15
 524 217 524 217 516 212 c 128,-1,16
 508 207 508 207 474 207 c 2,17,-1
 431 207 l 1,18,-1
 431 62 l 1,19,-1
 392 63 l 1,20,-1
 353 65 l 1,21,22
 352 88 352 88 351 135.5 c 128,-1,23
 350 183 350 183 349 207 c 1,24,-1
 54 207 l 1,25,-1
 54 274 l 1,26,-1
 151 416 l 2,27,28
 281 608 281 608 296 629 c 2,8,-1
EndSplineSet
EndChar

StartChar: five
Encoding: 53 53 15
Width: 540
Flags: W
LayerCount: 2
Fore
SplineSet
71 392 m 2,0,1
 71 404 71 404 80 541.5 c 128,-1,2
 89 679 89 679 89 690 c 2,3,-1
 89 706 l 1,4,-1
 454 706 l 1,5,-1
 454 636 l 1,6,-1
 164 636 l 1,7,-1
 164 615 l 2,8,9
 164 610 164 610 162 575.5 c 128,-1,10
 160 541 160 541 158 517 c 0,11,12
 155 470 155 470 155 447 c 2,13,-1
 155 440 l 2,14,15
 156 439 156 439 191 455 c 0,16,17
 215 466 215 466 230 468.5 c 128,-1,18
 245 471 245 471 286 471 c 0,19,20
 326 471 326 471 342 468.5 c 128,-1,21
 358 466 358 466 379 456 c 0,22,23
 442 426 442 426 472 366 c 0,24,25
 481 347 481 347 483.5 331 c 128,-1,26
 486 315 486 315 486 271 c 0,27,28
 486 226 486 226 483.5 209.5 c 128,-1,29
 481 193 481 193 471 172 c 0,30,31
 415 56 415 56 261 56 c 0,32,33
 114 58 114 58 65 164 c 0,34,35
 54 188 54 188 54 195 c 0,36,37
 54 204 54 204 64.5 207.5 c 128,-1,38
 75 211 75 211 107 215 c 0,39,40
 115 216 115 216 124 216 c 0,41,42
 131 216 131 216 134 213 c 128,-1,43
 137 210 137 210 140 200 c 0,44,45
 147 182 147 182 166 161.5 c 128,-1,46
 185 141 185 141 203 134 c 0,47,48
 224 126 224 126 262 126 c 0,49,50
 304 126 304 126 325 135 c 0,51,52
 388 162 388 162 403 240 c 0,53,54
 406 255 406 255 406 271 c 0,55,56
 406 311 406 311 387.5 344 c 128,-1,57
 369 377 369 377 336 392 c 0,58,59
 306 406 306 406 269 406 c 0,60,61
 212 406 212 406 170 378 c 0,62,63
 150 364 150 364 111 364 c 2,64,-1
 71 364 l 1,65,-1
 71 392 l 2,0,1
EndSplineSet
EndChar

StartChar: six
Encoding: 54 54 16
Width: 529
Flags: W
LayerCount: 2
Fore
SplineSet
312 410 m 0,0,1
 291 416 291 416 268 416 c 0,2,3
 211 416 211 416 179 386 c 0,4,5
 142 350 142 350 142 282 c 0,6,7
 142 204 142 204 187 160 c 0,8,9
 225 123 225 123 267 123 c 0,10,11
 286 123 286 123 308 129 c 0,12,13
 394 154 394 154 394 275 c 0,14,15
 394 328 394 328 372.5 364 c 128,-1,16
 351 400 351 400 312 410 c 0,0,1
226 712 m 0,17,18
 248 717 248 717 271 717 c 0,19,20
 318 717 318 717 353 705 c 0,21,22
 391 692 391 692 418.5 664 c 128,-1,23
 446 636 446 636 458 598 c 0,24,25
 459 596 459 596 459 592 c 0,26,27
 459 585 459 585 435 582 c 0,28,29
 407 578 407 578 395 575 c 0,30,31
 386 573 386 573 383 575 c 128,-1,32
 380 577 380 577 378 586 c 0,33,34
 374 601 374 601 354 621 c 0,35,36
 324 651 324 651 281 651 c 0,37,38
 267 651 267 651 247 646 c 0,39,40
 150 621 150 621 134 445 c 2,41,-1
 130 401 l 1,42,-1
 160 430 l 2,43,44
 214 480 214 480 283 480 c 0,45,46
 286 480 286 480 292 479.5 c 128,-1,47
 298 479 298 479 301 479 c 0,48,49
 413 472 413 472 459 374 c 0,50,51
 475 338 475 338 475 295 c 2,52,-1
 475 274 l 2,53,54
 475 213 475 213 463 178.5 c 128,-1,55
 451 144 451 144 418 111 c 0,56,57
 400 92 400 92 386 83.5 c 128,-1,58
 372 75 372 75 345 67 c 0,59,60
 306 56 306 56 273 56 c 0,61,62
 214 56 214 56 166 85 c 128,-1,63
 118 114 118 114 90 168 c 0,64,65
 69 211 69 211 61 253 c 128,-1,66
 53 295 53 295 53 372 c 2,67,-1
 53 386 l 2,68,69
 53 461 53 461 62.5 507.5 c 128,-1,70
 72 554 72 554 97 603 c 0,71,72
 144 692 144 692 226 712 c 0,17,18
EndSplineSet
EndChar

StartChar: seven
Encoding: 55 55 17
Width: 535
Flags: W
LayerCount: 2
Fore
SplineSet
56 636 m 1,0,-1
 56 706 l 1,1,-1
 479 706 l 1,2,-1
 479 673 l 2,3,4
 479 650 479 650 471.5 633 c 128,-1,5
 464 616 464 616 427 556 c 0,6,7
 336 411 336 411 300 303 c 0,8,9
 286 263 286 263 275.5 208.5 c 128,-1,10
 265 154 265 154 265 126 c 0,11,12
 265 106 265 106 261 86 c 2,13,-1
 258 68 l 1,14,-1
 180 68 l 1,15,-1
 182 124 l 2,16,17
 190 314 190 314 354 567 c 2,18,-1
 398 633 l 1,19,-1
 226 635 l 1,20,-1
 56 636 l 1,0,-1
EndSplineSet
EndChar

StartChar: eight
Encoding: 56 56 18
Width: 542
Flags: W
LayerCount: 2
Fore
SplineSet
341 359 m 0,0,1
 320 369 320 369 265 369 c 0,2,3
 228 369 228 369 211 363 c 0,4,5
 141 335 141 335 141 245 c 0,6,7
 141 180 141 180 172 150 c 128,-1,8
 203 120 203 120 271 120 c 128,-1,9
 339 120 339 120 370 150 c 128,-1,10
 401 180 401 180 402 246 c 0,11,12
 402 293 402 293 388.5 318 c 128,-1,13
 375 343 375 343 341 359 c 0,0,1
371 617 m 0,14,15
 358 635 358 635 326.5 645.5 c 128,-1,16
 295 656 295 656 261 656 c 0,17,18
 218 656 218 656 194 638 c 0,19,20
 154 610 154 610 154 545 c 0,21,22
 154 489 154 489 186 461 c 0,23,24
 216 434 216 434 270 434 c 0,25,26
 330 434 330 434 361 465 c 0,27,28
 388 492 388 492 388 549 c 0,29,30
 388 592 388 592 371 617 c 0,14,15
203 711 m 0,31,32
 230 718 230 718 264 718 c 0,33,34
 314 718 314 718 361 702.5 c 128,-1,35
 408 687 408 687 432 661 c 0,36,37
 472 618 472 618 472 555 c 0,38,39
 472 508 472 508 449 467.5 c 128,-1,40
 426 427 426 427 385 410 c 2,41,-1
 366 403 l 1,42,-1
 394 392 l 2,43,44
 480 360 480 360 488 256 c 0,45,46
 488 254 488 254 488.5 248 c 128,-1,47
 489 242 489 242 489 240 c 0,48,49
 489 155 489 155 430.5 105.5 c 128,-1,50
 372 56 372 56 271 56 c 128,-1,51
 170 56 170 56 112 106 c 128,-1,52
 54 156 54 156 54 242 c 0,53,54
 54 271 54 271 64 303 c 0,55,56
 73 331 73 331 100 358 c 128,-1,57
 127 385 127 385 153 393 c 2,58,-1
 177 401 l 1,59,-1
 151 414 l 2,60,61
 101 439 101 439 80 490 c 0,62,63
 70 511 70 511 70 547 c 0,64,65
 70 593 70 593 85 623 c 0,66,67
 120 692 120 692 203 711 c 0,31,32
EndSplineSet
EndChar

StartChar: nine
Encoding: 57 57 19
Width: 536
Flags: W
LayerCount: 2
Fore
SplineSet
310 647 m 0,0,1
 281 656 281 656 260 656 c 0,2,3
 223 656 223 656 190 626 c 0,4,5
 164 603 164 603 153 578.5 c 128,-1,6
 142 554 142 554 140 515 c 0,7,8
 140 512 140 512 139.5 505.5 c 128,-1,9
 139 499 139 499 139 496 c 0,10,11
 139 427 139 427 173 386.5 c 128,-1,12
 207 346 207 346 266 346 c 0,13,14
 284 346 284 346 318 364 c 0,15,16
 358 385 358 385 375.5 414 c 128,-1,17
 393 443 393 443 393 487 c 0,18,19
 393 490 393 490 392.5 496 c 128,-1,20
 392 502 392 502 392 506 c 0,21,22
 388 557 388 557 365 597 c 128,-1,23
 342 637 342 637 310 647 c 0,0,1
214 719 m 0,24,25
 226 722 226 722 248 722 c 0,26,27
 319 722 319 722 354 707 c 0,28,29
 463 659 463 659 481 466 c 0,30,31
 483 447 483 447 483 409 c 0,32,33
 483 336 483 336 469.5 269.5 c 128,-1,34
 456 203 456 203 433 165 c 0,35,36
 417 139 417 139 386.5 110.5 c 128,-1,37
 356 82 356 82 335 72 c 0,38,39
 308 59 308 59 248 59 c 0,40,41
 207 59 207 59 192.5 62 c 128,-1,42
 178 65 178 65 154 76 c 0,43,44
 119 93 119 93 101 118 c 0,45,46
 89 135 89 135 79 155.5 c 128,-1,47
 69 176 69 176 69 185 c 0,48,49
 69 187 69 187 70 188 c 0,50,51
 76 191 76 191 107 196 c 0,52,53
 124 200 124 200 135 200 c 0,54,55
 143 200 143 200 147 193 c 0,56,57
 171 151 171 151 191.5 137.5 c 128,-1,58
 212 124 212 124 251 124 c 0,59,60
 300 124 300 124 330 151.5 c 128,-1,61
 360 179 360 179 382 244 c 0,62,63
 394 279 394 279 397 322 c 2,64,-1
 401 367 l 1,65,-1
 381 346 l 2,66,67
 362 326 362 326 341 314 c 0,68,69
 315 299 315 299 314 297 c 0,70,71
 300 283 300 283 241 283 c 0,72,73
 231 283 231 283 215 285 c 0,74,75
 188 289 188 289 157 304.5 c 128,-1,76
 126 320 126 320 109 339 c 0,77,78
 54 402 54 402 54 502 c 0,79,80
 54 558 54 558 75 608 c 0,81,82
 90 642 90 642 129.5 673.5 c 128,-1,83
 169 705 169 705 214 719 c 0,24,25
EndSplineSet
EndChar

StartChar: colon
Encoding: 58 58 20
Width: 192
Flags: W
LayerCount: 2
Fore
SplineSet
54 62 m 1,0,-1
 54 155 l 1,1,-1
 141 155 l 1,2,-1
 141 62 l 1,3,-1
 54 62 l 1,0,-1
54 462 m 1,4,-1
 54 555 l 1,5,-1
 141 555 l 1,6,-1
 141 462 l 1,7,-1
 54 462 l 1,4,-1
EndSplineSet
EndChar

StartChar: semicolon
Encoding: 59 59 21
Width: 192
Flags: W
LayerCount: 2
Fore
SplineSet
54 462 m 1,0,-1
 54 555 l 1,1,-1
 141 555 l 1,2,-1
 141 462 l 1,3,-1
 54 462 l 1,0,-1
54 62 m 1,4,-1
 54 155 l 1,5,-1
 141 155 l 1,6,-1
 141 97 l 2,7,8
 141 8 141 8 119 -36 c 0,9,10
 112 -50 112 -50 106.5 -53 c 128,-1,11
 101 -56 101 -56 81 -58 c 0,12,13
 54 -60 54 -60 54 -57 c 0,14,15
 54 -52 54 -52 71 -18 c 0,16,17
 89 18 89 18 89 41 c 0,18,19
 89 56 89 56 86 59 c 128,-1,20
 83 62 83 62 71 62 c 2,21,-1
 54 62 l 1,4,-1
EndSplineSet
EndChar

StartChar: question
Encoding: 63 63 22
Width: 545
Flags: W
LayerCount: 2
Fore
SplineSet
216 712 m 0,0,1
 246 718 246 718 276 718 c 0,2,3
 390 718 390 718 449 656 c 0,4,5
 491 614 491 614 491 540 c 0,6,7
 491 511 491 511 485 473 c 0,8,9
 481 451 481 451 456.5 424 c 128,-1,10
 432 397 432 397 373 353 c 0,11,12
 301 299 301 299 301 255 c 0,13,14
 301 246 301 246 294.5 244 c 128,-1,15
 288 242 288 242 260 242 c 0,16,17
 230 242 230 242 225 244 c 128,-1,18
 220 246 220 246 220 256 c 0,19,20
 220 293 220 293 243 326 c 128,-1,21
 266 359 266 359 320 399 c 0,22,23
 379 444 379 444 396 468 c 128,-1,24
 413 492 413 492 414 535 c 0,25,26
 414 602 414 602 360 628 c 0,27,28
 332 641 332 641 275 641 c 0,29,30
 247 641 247 641 225 636 c 0,31,32
 199 629 199 629 175.5 605 c 128,-1,33
 152 581 152 581 145 553 c 0,34,35
 141 537 141 537 136.5 531.5 c 128,-1,36
 132 526 132 526 120 526 c 0,37,38
 106 526 106 526 83 530 c 2,39,-1
 56 534 l 1,40,-1
 59 556 l 2,41,42
 68 612 68 612 112.5 656 c 128,-1,43
 157 700 157 700 216 712 c 0,0,1
214 68 m 1,44,-1
 214 161 l 1,45,-1
 307 161 l 1,46,-1
 307 68 l 1,47,-1
 214 68 l 1,44,-1
EndSplineSet
EndChar

StartChar: A
Encoding: 65 65 23
Width: 509
Flags: W
LayerCount: 2
Fore
SplineSet
326 584 m 2,0,-1
 396 706 l 2,1,2
 398 707 398 707 425.5 690 c 128,-1,3
 453 673 453 673 453 670 c 0,4,5
 453 661 453 661 383 537.5 c 128,-1,6
 313 414 313 414 304 401 c 0,7,8
 300 393 300 393 300 389 c 0,9,10
 300 374 300 374 375 245 c 0,11,12
 456 108 456 108 456 103 c 0,13,14
 456 100 456 100 428.5 84.5 c 128,-1,15
 401 69 401 69 396 69 c 2,16,-1
 395 69 l 1,17,-1
 345 154 l 2,18,19
 309 214 309 214 276 271 c 0,20,21
 256 306 256 306 253 306 c 0,22,23
 252 306 252 306 217.5 247 c 128,-1,24
 183 188 183 188 149 128 c 2,25,-1
 115 69 l 2,26,27
 114 67 114 67 109 67 c 0,28,29
 96 67 96 67 75 79.5 c 128,-1,30
 54 92 54 92 54 101 c 0,31,32
 54 107 54 107 135 246 c 2,33,-1
 214 381 l 1,34,-1
 132 520 l 2,35,36
 53 655 53 655 53 665 c 0,37,38
 53 668 53 668 67.5 676.5 c 128,-1,39
 82 685 82 685 96 692.5 c 128,-1,40
 110 700 110 700 111 699 c 0,41,42
 113 697 113 697 156 622 c 0,43,44
 248 462 248 462 254 462 c 0,45,46
 257 462 257 462 326 584 c 2,0,-1
EndSplineSet
EndChar

StartChar: B
Encoding: 66 66 24
Width: 521
Flags: W
LayerCount: 2
Fore
SplineSet
52 619 m 1,0,-1
 52 689 l 1,1,-1
 470 689 l 1,2,-1
 470 561 l 2,3,4
 470 453 470 453 462.5 403 c 128,-1,5
 455 353 455 353 432 303 c 0,6,7
 385 201 385 201 284 131.5 c 128,-1,8
 183 62 183 62 83 62 c 2,9,-1
 52 62 l 1,10,-1
 52 132 l 1,11,-1
 74 132 l 2,12,13
 134 132 134 132 208 168 c 0,14,15
 247 187 247 187 296 236 c 0,16,17
 358 298 358 298 379 359 c 128,-1,18
 400 420 400 420 400 535 c 2,19,-1
 400 619 l 1,20,-1
 52 619 l 1,0,-1
188 465 m 128,-1,22
 202 480 202 480 224 480 c 0,23,24
 245 480 245 480 261.5 465 c 128,-1,25
 278 450 278 450 278 428 c 0,26,27
 278 407 278 407 262.5 391 c 128,-1,28
 247 375 247 375 226 375 c 0,29,30
 203 375 203 375 188.5 391 c 128,-1,31
 174 407 174 407 174 429 c 0,32,21
 174 450 174 450 188 465 c 128,-1,22
EndSplineSet
EndChar

StartChar: C
Encoding: 67 67 25
Width: 519
Flags: W
LayerCount: 2
Fore
SplineSet
51 62 m 1,0,-1
 51 689 l 1,1,-1
 121 689 l 1,2,-1
 121 132 l 1,3,-1
 399 132 l 1,4,-1
 399 689 l 1,5,-1
 469 689 l 1,6,-1
 469 62 l 1,7,-1
 51 62 l 1,0,-1
51 -77 m 1,8,-1
 51 -7 l 1,9,-1
 469 -7 l 1,10,-1
 469 -50 l 2,11,12
 469 -130 469 -130 498 -162 c 2,13,-1
 511 -176 l 1,14,-1
 487 -200 l 2,15,16
 467 -220 467 -220 459 -220 c 0,17,18
 456 -220 456 -220 452 -218 c 0,19,20
 440 -210 440 -210 422 -171 c 128,-1,21
 404 -132 404 -132 401 -107 c 2,22,-1
 397 -77 l 1,23,-1
 51 -77 l 1,8,-1
EndSplineSet
EndChar

StartChar: D
Encoding: 68 68 26
Width: 519
Flags: W
LayerCount: 2
Fore
SplineSet
51 68 m 1,0,-1
 51 694 l 1,1,-1
 121 694 l 1,2,-1
 121 138 l 1,3,-1
 399 138 l 1,4,-1
 399 694 l 1,5,-1
 469 694 l 1,6,-1
 469 68 l 1,7,-1
 51 68 l 1,0,-1
223 436 m 0,8,9
 240 451 240 451 259 451 c 0,10,11
 280 451 280 451 296 436 c 128,-1,12
 312 421 312 421 312 399 c 0,13,14
 312 378 312 378 296.5 362 c 128,-1,15
 281 346 281 346 260 346 c 0,16,17
 238 346 238 346 223 362 c 128,-1,18
 208 378 208 378 208 399 c 128,-1,19
 208 420 208 420 223 436 c 0,8,9
EndSplineSet
EndChar

StartChar: E
Encoding: 69 69 27
Width: 659
Flags: W
LayerCount: 2
Fore
SplineSet
54 655 m 0,0,1
 53 657 53 657 64.5 665.5 c 128,-1,2
 76 674 76 674 91 681.5 c 128,-1,3
 106 689 106 689 113 689 c 0,4,5
 115 689 115 689 117 687 c 2,6,-1
 151 628 l 2,7,8
 185 569 185 569 219.5 511 c 128,-1,9
 254 453 254 453 257 453 c 0,10,11
 259 453 259 453 305 529 c 0,12,13
 342 594 342 594 367.5 623 c 128,-1,14
 393 652 393 652 428 669 c 0,15,16
 451 680 451 680 467 682.5 c 128,-1,17
 483 685 483 685 535 687 c 2,18,-1
 609 690 l 1,19,-1
 609 62 l 1,20,-1
 539 62 l 1,21,-1
 539 619 l 1,22,-1
 520 619 l 2,23,24
 458 619 458 619 422 580 c 0,25,26
 407 563 407 563 354.5 473.5 c 128,-1,27
 302 384 302 384 302 375 c 0,28,29
 302 368 302 368 380 232 c 0,30,31
 458 98 458 98 458 92 c 0,32,33
 458 89 458 89 430 73 c 0,34,35
 409 61 409 61 402 61 c 0,36,37
 398 61 398 61 396 64 c 2,38,-1
 362 122 l 2,39,40
 328 181 328 181 293 239 c 128,-1,41
 258 297 258 297 255 297 c 0,42,43
 251 297 251 297 183 175 c 0,44,45
 114 57 114 57 111 57 c 0,46,47
 105 57 105 57 80 74.5 c 128,-1,48
 55 92 55 92 56 95 c 0,49,50
 58 101 58 101 136 237 c 2,51,-1
 215 375 l 1,52,-1
 136 513 l 2,53,54
 58 651 58 651 54 655 c 0,0,1
EndSplineSet
EndChar

StartChar: F
Encoding: 70 70 28
Width: 520
Flags: W
LayerCount: 2
Fore
SplineSet
54 619 m 1,0,-1
 54 689 l 1,1,-1
 472 689 l 1,2,-1
 472 298 l 2,3,4
 472 -19 472 -19 475.5 -79 c 128,-1,5
 479 -139 479 -139 501 -162 c 2,6,-1
 514 -176 l 1,7,-1
 489 -202 l 2,8,9
 468 -223 468 -223 462 -223 c 0,10,11
 460 -223 460 -223 453 -218 c 0,12,13
 441 -208 441 -208 423 -170 c 2,14,-1
 405 -132 l 1,15,16
 404 -7 404 -7 403 243.5 c 128,-1,17
 402 494 402 494 401 619 c 1,18,-1
 54 619 l 1,0,-1
EndSplineSet
EndChar

StartChar: G
Encoding: 71 71 29
Width: 508
Flags: W
LayerCount: 2
Fore
SplineSet
226 546 m 2,0,1
 398 718 398 718 403 718 c 0,2,3
 410 718 410 718 432 694 c 2,4,-1
 455 671 l 1,5,-1
 159 375 l 1,6,7
 357 179 357 179 455 80 c 1,8,9
 437 63 437 63 403 27 c 1,10,-1
 55 375 l 1,11,-1
 226 546 l 2,0,1
333 412 m 128,-1,13
 347 427 347 427 369 427 c 0,14,15
 390 427 390 427 406.5 412 c 128,-1,16
 423 397 423 397 423 375 c 0,17,18
 423 354 423 354 407.5 338.5 c 128,-1,19
 392 323 392 323 371 323 c 0,20,21
 349 323 349 323 334 339 c 128,-1,22
 319 355 319 355 319 376 c 128,-1,12
 319 397 319 397 333 412 c 128,-1,13
EndSplineSet
EndChar

StartChar: H
Encoding: 72 72 30
Width: 775
Flags: W
LayerCount: 2
Fore
SplineSet
223 551 m 2,0,1
 392 722 392 722 397 722 c 0,2,3
 402 724 402 724 426 700 c 0,4,5
 444 681 444 681 444 676 c 0,6,7
 444 672 444 672 438 664 c 0,8,9
 435 660 435 660 293 516 c 2,10,-1
 159 381 l 1,11,-1
 261 279 l 2,12,13
 350 190 350 190 373 169.5 c 128,-1,14
 396 149 396 149 417 143 c 128,-1,15
 438 137 438 137 520 137 c 0,16,17
 601 137 601 137 622 143 c 0,18,19
 642 148 642 148 660 164 c 2,20,-1
 678 179 l 1,21,-1
 701 157 l 2,22,23
 724 137 724 137 724 127 c 0,24,25
 724 121 724 121 714 112 c 0,26,27
 684 85 684 85 684 -19 c 0,28,29
 684 -125 684 -125 714 -156 c 2,30,-1
 727 -170 l 1,31,-1
 702 -196 l 2,32,33
 681 -217 681 -217 675 -217 c 0,34,35
 673 -217 673 -217 666 -212 c 0,36,37
 654 -202 654 -202 636 -164 c 0,38,39
 622 -136 622 -136 620 -120 c 128,-1,40
 618 -104 618 -104 616 -30 c 2,41,-1
 613 67 l 1,42,43
 577 68 577 68 505 69 c 128,-1,44
 433 70 433 70 397 71 c 1,45,-1
 362 90 l 2,46,47
 329 107 329 107 191 245 c 2,48,-1
 55 381 l 1,49,-1
 223 551 l 2,0,1
EndSplineSet
EndChar

StartChar: I
Encoding: 73 73 31
Width: 179
Flags: W
LayerCount: 2
Fore
SplineSet
51 594 m 2,0,-1
 51 689 l 1,1,-1
 121 689 l 1,2,-1
 121 519 l 2,3,4
 121 364 121 364 125 206 c 2,5,-1
 128 62 l 1,6,-1
 59 62 l 1,7,-1
 55 281 l 2,8,9
 51 521 51 521 51 594 c 2,0,-1
EndSplineSet
EndChar

StartChar: J
Encoding: 74 74 32
Width: 179
Flags: W
LayerCount: 2
Fore
SplineSet
-49 882 m 0,0,1
 -49 893 -49 893 -45 895 c 128,-1,2
 -41 897 -41 897 -15 897 c 128,-1,3
 11 897 11 897 16 895 c 128,-1,4
 21 893 21 893 23 880 c 0,5,6
 28 860 28 860 48.5 844 c 128,-1,7
 69 828 69 828 90 828 c 128,-1,8
 111 828 111 828 131.5 844 c 128,-1,9
 152 860 152 860 157 880 c 0,10,11
 159 893 159 893 164 895 c 128,-1,12
 169 897 169 897 195 897 c 128,-1,13
 221 897 221 897 225 895 c 128,-1,14
 229 893 229 893 229 882 c 0,15,16
 229 867 229 867 217.5 840 c 128,-1,17
 206 813 206 813 193 800 c 0,18,19
 155 759 155 759 91 759 c 0,20,21
 26 759 26 759 -12 800 c 0,22,23
 -25 814 -25 814 -37 840.5 c 128,-1,24
 -49 867 -49 867 -49 882 c 0,0,1
55 62 m 1,25,-1
 55 689 l 1,26,-1
 125 689 l 1,27,-1
 125 62 l 1,28,-1
 55 62 l 1,25,-1
EndSplineSet
EndChar

StartChar: K
Encoding: 75 75 33
Width: 508
Flags: W
LayerCount: 2
Fore
SplineSet
226 546 m 2,0,1
 398 718 398 718 403 718 c 0,2,3
 410 718 410 718 432 694 c 2,4,-1
 455 671 l 1,5,-1
 159 375 l 1,6,7
 357 179 357 179 455 80 c 1,8,9
 437 63 437 63 403 27 c 1,10,-1
 55 375 l 1,11,-1
 226 546 l 2,0,1
EndSplineSet
EndChar

StartChar: L
Encoding: 76 76 34
Width: 527
Flags: W
LayerCount: 2
Fore
SplineSet
56 665 m 2,0,-1
 53 694 l 1,1,-1
 123 694 l 1,2,-1
 130 661 l 2,3,4
 137 626 137 626 167 598 c 0,5,6
 210 555 210 555 264 555 c 0,7,8
 317 555 317 555 360 598 c 0,9,10
 390 626 390 626 397 661 c 2,11,-1
 404 694 l 1,12,-1
 474 694 l 1,13,-1
 471 666 l 2,14,15
 469 639 469 639 453.5 606 c 128,-1,16
 438 573 438 573 418 551 c 0,17,18
 400 529 400 529 361 508 c 0,19,20
 335 494 335 494 321 491 c 128,-1,21
 307 488 307 488 264 488 c 0,22,23
 220 488 220 488 206 491 c 128,-1,24
 192 494 192 494 166 508 c 0,25,26
 69 561 69 561 56 665 c 2,0,-1
201 269 m 0,27,28
 219 275 219 275 258 275 c 2,29,-1
 273 275 l 2,30,31
 322 272 322 272 359 254 c 0,32,33
 404 231 404 231 434.5 189 c 128,-1,34
 465 147 465 147 471 98 c 2,35,-1
 474 68 l 1,36,-1
 438 68 l 2,37,38
 413 68 413 68 408 70 c 128,-1,39
 403 72 403 72 403 81 c 0,40,41
 403 98 403 98 386.5 127.5 c 128,-1,42
 370 157 370 157 352 174 c 0,43,44
 317 206 317 206 264 206 c 0,45,46
 210 206 210 206 175 174 c 0,47,48
 157 157 157 157 140.5 127.5 c 128,-1,49
 124 98 124 98 124 81 c 0,50,51
 124 72 124 72 119 70 c 128,-1,52
 114 68 114 68 89 68 c 2,53,-1
 53 68 l 1,54,-1
 56 97 l 2,55,56
 63 156 63 156 102.5 202.5 c 128,-1,57
 142 249 142 249 201 269 c 0,27,28
EndSplineSet
EndChar

StartChar: M
Encoding: 77 77 35
Width: 692
Flags: W
LayerCount: 2
Fore
SplineSet
192 683 m 0,0,1
 212 690 212 690 251.5 691.5 c 128,-1,2
 291 693 291 693 433 694 c 2,3,-1
 642 694 l 1,4,-1
 642 68 l 1,5,-1
 573 68 l 1,6,-1
 573 625 l 1,7,-1
 399 625 l 1,8,-1
 399 68 l 1,9,-1
 329 68 l 1,10,-1
 329 625 l 1,11,-1
 287 625 l 2,12,13
 239 625 239 625 211 615 c 128,-1,14
 183 605 183 605 160 579 c 0,15,16
 133 548 133 548 128 527 c 0,17,18
 121 505 121 505 121 286 c 2,19,-1
 121 68 l 1,20,-1
 51 68 l 1,21,-1
 51 293 l 2,22,23
 51 483 51 483 56.5 525 c 128,-1,24
 62 567 62 567 91 608 c 0,25,26
 131 663 131 663 192 683 c 0,0,1
EndSplineSet
EndChar

StartChar: N
Encoding: 78 78 36
Width: 519
Flags: W
LayerCount: 2
Fore
SplineSet
197 686 m 0,0,1
 220 693 220 693 258 693 c 2,2,-1
 269 693 l 2,3,4
 316 691 316 691 354 672 c 0,5,6
 421 639 421 639 453 568 c 0,7,8
 462 548 462 548 463.5 513.5 c 128,-1,9
 465 479 465 479 467 305 c 2,10,-1
 469 68 l 1,11,-1
 399 68 l 1,12,-1
 399 286 l 2,13,14
 399 504 399 504 392 528 c 0,15,16
 383 554 383 554 355 582 c 0,17,18
 314 624 314 624 263 624 c 0,19,20
 243 624 243 624 226 620 c 0,21,22
 205 615 205 615 193.5 608 c 128,-1,23
 182 601 182 601 163 582 c 0,24,25
 136 555 136 555 128.5 530.5 c 128,-1,26
 121 506 121 506 121 428 c 0,27,28
 121 408 121 408 123 282 c 2,29,-1
 126 68 l 1,30,-1
 58 68 l 1,31,-1
 54 290 l 2,32,33
 52 414 52 414 52 436 c 0,34,35
 52 518 52 518 57 538 c 0,36,37
 87 650 87 650 197 686 c 0,0,1
EndSplineSet
EndChar

StartChar: O
Encoding: 79 79 37
Width: 656
Flags: W
LayerCount: 2
Fore
SplineSet
378 616 m 0,0,1
 350 623 350 623 329 623 c 0,2,3
 305 623 305 623 278 615 c 0,4,5
 206 596 206 596 163.5 529 c 128,-1,6
 121 462 121 462 121 380 c 0,7,8
 121 269 121 269 193 197 c 0,9,10
 225 165 225 165 254 153 c 128,-1,11
 283 141 283 141 329 141 c 128,-1,12
 375 141 375 141 403.5 153 c 128,-1,13
 432 165 432 165 465 198 c 0,14,15
 521 256 521 256 533 341 c 0,16,17
 536 364 536 364 536 384 c 0,18,19
 536 468 536 468 492.5 532.5 c 128,-1,20
 449 597 449 597 378 616 c 0,0,1
259 685 m 0,21,22
 293 695 293 695 330 695 c 0,23,24
 414 695 414 695 483.5 642 c 128,-1,25
 553 589 553 589 591 493 c 0,26,27
 604 460 604 460 604 384 c 2,28,-1
 604 359 l 2,29,30
 604 306 604 306 591 270 c 0,31,32
 571 211 571 211 528.5 163 c 128,-1,33
 486 115 486 115 433 89 c 0,34,35
 407 76 407 76 391.5 73.5 c 128,-1,36
 376 71 376 71 329 71 c 128,-1,37
 282 71 282 71 266.5 73.5 c 128,-1,38
 251 76 251 76 225 89 c 0,39,40
 172 115 172 115 129.5 163 c 128,-1,41
 87 211 87 211 67 270 c 0,42,43
 54 306 54 306 54 359 c 2,44,-1
 54 384 l 2,45,46
 54 460 54 460 67 493 c 0,47,48
 129 649 129 649 259 685 c 0,21,22
EndSplineSet
EndChar

StartChar: P
Encoding: 80 80 38
Width: 521
Flags: W
LayerCount: 2
Fore
SplineSet
52 619 m 1,0,-1
 52 689 l 1,1,-1
 470 689 l 1,2,-1
 470 561 l 2,3,4
 470 453 470 453 462.5 403 c 128,-1,5
 455 353 455 353 432 303 c 0,6,7
 385 201 385 201 284 131.5 c 128,-1,8
 183 62 183 62 83 62 c 2,9,-1
 52 62 l 1,10,-1
 52 132 l 1,11,-1
 74 132 l 2,12,13
 134 132 134 132 208 168 c 0,14,15
 247 187 247 187 296 236 c 0,16,17
 358 298 358 298 379 359 c 128,-1,18
 400 420 400 420 400 535 c 2,19,-1
 400 619 l 1,20,-1
 52 619 l 1,0,-1
EndSplineSet
EndChar

StartChar: Q
Encoding: 81 81 39
Width: 775
Flags: W
LayerCount: 2
Fore
SplineSet
226 546 m 2,0,1
 398 718 398 718 403 718 c 0,2,3
 410 718 410 718 432 694 c 2,4,-1
 455 671 l 1,5,-1
 159 375 l 1,6,-1
 261 273 l 2,7,8
 343 190 343 190 369 167.5 c 128,-1,9
 395 145 395 145 418 138 c 0,10,11
 438 132 438 132 520 132 c 0,12,13
 601 132 601 132 622 138 c 0,14,15
 641 143 641 143 661 159 c 2,16,-1
 680 174 l 1,17,-1
 703 150 l 2,18,19
 722 132 722 132 722 122 c 0,20,21
 722 109 722 109 678 85 c 2,22,-1
 641 65 l 1,23,-1
 397 65 l 1,24,-1
 362 84 l 2,25,26
 329 101 329 101 191 239 c 2,27,-1
 55 375 l 1,28,-1
 226 546 l 2,0,1
EndSplineSet
EndChar

StartChar: R
Encoding: 82 82 40
Width: 519
Flags: W
LayerCount: 2
Fore
SplineSet
398 484 m 1,0,-1
 399 689 l 1,1,-1
 469 689 l 1,2,-1
 469 61 l 1,3,-1
 433 104 l 2,4,5
 398 145 398 145 260 308 c 2,6,-1
 123 469 l 1,7,8
 122 401 122 401 122 265.5 c 128,-1,9
 122 130 122 130 121 62 c 1,10,-1
 51 62 l 1,11,-1
 51 372 l 2,12,13
 51 683 51 683 53 683 c 0,14,15
 58 683 58 683 226 482 c 2,16,-1
 396 280 l 1,17,-1
 398 484 l 1,0,-1
EndSplineSet
EndChar

StartChar: S
Encoding: 83 83 41
Width: 519
Flags: W
LayerCount: 2
Fore
SplineSet
51 68 m 1,0,-1
 51 694 l 1,1,-1
 121 694 l 1,2,-1
 121 138 l 1,3,-1
 399 138 l 1,4,-1
 399 695 l 1,5,6
 410 694 410 694 432.5 693 c 128,-1,7
 455 692 455 692 466 691 c 1,8,-1
 469 291 l 2,9,10
 472 -71 472 -71 478 -112 c 0,11,12
 483 -140 483 -140 499 -157 c 2,13,-1
 511 -170 l 1,14,-1
 487 -195 l 2,15,16
 468 -214 468 -214 459 -214 c 0,17,18
 446 -214 446 -214 422 -167 c 2,19,-1
 402 -127 l 1,20,21
 401 -95 401 -95 399.5 -30 c 128,-1,22
 398 35 398 35 398 68 c 1,23,-1
 51 68 l 1,0,-1
EndSplineSet
EndChar

StartChar: T
Encoding: 84 84 42
Width: 519
Flags: W
LayerCount: 2
Fore
SplineSet
51 62 m 1,0,-1
 51 689 l 1,1,-1
 121 689 l 1,2,-1
 121 132 l 1,3,-1
 399 132 l 1,4,-1
 399 689 l 1,5,-1
 469 689 l 1,6,-1
 469 62 l 1,7,-1
 51 62 l 1,0,-1
EndSplineSet
EndChar

StartChar: U
Encoding: 85 85 43
Width: 660
Flags: W
LayerCount: 2
Fore
SplineSet
140 670 m 0,0,1
 164 700 164 700 172 700 c 0,2,3
 179 700 179 700 199 682.5 c 128,-1,4
 219 665 219 665 219 658 c 0,5,6
 219 652 219 652 198 629 c 0,7,8
 176 604 176 604 156.5 561 c 128,-1,9
 137 518 137 518 129 480 c 0,10,11
 122 448 122 448 122 360 c 2,12,-1
 122 304 l 1,13,-1
 124 171 l 1,14,-1
 145 152 l 2,15,16
 159 139 159 139 168.5 135.5 c 128,-1,17
 178 132 178 132 199 132 c 0,18,19
 256 132 256 132 282 164 c 0,20,21
 291 175 291 175 293 192 c 128,-1,22
 295 209 295 209 295 277 c 2,23,-1
 295 375 l 1,24,-1
 364 375 l 1,25,-1
 364 277 l 2,26,27
 364 209 364 209 366 192 c 128,-1,28
 368 175 368 175 377 164 c 0,29,30
 403 132 403 132 460 132 c 0,31,32
 481 132 481 132 490.5 135.5 c 128,-1,33
 500 139 500 139 514 152 c 2,34,-1
 535 171 l 1,35,-1
 537 304 l 1,36,-1
 537 360 l 2,37,38
 537 448 537 448 530 480 c 0,39,40
 522 518 522 518 502.5 561 c 128,-1,41
 483 604 483 604 461 629 c 0,42,43
 440 652 440 652 440 657 c 0,44,45
 440 664 440 664 459.5 682 c 128,-1,46
 479 700 479 700 486 700 c 0,47,48
 502 700 502 700 538.5 643 c 128,-1,49
 575 586 575 586 591 535 c 0,50,51
 600 507 600 507 603 475 c 128,-1,52
 606 443 606 443 607 334 c 2,53,-1
 609 172 l 1,54,-1
 594 142 l 2,55,56
 558 62 558 62 461 62 c 0,57,58
 388 62 388 62 346 93 c 2,59,-1
 329 105 l 1,60,-1
 313 93 l 2,61,62
 271 62 271 62 197 62 c 0,63,64
 166 62 166 62 154 65 c 128,-1,65
 142 68 142 68 121 81 c 0,66,67
 89 99 89 99 71 128 c 2,68,-1
 54 157 l 1,69,-1
 54 323 l 2,70,71
 54 444 54 444 55.5 473 c 128,-1,72
 57 502 57 502 67 532 c 0,73,74
 92 609 92 609 140 670 c 0,0,1
EndSplineSet
EndChar

StartChar: V
Encoding: 86 86 44
Width: 520
Flags: W
LayerCount: 2
Fore
SplineSet
54 619 m 1,0,-1
 54 689 l 1,1,-1
 472 689 l 1,2,-1
 472 298 l 2,3,4
 472 -19 472 -19 475.5 -79 c 128,-1,5
 479 -139 479 -139 501 -162 c 2,6,-1
 514 -176 l 1,7,8
 488 -203 488 -203 461 -229 c 1,9,-1
 443 -205 l 2,10,11
 430 -188 430 -188 414 -149 c 0,12,13
 406 -125 406 -125 404 -68 c 128,-1,14
 402 -11 402 -11 402 251 c 2,15,-1
 402 619 l 1,16,-1
 54 619 l 1,0,-1
190 482 m 128,-1,18
 204 497 204 497 226 497 c 0,19,20
 247 497 247 497 263.5 482 c 128,-1,21
 280 467 280 467 280 445 c 0,22,23
 280 424 280 424 264.5 408.5 c 128,-1,24
 249 393 249 393 228 393 c 0,25,26
 206 393 206 393 191 409 c 128,-1,27
 176 425 176 425 176 446 c 128,-1,17
 176 467 176 467 190 482 c 128,-1,18
EndSplineSet
EndChar

StartChar: W
Encoding: 87 87 45
Width: 660
Flags: W
LayerCount: 2
Fore
SplineSet
194 879 m 2,0,-1
 189 903 l 1,1,-1
 222 903 l 2,2,3
 247 903 247 903 252.5 901 c 128,-1,4
 258 899 258 899 260 886 c 0,5,6
 265 866 265 866 285.5 850 c 128,-1,7
 306 834 306 834 327 834 c 128,-1,8
 348 834 348 834 368 850 c 128,-1,9
 388 866 388 866 393 886 c 0,10,11
 395 899 395 899 400 901 c 128,-1,12
 405 903 405 903 431 903 c 0,13,14
 456 903 456 903 461 900.5 c 128,-1,15
 466 898 466 898 466 887 c 0,16,17
 466 868 466 868 450.5 839 c 128,-1,18
 435 810 435 810 419 798 c 0,19,20
 376 765 376 765 334 765 c 2,21,-1
 321 765 l 2,22,23
 283 767 283 767 256 786 c 0,24,25
 207 820 207 820 194 879 c 2,0,-1
151 684 m 0,26,27
 171 706 171 706 175 706 c 0,28,29
 178 706 178 706 201 683 c 2,30,-1
 224 660 l 1,31,-1
 202 635 l 2,32,33
 178 607 178 607 156.5 559.5 c 128,-1,34
 135 512 135 512 129 474 c 0,35,36
 125 447 125 447 125 356 c 2,37,-1
 125 304 l 1,38,-1
 126 177 l 1,39,-1
 148 157 l 2,40,41
 162 144 162 144 171.5 141 c 128,-1,42
 181 138 181 138 202 138 c 0,43,44
 259 138 259 138 285 170 c 0,45,46
 294 181 294 181 296 198 c 128,-1,47
 298 215 298 215 298 283 c 2,48,-1
 298 381 l 1,49,-1
 367 381 l 1,50,-1
 367 283 l 2,51,52
 367 215 367 215 369 198 c 128,-1,53
 371 181 371 181 380 170 c 0,54,55
 406 138 406 138 463 138 c 0,56,57
 484 138 484 138 493 141 c 128,-1,58
 502 144 502 144 517 157 c 2,59,-1
 538 178 l 1,60,-1
 538 304 l 2,61,62
 536 442 536 442 530 474 c 0,63,64
 523 513 523 513 501.5 561 c 128,-1,65
 480 609 480 609 458 635 c 0,66,67
 437 658 437 658 437 662 c 0,68,69
 437 668 437 668 456 687 c 128,-1,70
 475 706 475 706 481 706 c 0,71,72
 497 706 497 706 532.5 651 c 128,-1,73
 568 596 568 596 585 546 c 0,74,75
 596 513 596 513 599 482.5 c 128,-1,76
 602 452 602 452 606 347 c 0,77,78
 609 265 609 265 609 208 c 0,79,80
 609 179 609 179 608 175 c 0,81,82
 603 151 603 151 584 125.5 c 128,-1,83
 565 100 565 100 540 86 c 0,84,85
 520 74 520 74 507 71 c 128,-1,86
 494 68 494 68 465 68 c 0,87,88
 391 68 391 68 349 99 c 2,89,-1
 332 111 l 1,90,-1
 316 99 l 2,91,92
 274 68 274 68 201 68 c 0,93,94
 103 68 103 68 67 147 c 0,95,96
 59 165 59 165 56.5 180 c 128,-1,97
 54 195 54 195 54 239 c 0,98,99
 54 295 54 295 55 339 c 0,100,101
 56 455 56 455 59 483 c 128,-1,102
 62 511 62 511 74 546 c 0,103,104
 102 630 102 630 151 684 c 0,26,27
EndSplineSet
EndChar

StartChar: X
Encoding: 88 88 46
Width: 520
Flags: W
LayerCount: 2
Fore
SplineSet
278 603 m 0,0,1
 391 718 391 718 397 718 c 0,2,3
 404 718 404 718 426 694 c 2,4,-1
 449 671 l 1,5,-1
 330 551 l 2,6,7
 206 427 206 427 185 403 c 2,8,-1
 160 375 l 1,9,-1
 300 234 l 2,10,11
 427 106 427 106 449 72 c 128,-1,12
 471 38 471 38 475 -42 c 0,13,14
 479 -99 479 -99 485 -122.5 c 128,-1,15
 491 -146 491 -146 506 -163 c 2,16,-1
 518 -176 l 1,17,18
 484 -210 484 -210 467 -228 c 1,19,-1
 453 -212 l 2,20,21
 411 -163 411 -163 406 -62 c 0,22,23
 402 9 402 9 395 25 c 0,24,25
 389 40 389 40 221 208 c 2,26,-1
 55 375 l 1,27,-1
 110 432 l 2,28,29
 127 449 127 449 278 603 c 0,0,1
EndSplineSet
EndChar

StartChar: Y
Encoding: 89 89 47
Width: 699
Flags: W
LayerCount: 2
Fore
SplineSet
545 466 m 0,0,1
 532 500 532 500 528 500 c 0,2,3
 519 500 519 500 368 349 c 2,4,-1
 213 194 l 1,5,-1
 231 180 l 2,6,7
 293 132 293 132 348 132 c 0,8,9
 406 132 406 132 463.5 176 c 0,10,11
 521 219 521 219 543 286 c 0,12,13
 556 325 556 325 556 382 c 0,14,15
 556 435 556 435 545 466 c 0,0,1
430 604 m 0,16,17
 396 622 396 622 350 622 c 0,18,19
 292 622 292 622 246 593 c 0,20,21
 213 572 213 572 185 528.5 c 128,-1,22
 157 485 157 485 147 440 c 0,23,24
 141 413 141 413 141 383 c 0,25,26
 141 314 141 314 165 269 c 2,27,-1
 173 253 l 1,28,29
 381 463 381 463 486 567 c 1,30,-1
 472 579 l 2,31,32
 466 583 466 583 430 604 c 0,16,17
280 685 m 0,33,34
 304 692 304 692 342 692 c 0,35,36
 401 692 401 692 443 676 c 0,37,38
 475 663 475 663 506 640 c 2,39,-1
 537 617 l 1,40,-1
 564 644 l 2,41,42
 590 670 590 670 597 670 c 0,43,44
 603 670 603 670 624 648 c 2,45,-1
 645 626 l 1,46,-1
 619 601 l 2,47,48
 586 569 586 569 586 555 c 0,49,50
 586 549 586 549 596 527 c 0,51,52
 627 465 627 465 627 381 c 0,53,54
 627 284 627 284 589 216 c 0,55,56
 569 180 569 180 530 142.5 c 128,-1,57
 491 105 491 105 456 89 c 0,58,59
 427 75 427 75 412 70 c 128,-1,60
 397 65 397 65 350 65 c 0,61,62
 305 65 305 65 288.5 70 c 128,-1,63
 272 75 272 75 251 85 c 0,64,65
 218 101 218 101 191 122 c 2,66,-1
 164 143 l 1,67,68
 133 115 133 115 103 85 c 1,69,-1
 54 134 l 1,70,-1
 119 199 l 1,71,-1
 104 231 l 2,72,73
 71 301 71 301 71 378 c 0,74,75
 71 516 71 516 161 609 c 0,76,77
 216 667 216 667 280 685 c 0,33,34
EndSplineSet
EndChar

StartChar: Z
Encoding: 90 90 48
Width: 519
Flags: W
LayerCount: 2
Fore
SplineSet
51 62 m 1,0,-1
 51 689 l 1,1,-1
 121 689 l 1,2,-1
 121 132 l 1,3,-1
 399 132 l 1,4,-1
 399 689 l 1,5,-1
 469 689 l 1,6,-1
 469 298 l 2,7,8
 469 -19 469 -19 472.5 -79 c 128,-1,9
 476 -139 476 -139 498 -162 c 2,10,-1
 511 -176 l 1,11,-1
 487 -200 l 2,12,13
 468 -219 468 -219 459 -219 c 0,14,15
 445 -219 445 -219 422 -173 c 2,16,-1
 402 -133 l 1,17,18
 401 -100 401 -100 399.5 -35 c 128,-1,19
 398 30 398 30 398 62 c 1,20,-1
 51 62 l 1,0,-1
223 430 m 0,21,22
 240 445 240 445 259 445 c 0,23,24
 280 445 280 445 296 430 c 128,-1,25
 312 415 312 415 312 393 c 0,26,27
 312 370 312 370 296.5 355.5 c 128,-1,28
 281 341 281 341 261 341 c 0,29,30
 237 341 237 341 223 359 c 0,31,32
 208 377 208 377 208 396 c 128,-1,33
 208 415 208 415 223 430 c 0,21,22
EndSplineSet
EndChar

StartChar: a
Encoding: 97 97 49
Width: 509
Flags: W
LayerCount: 2
Fore
SplineSet
326 584 m 2,0,-1
 396 706 l 2,1,2
 398 707 398 707 425.5 690 c 128,-1,3
 453 673 453 673 453 670 c 0,4,5
 453 661 453 661 383 537.5 c 128,-1,6
 313 414 313 414 304 401 c 0,7,8
 300 393 300 393 300 389 c 0,9,10
 300 374 300 374 375 245 c 0,11,12
 456 108 456 108 456 103 c 0,13,14
 456 100 456 100 428.5 84.5 c 128,-1,15
 401 69 401 69 396 69 c 2,16,-1
 395 69 l 1,17,-1
 345 154 l 2,18,19
 309 214 309 214 276 271 c 0,20,21
 256 306 256 306 253 306 c 0,22,23
 252 306 252 306 217.5 247 c 128,-1,24
 183 188 183 188 149 128 c 2,25,-1
 115 69 l 2,26,27
 114 67 114 67 109 67 c 0,28,29
 96 67 96 67 75 79.5 c 128,-1,30
 54 92 54 92 54 101 c 0,31,32
 54 107 54 107 135 246 c 2,33,-1
 214 381 l 1,34,-1
 132 520 l 2,35,36
 53 655 53 655 53 665 c 0,37,38
 53 668 53 668 67.5 676.5 c 128,-1,39
 82 685 82 685 96 692.5 c 128,-1,40
 110 700 110 700 111 699 c 0,41,42
 113 697 113 697 156 622 c 0,43,44
 248 462 248 462 254 462 c 0,45,46
 257 462 257 462 326 584 c 2,0,-1
EndSplineSet
EndChar

StartChar: b
Encoding: 98 98 50
Width: 521
Flags: W
LayerCount: 2
Fore
SplineSet
52 619 m 1,0,-1
 52 689 l 1,1,-1
 470 689 l 1,2,-1
 470 561 l 2,3,4
 470 453 470 453 462.5 403 c 128,-1,5
 455 353 455 353 432 303 c 0,6,7
 385 201 385 201 284 131.5 c 128,-1,8
 183 62 183 62 83 62 c 2,9,-1
 52 62 l 1,10,-1
 52 132 l 1,11,-1
 74 132 l 2,12,13
 134 132 134 132 208 168 c 0,14,15
 247 187 247 187 296 236 c 0,16,17
 358 298 358 298 379 359 c 128,-1,18
 400 420 400 420 400 535 c 2,19,-1
 400 619 l 1,20,-1
 52 619 l 1,0,-1
188 465 m 128,-1,22
 202 480 202 480 224 480 c 0,23,24
 245 480 245 480 261.5 465 c 128,-1,25
 278 450 278 450 278 428 c 0,26,27
 278 407 278 407 262.5 391 c 128,-1,28
 247 375 247 375 226 375 c 0,29,30
 203 375 203 375 188.5 391 c 128,-1,31
 174 407 174 407 174 429 c 0,32,21
 174 450 174 450 188 465 c 128,-1,22
EndSplineSet
EndChar

StartChar: c
Encoding: 99 99 51
Width: 519
Flags: W
LayerCount: 2
Fore
SplineSet
51 62 m 1,0,-1
 51 689 l 1,1,-1
 121 689 l 1,2,-1
 121 132 l 1,3,-1
 399 132 l 1,4,-1
 399 689 l 1,5,-1
 469 689 l 1,6,-1
 469 62 l 1,7,-1
 51 62 l 1,0,-1
51 -77 m 1,8,-1
 51 -7 l 1,9,-1
 469 -7 l 1,10,-1
 469 -50 l 2,11,12
 469 -130 469 -130 498 -162 c 2,13,-1
 511 -176 l 1,14,-1
 487 -200 l 2,15,16
 467 -220 467 -220 459 -220 c 0,17,18
 456 -220 456 -220 452 -218 c 0,19,20
 440 -210 440 -210 422 -171 c 128,-1,21
 404 -132 404 -132 401 -107 c 2,22,-1
 397 -77 l 1,23,-1
 51 -77 l 1,8,-1
EndSplineSet
EndChar

StartChar: d
Encoding: 100 100 52
Width: 519
Flags: W
LayerCount: 2
Fore
SplineSet
51 68 m 1,0,-1
 51 694 l 1,1,-1
 121 694 l 1,2,-1
 121 138 l 1,3,-1
 399 138 l 1,4,-1
 399 694 l 1,5,-1
 469 694 l 1,6,-1
 469 68 l 1,7,-1
 51 68 l 1,0,-1
223 436 m 0,8,9
 240 451 240 451 259 451 c 0,10,11
 280 451 280 451 296 436 c 128,-1,12
 312 421 312 421 312 399 c 0,13,14
 312 378 312 378 296.5 362 c 128,-1,15
 281 346 281 346 260 346 c 0,16,17
 238 346 238 346 223 362 c 128,-1,18
 208 378 208 378 208 399 c 128,-1,19
 208 420 208 420 223 436 c 0,8,9
EndSplineSet
EndChar

StartChar: e
Encoding: 101 101 53
Width: 659
Flags: W
LayerCount: 2
Fore
SplineSet
54 655 m 0,0,1
 53 657 53 657 64.5 665.5 c 128,-1,2
 76 674 76 674 91 681.5 c 128,-1,3
 106 689 106 689 113 689 c 0,4,5
 115 689 115 689 117 687 c 2,6,-1
 151 628 l 2,7,8
 185 569 185 569 219.5 511 c 128,-1,9
 254 453 254 453 257 453 c 0,10,11
 259 453 259 453 305 529 c 0,12,13
 342 594 342 594 367.5 623 c 128,-1,14
 393 652 393 652 428 669 c 0,15,16
 451 680 451 680 467 682.5 c 128,-1,17
 483 685 483 685 535 687 c 2,18,-1
 609 690 l 1,19,-1
 609 62 l 1,20,-1
 539 62 l 1,21,-1
 539 619 l 1,22,-1
 520 619 l 2,23,24
 458 619 458 619 422 580 c 0,25,26
 407 563 407 563 354.5 473.5 c 128,-1,27
 302 384 302 384 302 375 c 0,28,29
 302 368 302 368 380 232 c 0,30,31
 458 98 458 98 458 92 c 0,32,33
 458 89 458 89 430 73 c 0,34,35
 409 61 409 61 402 61 c 0,36,37
 398 61 398 61 396 64 c 2,38,-1
 362 122 l 2,39,40
 328 181 328 181 293 239 c 128,-1,41
 258 297 258 297 255 297 c 0,42,43
 251 297 251 297 183 175 c 0,44,45
 114 57 114 57 111 57 c 0,46,47
 105 57 105 57 80 74.5 c 128,-1,48
 55 92 55 92 56 95 c 0,49,50
 58 101 58 101 136 237 c 2,51,-1
 215 375 l 1,52,-1
 136 513 l 2,53,54
 58 651 58 651 54 655 c 0,0,1
EndSplineSet
EndChar

StartChar: f
Encoding: 102 102 54
Width: 520
Flags: W
LayerCount: 2
Fore
SplineSet
54 619 m 1,0,-1
 54 689 l 1,1,-1
 472 689 l 1,2,-1
 472 298 l 2,3,4
 472 -19 472 -19 475.5 -79 c 128,-1,5
 479 -139 479 -139 501 -162 c 2,6,-1
 514 -176 l 1,7,-1
 489 -202 l 2,8,9
 468 -223 468 -223 462 -223 c 0,10,11
 460 -223 460 -223 453 -218 c 0,12,13
 441 -208 441 -208 423 -170 c 2,14,-1
 405 -132 l 1,15,16
 404 -7 404 -7 403 243.5 c 128,-1,17
 402 494 402 494 401 619 c 1,18,-1
 54 619 l 1,0,-1
EndSplineSet
EndChar

StartChar: g
Encoding: 103 103 55
Width: 508
Flags: W
LayerCount: 2
Fore
SplineSet
226 546 m 2,0,1
 398 718 398 718 403 718 c 0,2,3
 410 718 410 718 432 694 c 2,4,-1
 455 671 l 1,5,-1
 159 375 l 1,6,7
 357 179 357 179 455 80 c 1,8,9
 437 63 437 63 403 27 c 1,10,-1
 55 375 l 1,11,-1
 226 546 l 2,0,1
333 412 m 128,-1,13
 347 427 347 427 369 427 c 0,14,15
 390 427 390 427 406.5 412 c 128,-1,16
 423 397 423 397 423 375 c 0,17,18
 423 354 423 354 407.5 338.5 c 128,-1,19
 392 323 392 323 371 323 c 0,20,21
 349 323 349 323 334 339 c 128,-1,22
 319 355 319 355 319 376 c 128,-1,12
 319 397 319 397 333 412 c 128,-1,13
EndSplineSet
EndChar

StartChar: h
Encoding: 104 104 56
Width: 775
Flags: W
LayerCount: 2
Fore
SplineSet
223 551 m 2,0,1
 392 722 392 722 397 722 c 0,2,3
 402 724 402 724 426 700 c 0,4,5
 444 681 444 681 444 676 c 0,6,7
 444 672 444 672 438 664 c 0,8,9
 435 660 435 660 293 516 c 2,10,-1
 159 381 l 1,11,-1
 261 279 l 2,12,13
 350 190 350 190 373 169.5 c 128,-1,14
 396 149 396 149 417 143 c 128,-1,15
 438 137 438 137 520 137 c 0,16,17
 601 137 601 137 622 143 c 0,18,19
 642 148 642 148 660 164 c 2,20,-1
 678 179 l 1,21,-1
 701 157 l 2,22,23
 724 137 724 137 724 127 c 0,24,25
 724 121 724 121 714 112 c 0,26,27
 684 85 684 85 684 -19 c 0,28,29
 684 -125 684 -125 714 -156 c 2,30,-1
 727 -170 l 1,31,-1
 702 -196 l 2,32,33
 681 -217 681 -217 675 -217 c 0,34,35
 673 -217 673 -217 666 -212 c 0,36,37
 654 -202 654 -202 636 -164 c 0,38,39
 622 -136 622 -136 620 -120 c 128,-1,40
 618 -104 618 -104 616 -30 c 2,41,-1
 613 67 l 1,42,43
 577 68 577 68 505 69 c 128,-1,44
 433 70 433 70 397 71 c 1,45,-1
 362 90 l 2,46,47
 329 107 329 107 191 245 c 2,48,-1
 55 381 l 1,49,-1
 223 551 l 2,0,1
EndSplineSet
EndChar

StartChar: i
Encoding: 105 105 57
Width: 179
Flags: W
LayerCount: 2
Fore
SplineSet
51 594 m 2,0,-1
 51 689 l 1,1,-1
 121 689 l 1,2,-1
 121 519 l 2,3,4
 121 364 121 364 125 206 c 2,5,-1
 128 62 l 1,6,-1
 59 62 l 1,7,-1
 55 281 l 2,8,9
 51 521 51 521 51 594 c 2,0,-1
EndSplineSet
EndChar

StartChar: j
Encoding: 106 106 58
Width: 179
Flags: W
LayerCount: 2
Fore
SplineSet
-49 882 m 0,0,1
 -49 893 -49 893 -45 895 c 128,-1,2
 -41 897 -41 897 -15 897 c 128,-1,3
 11 897 11 897 16 895 c 128,-1,4
 21 893 21 893 23 880 c 0,5,6
 28 860 28 860 48.5 844 c 128,-1,7
 69 828 69 828 90 828 c 128,-1,8
 111 828 111 828 131.5 844 c 128,-1,9
 152 860 152 860 157 880 c 0,10,11
 159 893 159 893 164 895 c 128,-1,12
 169 897 169 897 195 897 c 128,-1,13
 221 897 221 897 225 895 c 128,-1,14
 229 893 229 893 229 882 c 0,15,16
 229 867 229 867 217.5 840 c 128,-1,17
 206 813 206 813 193 800 c 0,18,19
 155 759 155 759 91 759 c 0,20,21
 26 759 26 759 -12 800 c 0,22,23
 -25 814 -25 814 -37 840.5 c 128,-1,24
 -49 867 -49 867 -49 882 c 0,0,1
55 62 m 1,25,-1
 55 689 l 1,26,-1
 125 689 l 1,27,-1
 125 62 l 1,28,-1
 55 62 l 1,25,-1
EndSplineSet
EndChar

StartChar: k
Encoding: 107 107 59
Width: 508
Flags: W
LayerCount: 2
Fore
SplineSet
226 546 m 2,0,1
 398 718 398 718 403 718 c 0,2,3
 410 718 410 718 432 694 c 2,4,-1
 455 671 l 1,5,-1
 159 375 l 1,6,7
 357 179 357 179 455 80 c 1,8,9
 437 63 437 63 403 27 c 1,10,-1
 55 375 l 1,11,-1
 226 546 l 2,0,1
EndSplineSet
EndChar

StartChar: l
Encoding: 108 108 60
Width: 527
Flags: W
LayerCount: 2
Fore
SplineSet
56 665 m 2,0,-1
 53 694 l 1,1,-1
 123 694 l 1,2,-1
 130 661 l 2,3,4
 137 626 137 626 167 598 c 0,5,6
 210 555 210 555 264 555 c 0,7,8
 317 555 317 555 360 598 c 0,9,10
 390 626 390 626 397 661 c 2,11,-1
 404 694 l 1,12,-1
 474 694 l 1,13,-1
 471 666 l 2,14,15
 469 639 469 639 453.5 606 c 128,-1,16
 438 573 438 573 418 551 c 0,17,18
 400 529 400 529 361 508 c 0,19,20
 335 494 335 494 321 491 c 128,-1,21
 307 488 307 488 264 488 c 0,22,23
 220 488 220 488 206 491 c 128,-1,24
 192 494 192 494 166 508 c 0,25,26
 69 561 69 561 56 665 c 2,0,-1
201 269 m 0,27,28
 219 275 219 275 258 275 c 2,29,-1
 273 275 l 2,30,31
 322 272 322 272 359 254 c 0,32,33
 404 231 404 231 434.5 189 c 128,-1,34
 465 147 465 147 471 98 c 2,35,-1
 474 68 l 1,36,-1
 438 68 l 2,37,38
 413 68 413 68 408 70 c 128,-1,39
 403 72 403 72 403 81 c 0,40,41
 403 98 403 98 386.5 127.5 c 128,-1,42
 370 157 370 157 352 174 c 0,43,44
 317 206 317 206 264 206 c 0,45,46
 210 206 210 206 175 174 c 0,47,48
 157 157 157 157 140.5 127.5 c 128,-1,49
 124 98 124 98 124 81 c 0,50,51
 124 72 124 72 119 70 c 128,-1,52
 114 68 114 68 89 68 c 2,53,-1
 53 68 l 1,54,-1
 56 97 l 2,55,56
 63 156 63 156 102.5 202.5 c 128,-1,57
 142 249 142 249 201 269 c 0,27,28
EndSplineSet
EndChar

StartChar: m
Encoding: 109 109 61
Width: 692
Flags: W
LayerCount: 2
Fore
SplineSet
192 683 m 0,0,1
 212 690 212 690 251.5 691.5 c 128,-1,2
 291 693 291 693 433 694 c 2,3,-1
 642 694 l 1,4,-1
 642 68 l 1,5,-1
 573 68 l 1,6,-1
 573 625 l 1,7,-1
 399 625 l 1,8,-1
 399 68 l 1,9,-1
 329 68 l 1,10,-1
 329 625 l 1,11,-1
 287 625 l 2,12,13
 239 625 239 625 211 615 c 128,-1,14
 183 605 183 605 160 579 c 0,15,16
 133 548 133 548 128 527 c 0,17,18
 121 505 121 505 121 286 c 2,19,-1
 121 68 l 1,20,-1
 51 68 l 1,21,-1
 51 293 l 2,22,23
 51 483 51 483 56.5 525 c 128,-1,24
 62 567 62 567 91 608 c 0,25,26
 131 663 131 663 192 683 c 0,0,1
EndSplineSet
EndChar

StartChar: n
Encoding: 110 110 62
Width: 519
Flags: W
LayerCount: 2
Fore
SplineSet
197 686 m 0,0,1
 220 693 220 693 258 693 c 2,2,-1
 269 693 l 2,3,4
 316 691 316 691 354 672 c 0,5,6
 421 639 421 639 453 568 c 0,7,8
 462 548 462 548 463.5 513.5 c 128,-1,9
 465 479 465 479 467 305 c 2,10,-1
 469 68 l 1,11,-1
 399 68 l 1,12,-1
 399 286 l 2,13,14
 399 504 399 504 392 528 c 0,15,16
 383 554 383 554 355 582 c 0,17,18
 314 624 314 624 263 624 c 0,19,20
 243 624 243 624 226 620 c 0,21,22
 205 615 205 615 193.5 608 c 128,-1,23
 182 601 182 601 163 582 c 0,24,25
 136 555 136 555 128.5 530.5 c 128,-1,26
 121 506 121 506 121 428 c 0,27,28
 121 408 121 408 123 282 c 2,29,-1
 126 68 l 1,30,-1
 58 68 l 1,31,-1
 54 290 l 2,32,33
 52 414 52 414 52 436 c 0,34,35
 52 518 52 518 57 538 c 0,36,37
 87 650 87 650 197 686 c 0,0,1
EndSplineSet
EndChar

StartChar: o
Encoding: 111 111 63
Width: 656
Flags: W
LayerCount: 2
Fore
SplineSet
378 616 m 0,0,1
 350 623 350 623 329 623 c 0,2,3
 305 623 305 623 278 615 c 0,4,5
 206 596 206 596 163.5 529 c 128,-1,6
 121 462 121 462 121 380 c 0,7,8
 121 269 121 269 193 197 c 0,9,10
 225 165 225 165 254 153 c 128,-1,11
 283 141 283 141 329 141 c 128,-1,12
 375 141 375 141 403.5 153 c 128,-1,13
 432 165 432 165 465 198 c 0,14,15
 521 256 521 256 533 341 c 0,16,17
 536 364 536 364 536 384 c 0,18,19
 536 468 536 468 492.5 532.5 c 128,-1,20
 449 597 449 597 378 616 c 0,0,1
259 685 m 0,21,22
 293 695 293 695 330 695 c 0,23,24
 414 695 414 695 483.5 642 c 128,-1,25
 553 589 553 589 591 493 c 0,26,27
 604 460 604 460 604 384 c 2,28,-1
 604 359 l 2,29,30
 604 306 604 306 591 270 c 0,31,32
 571 211 571 211 528.5 163 c 128,-1,33
 486 115 486 115 433 89 c 0,34,35
 407 76 407 76 391.5 73.5 c 128,-1,36
 376 71 376 71 329 71 c 128,-1,37
 282 71 282 71 266.5 73.5 c 128,-1,38
 251 76 251 76 225 89 c 0,39,40
 172 115 172 115 129.5 163 c 128,-1,41
 87 211 87 211 67 270 c 0,42,43
 54 306 54 306 54 359 c 2,44,-1
 54 384 l 2,45,46
 54 460 54 460 67 493 c 0,47,48
 129 649 129 649 259 685 c 0,21,22
EndSplineSet
EndChar

StartChar: p
Encoding: 112 112 64
Width: 521
Flags: W
LayerCount: 2
Fore
SplineSet
52 619 m 1,0,-1
 52 689 l 1,1,-1
 470 689 l 1,2,-1
 470 561 l 2,3,4
 470 453 470 453 462.5 403 c 128,-1,5
 455 353 455 353 432 303 c 0,6,7
 385 201 385 201 284 131.5 c 128,-1,8
 183 62 183 62 83 62 c 2,9,-1
 52 62 l 1,10,-1
 52 132 l 1,11,-1
 74 132 l 2,12,13
 134 132 134 132 208 168 c 0,14,15
 247 187 247 187 296 236 c 0,16,17
 358 298 358 298 379 359 c 128,-1,18
 400 420 400 420 400 535 c 2,19,-1
 400 619 l 1,20,-1
 52 619 l 1,0,-1
EndSplineSet
EndChar

StartChar: q
Encoding: 113 113 65
Width: 775
Flags: W
LayerCount: 2
Fore
SplineSet
226 546 m 2,0,1
 398 718 398 718 403 718 c 0,2,3
 410 718 410 718 432 694 c 2,4,-1
 455 671 l 1,5,-1
 159 375 l 1,6,-1
 261 273 l 2,7,8
 343 190 343 190 369 167.5 c 128,-1,9
 395 145 395 145 418 138 c 0,10,11
 438 132 438 132 520 132 c 0,12,13
 601 132 601 132 622 138 c 0,14,15
 641 143 641 143 661 159 c 2,16,-1
 680 174 l 1,17,-1
 703 150 l 2,18,19
 722 132 722 132 722 122 c 0,20,21
 722 109 722 109 678 85 c 2,22,-1
 641 65 l 1,23,-1
 397 65 l 1,24,-1
 362 84 l 2,25,26
 329 101 329 101 191 239 c 2,27,-1
 55 375 l 1,28,-1
 226 546 l 2,0,1
EndSplineSet
EndChar

StartChar: r
Encoding: 114 114 66
Width: 519
Flags: W
LayerCount: 2
Fore
SplineSet
398 484 m 1,0,-1
 399 689 l 1,1,-1
 469 689 l 1,2,-1
 469 61 l 1,3,-1
 433 104 l 2,4,5
 398 145 398 145 260 308 c 2,6,-1
 123 469 l 1,7,8
 122 401 122 401 122 265.5 c 128,-1,9
 122 130 122 130 121 62 c 1,10,-1
 51 62 l 1,11,-1
 51 372 l 2,12,13
 51 683 51 683 53 683 c 0,14,15
 58 683 58 683 226 482 c 2,16,-1
 396 280 l 1,17,-1
 398 484 l 1,0,-1
EndSplineSet
EndChar

StartChar: s
Encoding: 115 115 67
Width: 519
Flags: W
LayerCount: 2
Fore
SplineSet
51 68 m 1,0,-1
 51 694 l 1,1,-1
 121 694 l 1,2,-1
 121 138 l 1,3,-1
 399 138 l 1,4,-1
 399 695 l 1,5,6
 410 694 410 694 432.5 693 c 128,-1,7
 455 692 455 692 466 691 c 1,8,-1
 469 291 l 2,9,10
 472 -71 472 -71 478 -112 c 0,11,12
 483 -140 483 -140 499 -157 c 2,13,-1
 511 -170 l 1,14,-1
 487 -195 l 2,15,16
 468 -214 468 -214 459 -214 c 0,17,18
 446 -214 446 -214 422 -167 c 2,19,-1
 402 -127 l 1,20,21
 401 -95 401 -95 399.5 -30 c 128,-1,22
 398 35 398 35 398 68 c 1,23,-1
 51 68 l 1,0,-1
EndSplineSet
EndChar

StartChar: t
Encoding: 116 116 68
Width: 519
Flags: W
LayerCount: 2
Fore
SplineSet
51 62 m 1,0,-1
 51 689 l 1,1,-1
 121 689 l 1,2,-1
 121 132 l 1,3,-1
 399 132 l 1,4,-1
 399 689 l 1,5,-1
 469 689 l 1,6,-1
 469 62 l 1,7,-1
 51 62 l 1,0,-1
EndSplineSet
EndChar

StartChar: u
Encoding: 117 117 69
Width: 660
Flags: W
LayerCount: 2
Fore
SplineSet
140 670 m 0,0,1
 164 700 164 700 172 700 c 0,2,3
 179 700 179 700 199 682.5 c 128,-1,4
 219 665 219 665 219 658 c 0,5,6
 219 652 219 652 198 629 c 0,7,8
 176 604 176 604 156.5 561 c 128,-1,9
 137 518 137 518 129 480 c 0,10,11
 122 448 122 448 122 360 c 2,12,-1
 122 304 l 1,13,-1
 124 171 l 1,14,-1
 145 152 l 2,15,16
 159 139 159 139 168.5 135.5 c 128,-1,17
 178 132 178 132 199 132 c 0,18,19
 256 132 256 132 282 164 c 0,20,21
 291 175 291 175 293 192 c 128,-1,22
 295 209 295 209 295 277 c 2,23,-1
 295 375 l 1,24,-1
 364 375 l 1,25,-1
 364 277 l 2,26,27
 364 209 364 209 366 192 c 128,-1,28
 368 175 368 175 377 164 c 0,29,30
 403 132 403 132 460 132 c 0,31,32
 481 132 481 132 490.5 135.5 c 128,-1,33
 500 139 500 139 514 152 c 2,34,-1
 535 171 l 1,35,-1
 537 304 l 1,36,-1
 537 360 l 2,37,38
 537 448 537 448 530 480 c 0,39,40
 522 518 522 518 502.5 561 c 128,-1,41
 483 604 483 604 461 629 c 0,42,43
 440 652 440 652 440 657 c 0,44,45
 440 664 440 664 459.5 682 c 128,-1,46
 479 700 479 700 486 700 c 0,47,48
 502 700 502 700 538.5 643 c 128,-1,49
 575 586 575 586 591 535 c 0,50,51
 600 507 600 507 603 475 c 128,-1,52
 606 443 606 443 607 334 c 2,53,-1
 609 172 l 1,54,-1
 594 142 l 2,55,56
 558 62 558 62 461 62 c 0,57,58
 388 62 388 62 346 93 c 2,59,-1
 329 105 l 1,60,-1
 313 93 l 2,61,62
 271 62 271 62 197 62 c 0,63,64
 166 62 166 62 154 65 c 128,-1,65
 142 68 142 68 121 81 c 0,66,67
 89 99 89 99 71 128 c 2,68,-1
 54 157 l 1,69,-1
 54 323 l 2,70,71
 54 444 54 444 55.5 473 c 128,-1,72
 57 502 57 502 67 532 c 0,73,74
 92 609 92 609 140 670 c 0,0,1
EndSplineSet
EndChar

StartChar: v
Encoding: 118 118 70
Width: 520
Flags: W
LayerCount: 2
Fore
SplineSet
54 619 m 1,0,-1
 54 689 l 1,1,-1
 472 689 l 1,2,-1
 472 298 l 2,3,4
 472 -19 472 -19 475.5 -79 c 128,-1,5
 479 -139 479 -139 501 -162 c 2,6,-1
 514 -176 l 1,7,8
 488 -203 488 -203 461 -229 c 1,9,-1
 443 -205 l 2,10,11
 430 -188 430 -188 414 -149 c 0,12,13
 406 -125 406 -125 404 -68 c 128,-1,14
 402 -11 402 -11 402 251 c 2,15,-1
 402 619 l 1,16,-1
 54 619 l 1,0,-1
190 482 m 128,-1,18
 204 497 204 497 226 497 c 0,19,20
 247 497 247 497 263.5 482 c 128,-1,21
 280 467 280 467 280 445 c 0,22,23
 280 424 280 424 264.5 408.5 c 128,-1,24
 249 393 249 393 228 393 c 0,25,26
 206 393 206 393 191 409 c 128,-1,27
 176 425 176 425 176 446 c 128,-1,17
 176 467 176 467 190 482 c 128,-1,18
EndSplineSet
EndChar

StartChar: w
Encoding: 119 119 71
Width: 660
Flags: W
LayerCount: 2
Fore
SplineSet
194 879 m 2,0,-1
 189 903 l 1,1,-1
 222 903 l 2,2,3
 247 903 247 903 252.5 901 c 128,-1,4
 258 899 258 899 260 886 c 0,5,6
 265 866 265 866 285.5 850 c 128,-1,7
 306 834 306 834 327 834 c 128,-1,8
 348 834 348 834 368 850 c 128,-1,9
 388 866 388 866 393 886 c 0,10,11
 395 899 395 899 400 901 c 128,-1,12
 405 903 405 903 431 903 c 0,13,14
 456 903 456 903 461 900.5 c 128,-1,15
 466 898 466 898 466 887 c 0,16,17
 466 868 466 868 450.5 839 c 128,-1,18
 435 810 435 810 419 798 c 0,19,20
 376 765 376 765 334 765 c 2,21,-1
 321 765 l 2,22,23
 283 767 283 767 256 786 c 0,24,25
 207 820 207 820 194 879 c 2,0,-1
151 684 m 0,26,27
 171 706 171 706 175 706 c 0,28,29
 178 706 178 706 201 683 c 2,30,-1
 224 660 l 1,31,-1
 202 635 l 2,32,33
 178 607 178 607 156.5 559.5 c 128,-1,34
 135 512 135 512 129 474 c 0,35,36
 125 447 125 447 125 356 c 2,37,-1
 125 304 l 1,38,-1
 126 177 l 1,39,-1
 148 157 l 2,40,41
 162 144 162 144 171.5 141 c 128,-1,42
 181 138 181 138 202 138 c 0,43,44
 259 138 259 138 285 170 c 0,45,46
 294 181 294 181 296 198 c 128,-1,47
 298 215 298 215 298 283 c 2,48,-1
 298 381 l 1,49,-1
 367 381 l 1,50,-1
 367 283 l 2,51,52
 367 215 367 215 369 198 c 128,-1,53
 371 181 371 181 380 170 c 0,54,55
 406 138 406 138 463 138 c 0,56,57
 484 138 484 138 493 141 c 128,-1,58
 502 144 502 144 517 157 c 2,59,-1
 538 178 l 1,60,-1
 538 304 l 2,61,62
 536 442 536 442 530 474 c 0,63,64
 523 513 523 513 501.5 561 c 128,-1,65
 480 609 480 609 458 635 c 0,66,67
 437 658 437 658 437 662 c 0,68,69
 437 668 437 668 456 687 c 128,-1,70
 475 706 475 706 481 706 c 0,71,72
 497 706 497 706 532.5 651 c 128,-1,73
 568 596 568 596 585 546 c 0,74,75
 596 513 596 513 599 482.5 c 128,-1,76
 602 452 602 452 606 347 c 0,77,78
 609 265 609 265 609 208 c 0,79,80
 609 179 609 179 608 175 c 0,81,82
 603 151 603 151 584 125.5 c 128,-1,83
 565 100 565 100 540 86 c 0,84,85
 520 74 520 74 507 71 c 128,-1,86
 494 68 494 68 465 68 c 0,87,88
 391 68 391 68 349 99 c 2,89,-1
 332 111 l 1,90,-1
 316 99 l 2,91,92
 274 68 274 68 201 68 c 0,93,94
 103 68 103 68 67 147 c 0,95,96
 59 165 59 165 56.5 180 c 128,-1,97
 54 195 54 195 54 239 c 0,98,99
 54 295 54 295 55 339 c 0,100,101
 56 455 56 455 59 483 c 128,-1,102
 62 511 62 511 74 546 c 0,103,104
 102 630 102 630 151 684 c 0,26,27
EndSplineSet
EndChar

StartChar: x
Encoding: 120 120 72
Width: 520
Flags: W
LayerCount: 2
Fore
SplineSet
278 603 m 0,0,1
 391 718 391 718 397 718 c 0,2,3
 404 718 404 718 426 694 c 2,4,-1
 449 671 l 1,5,-1
 330 551 l 2,6,7
 206 427 206 427 185 403 c 2,8,-1
 160 375 l 1,9,-1
 300 234 l 2,10,11
 427 106 427 106 449 72 c 128,-1,12
 471 38 471 38 475 -42 c 0,13,14
 479 -99 479 -99 485 -122.5 c 128,-1,15
 491 -146 491 -146 506 -163 c 2,16,-1
 518 -176 l 1,17,18
 484 -210 484 -210 467 -228 c 1,19,-1
 453 -212 l 2,20,21
 411 -163 411 -163 406 -62 c 0,22,23
 402 9 402 9 395 25 c 0,24,25
 389 40 389 40 221 208 c 2,26,-1
 55 375 l 1,27,-1
 110 432 l 2,28,29
 127 449 127 449 278 603 c 0,0,1
EndSplineSet
EndChar

StartChar: y
Encoding: 121 121 73
Width: 699
Flags: W
LayerCount: 2
Fore
SplineSet
545 466 m 0,0,1
 532 500 532 500 528 500 c 0,2,3
 519 500 519 500 368 349 c 2,4,-1
 213 194 l 1,5,-1
 231 180 l 2,6,7
 293 132 293 132 348 132 c 0,8,9
 406 132 406 132 463.5 176 c 0,10,11
 521 219 521 219 543 286 c 0,12,13
 556 325 556 325 556 382 c 0,14,15
 556 435 556 435 545 466 c 0,0,1
430 604 m 0,16,17
 396 622 396 622 350 622 c 0,18,19
 292 622 292 622 246 593 c 0,20,21
 213 572 213 572 185 528.5 c 128,-1,22
 157 485 157 485 147 440 c 0,23,24
 141 413 141 413 141 383 c 0,25,26
 141 314 141 314 165 269 c 2,27,-1
 173 253 l 1,28,29
 381 463 381 463 486 567 c 1,30,-1
 472 579 l 2,31,32
 466 583 466 583 430 604 c 0,16,17
280 685 m 0,33,34
 304 692 304 692 342 692 c 0,35,36
 401 692 401 692 443 676 c 0,37,38
 475 663 475 663 506 640 c 2,39,-1
 537 617 l 1,40,-1
 564 644 l 2,41,42
 590 670 590 670 597 670 c 0,43,44
 603 670 603 670 624 648 c 2,45,-1
 645 626 l 1,46,-1
 619 601 l 2,47,48
 586 569 586 569 586 555 c 0,49,50
 586 549 586 549 596 527 c 0,51,52
 627 465 627 465 627 381 c 0,53,54
 627 284 627 284 589 216 c 0,55,56
 569 180 569 180 530 142.5 c 128,-1,57
 491 105 491 105 456 89 c 0,58,59
 427 75 427 75 412 70 c 128,-1,60
 397 65 397 65 350 65 c 0,61,62
 305 65 305 65 288.5 70 c 128,-1,63
 272 75 272 75 251 85 c 0,64,65
 218 101 218 101 191 122 c 2,66,-1
 164 143 l 1,67,68
 133 115 133 115 103 85 c 1,69,-1
 54 134 l 1,70,-1
 119 199 l 1,71,-1
 104 231 l 2,72,73
 71 301 71 301 71 378 c 0,74,75
 71 516 71 516 161 609 c 0,76,77
 216 667 216 667 280 685 c 0,33,34
EndSplineSet
EndChar

StartChar: z
Encoding: 122 122 74
Width: 519
Flags: W
LayerCount: 2
Fore
SplineSet
51 62 m 1,0,-1
 51 689 l 1,1,-1
 121 689 l 1,2,-1
 121 132 l 1,3,-1
 399 132 l 1,4,-1
 399 689 l 1,5,-1
 469 689 l 1,6,-1
 469 298 l 2,7,8
 469 -19 469 -19 472.5 -79 c 128,-1,9
 476 -139 476 -139 498 -162 c 2,10,-1
 511 -176 l 1,11,-1
 487 -200 l 2,12,13
 468 -219 468 -219 459 -219 c 0,14,15
 445 -219 445 -219 422 -173 c 2,16,-1
 402 -133 l 1,17,18
 401 -100 401 -100 399.5 -35 c 128,-1,19
 398 30 398 30 398 62 c 1,20,-1
 51 62 l 1,0,-1
223 430 m 0,21,22
 240 445 240 445 259 445 c 0,23,24
 280 445 280 445 296 430 c 128,-1,25
 312 415 312 415 312 393 c 0,26,27
 312 370 312 370 296.5 355.5 c 128,-1,28
 281 341 281 341 261 341 c 0,29,30
 237 341 237 341 223 359 c 0,31,32
 208 377 208 377 208 396 c 128,-1,33
 208 415 208 415 223 430 c 0,21,22
EndSplineSet
EndChar

StartChar: asciicircum
Encoding: 94 94 76
Width: 535
Flags: W
LayerCount: 2
Fore
SplineSet
138 535 m 2,0,-1
 221 700 l 1,1,-1
 314 700 l 1,2,-1
 397 535 l 2,3,4
 479 369 479 369 479 367 c 0,5,6
 479 364 479 364 443 364 c 2,7,-1
 406 364 l 1,8,9
 359 459 359 459 267 651 c 1,10,-1
 231 575 l 2,11,12
 220 553 220 553 195 501 c 128,-1,13
 170 449 170 449 162 432 c 2,14,-1
 130 364 l 1,15,-1
 93 364 l 2,16,17
 56 364 56 364 56 367 c 0,18,19
 56 369 56 369 138 535 c 2,0,-1
EndSplineSet
EndChar

StartChar: parenleft
Encoding: 40 40 77
Width: 352
Flags: W
LayerCount: 2
Fore
SplineSet
190 705 m 2,0,-1
 213 735 l 1,1,-1
 295 735 l 1,2,-1
 260 689 l 2,3,4
 192 597 192 597 164 510 c 128,-1,5
 136 423 136 423 136 303 c 0,6,7
 136 181 136 181 166.5 89.5 c 128,-1,8
 197 -2 197 -2 267 -93 c 2,9,-1
 295 -130 l 1,10,11
 281 -130 281 -130 253 -128 c 128,-1,12
 225 -126 225 -126 211 -126 c 1,13,-1
 177 -83 l 2,14,15
 145 -42 145 -42 112.5 24 c 128,-1,16
 80 90 80 90 67 141 c 0,17,18
 58 175 58 175 56 202 c 128,-1,19
 54 229 54 229 54 303 c 0,20,21
 54 376 54 376 56 404 c 128,-1,22
 58 432 58 432 67 465 c 0,23,24
 98 587 98 587 190 705 c 2,0,-1
EndSplineSet
EndChar

StartChar: parenright
Encoding: 41 41 78
Width: 352
Flags: W
LayerCount: 2
Fore
SplineSet
150 705 m 2,0,-1
 127 735 l 1,1,-1
 45 735 l 1,2,-1
 80 689 l 2,3,4
 148 597 148 597 176 510 c 128,-1,5
 204 423 204 423 204 303 c 0,6,7
 204 181 204 181 173.5 89.5 c 128,-1,8
 143 -2 143 -2 73 -93 c 2,9,-1
 45 -130 l 1,10,11
 59 -130 59 -130 87 -128 c 128,-1,12
 115 -126 115 -126 129 -126 c 1,13,-1
 163 -83 l 2,14,15
 195 -42 195 -42 227.5 24 c 128,-1,16
 260 90 260 90 273 141 c 0,17,18
 282 175 282 175 284 202 c 128,-1,19
 286 229 286 229 286 303 c 0,20,21
 286 376 286 376 284 404 c 128,-1,22
 282 432 282 432 273 465 c 0,23,24
 242 587 242 587 150 705 c 2,0,-1
EndSplineSet
EndChar

StartChar: slash
Encoding: 47 47 79
Width: 366
Flags: W
LayerCount: 2
Fore
SplineSet
310 731 m 4,0,1
 310 729 310 729 220 392.5 c 132,-1,2
 130 56 130 56 130 54 c 4,3,4
 130 51 130 51 92 51 c 4,5,6
 56 51 56 51 56 57 c 4,7,8
 56 59 56 59 57 61 c 4,9,10
 58 65 58 65 146 393.5 c 132,-1,11
 234 722 234 722 237 728 c 4,12,13
 239 735 239 735 285 735 c 4,14,15
 310 735 310 735 310 731 c 4,0,1
EndSplineSet
EndChar

StartChar: backslash
Encoding: 92 92 80
Width: 366
Flags: W
LayerCount: 2
Fore
SplineSet
310 61 m 0,0,1
 310 63 310 63 220 399.5 c 128,-1,2
 130 736 130 736 130 738 c 0,3,4
 130 741 130 741 92 741 c 0,5,6
 56 741 56 741 56 735 c 0,7,8
 56 733 56 733 57 731 c 0,9,10
 58 727 58 727 146 398.5 c 128,-1,11
 234 70 234 70 237 64 c 0,12,13
 239 57 239 57 285 57 c 0,14,15
 310 57 310 57 310 61 c 0,0,1
EndSplineSet
EndChar

StartChar: bracketleft
Encoding: 91 91 81
Width: 352
Flags: W
LayerCount: 2
Fore
SplineSet
190 705 m 2,0,-1
 213 735 l 1,1,-1
 295 735 l 1,2,-1
 260 689 l 2,3,4
 192 597 192 597 164 510 c 128,-1,5
 136 423 136 423 136 303 c 0,6,7
 136 181 136 181 166.5 89.5 c 128,-1,8
 197 -2 197 -2 267 -93 c 2,9,-1
 295 -130 l 1,10,11
 281 -130 281 -130 253 -128 c 128,-1,12
 225 -126 225 -126 211 -126 c 1,13,-1
 177 -83 l 2,14,15
 145 -42 145 -42 112.5 24 c 128,-1,16
 80 90 80 90 67 141 c 0,17,18
 58 175 58 175 56 202 c 128,-1,19
 54 229 54 229 54 303 c 0,20,21
 54 376 54 376 56 404 c 128,-1,22
 58 432 58 432 67 465 c 0,23,24
 98 587 98 587 190 705 c 2,0,-1
EndSplineSet
EndChar

StartChar: braceleft
Encoding: 123 123 82
Width: 352
Flags: W
LayerCount: 2
Fore
SplineSet
190 705 m 2,0,-1
 213 735 l 1,1,-1
 295 735 l 1,2,-1
 260 689 l 2,3,4
 192 597 192 597 164 510 c 128,-1,5
 136 423 136 423 136 303 c 0,6,7
 136 181 136 181 166.5 89.5 c 128,-1,8
 197 -2 197 -2 267 -93 c 2,9,-1
 295 -130 l 1,10,11
 281 -130 281 -130 253 -128 c 128,-1,12
 225 -126 225 -126 211 -126 c 1,13,-1
 177 -83 l 2,14,15
 145 -42 145 -42 112.5 24 c 128,-1,16
 80 90 80 90 67 141 c 0,17,18
 58 175 58 175 56 202 c 128,-1,19
 54 229 54 229 54 303 c 0,20,21
 54 376 54 376 56 404 c 128,-1,22
 58 432 58 432 67 465 c 0,23,24
 98 587 98 587 190 705 c 2,0,-1
EndSplineSet
EndChar

StartChar: bracketright
Encoding: 93 93 83
Width: 352
Flags: W
LayerCount: 2
Fore
SplineSet
150 705 m 2,0,-1
 127 735 l 1,1,-1
 45 735 l 1,2,-1
 80 689 l 2,3,4
 148 597 148 597 176 510 c 128,-1,5
 204 423 204 423 204 303 c 0,6,7
 204 181 204 181 173.5 89.5 c 128,-1,8
 143 -2 143 -2 73 -93 c 2,9,-1
 45 -130 l 1,10,11
 59 -130 59 -130 87 -128 c 128,-1,12
 115 -126 115 -126 129 -126 c 1,13,-1
 163 -83 l 2,14,15
 195 -42 195 -42 227.5 24 c 128,-1,16
 260 90 260 90 273 141 c 0,17,18
 282 175 282 175 284 202 c 128,-1,19
 286 229 286 229 286 303 c 0,20,21
 286 376 286 376 284 404 c 128,-1,22
 282 432 282 432 273 465 c 0,23,24
 242 587 242 587 150 705 c 2,0,-1
EndSplineSet
EndChar

StartChar: braceright
Encoding: 125 125 84
Width: 352
Flags: W
LayerCount: 2
Fore
SplineSet
150 705 m 2,0,-1
 127 735 l 1,1,-1
 45 735 l 1,2,-1
 80 689 l 2,3,4
 148 597 148 597 176 510 c 128,-1,5
 204 423 204 423 204 303 c 0,6,7
 204 181 204 181 173.5 89.5 c 128,-1,8
 143 -2 143 -2 73 -93 c 2,9,-1
 45 -130 l 1,10,11
 59 -130 59 -130 87 -128 c 128,-1,12
 115 -126 115 -126 129 -126 c 1,13,-1
 163 -83 l 2,14,15
 195 -42 195 -42 227.5 24 c 128,-1,16
 260 90 260 90 273 141 c 0,17,18
 282 175 282 175 284 202 c 128,-1,19
 286 229 286 229 286 303 c 0,20,21
 286 376 286 376 284 404 c 128,-1,22
 282 432 282 432 273 465 c 0,23,24
 242 587 242 587 150 705 c 2,0,-1
EndSplineSet
EndChar

StartChar: plus
Encoding: 43 43 85
Width: 564
Flags: W
LayerCount: 2
Fore
SplineSet
246 404 m 1,0,-1
 246 596 l 1,1,-1
 310 596 l 1,2,-1
 310 404 l 1,3,-1
 408 403 l 1,4,-1
 504 401 l 1,5,6
 504 391 504 391 506 371 c 128,-1,7
 508 351 508 351 508 341 c 1,8,-1
 418 341 l 2,9,10
 329 341 329 341 319 337 c 0,11,12
 313 335 313 335 311.5 317.5 c 128,-1,13
 310 300 310 300 310 239 c 2,14,-1
 310 143 l 1,15,-1
 246 143 l 1,16,-1
 246 239 l 2,17,18
 246 300 246 300 244.5 317.5 c 128,-1,19
 243 335 243 335 237 337 c 0,20,21
 227 341 227 341 141 341 c 2,22,-1
 55 341 l 1,23,-1
 55 404 l 1,24,-1
 246 404 l 1,0,-1
EndSplineSet
EndChar

StartChar: hyphen
Encoding: 45 45 86
Width: 564
Flags: W
LayerCount: 2
Fore
SplineSet
504 403 m 1,0,-1
 504 401 l 1,1,-1
 504 401 l 1,2,3
 504 371 504 371 504 341 c 4,4,5
 504 341 l 5,6,-1
 504 341 l 6,7,-1
 504 341 l 4,8,9
 55 341 l 1,10,-1
 55 404 l 1,11,-1
 504 403 l 1,0,-1
EndSplineSet
EndChar

StartChar: asterisk
Encoding: 42 42 87
Width: 434
Flags: W
LayerCount: 2
Fore
SplineSet
191 639 m 1,0,-1
 188 706 l 1,1,-1
 253 706 l 1,2,-1
 249 642 l 2,3,4
 248 625 248 625 248 601 c 0,5,6
 248 578 248 578 252 578 c 0,7,8
 257 578 257 578 289 591 c 0,9,10
 348 615 348 615 359 615 c 0,11,12
 366 615 366 615 370 603 c 0,13,14
 380 576 380 576 380 570 c 0,15,16
 380 561 380 561 370.5 556.5 c 128,-1,17
 361 552 361 552 333 546 c 0,18,19
 326 545 326 545 323 544 c 0,20,21
 262 528 262 528 262 527 c 0,22,23
 262 521 262 521 300 469 c 2,24,-1
 341 414 l 1,25,-1
 314 397 l 2,26,27
 286 380 286 380 285 382 c 0,28,29
 284 383 284 383 268.5 410.5 c 128,-1,30
 253 438 253 438 236.5 464.5 c 128,-1,31
 220 491 220 491 218 491 c 0,32,33
 216 490 216 490 182 436 c 2,34,-1
 148 382 l 1,35,-1
 123 397 l 2,36,37
 97 414 97 414 97 416 c 0,38,39
 97 417 97 417 134 466.5 c 128,-1,40
 171 516 171 516 171 525 c 0,41,42
 171 527 171 527 170 527 c 0,43,44
 169 528 169 528 140 536 c 128,-1,45
 111 544 111 544 83.5 552.5 c 128,-1,46
 56 561 56 561 56 564 c 0,47,48
 56 569 56 569 62 591 c 0,49,50
 63 594 63 594 64.5 597.5 c 128,-1,51
 66 601 66 601 66.5 603 c 128,-1,52
 67 605 67 605 68 607.5 c 128,-1,53
 69 610 69 610 70 611.5 c 128,-1,54
 71 613 71 613 72.5 614 c 128,-1,55
 74 615 74 615 75.5 615.5 c 128,-1,56
 77 616 77 616 79 616 c 0,57,58
 85 616 85 616 166 584 c 2,59,-1
 195 573 l 1,60,-1
 191 639 l 1,0,-1
EndSplineSet
EndChar

StartChar: grave
Encoding: 96 96 88
Width: 355
Flags: W
LayerCount: 2
Fore
SplineSet
137 673 m 2,0,-1
 137 700 l 1,1,-1
 218 700 l 1,2,-1
 218 673 l 2,3,4
 218 653 218 653 214 571 c 2,5,-1
 211 497 l 1,6,-1
 144 497 l 1,7,-1
 141 571 l 2,8,9
 137 653 137 653 137 673 c 2,0,-1
EndSplineSet
EndChar

StartChar: equal
Encoding: 61 61 89
Width: 564
Flags: W
LayerCount: 2
Fore
SplineSet
504 511 m 1,0,-1
 504 509 l 1,1,-1
 504 509 l 1,2,3
 504 479 504 479 504 449 c 0,4,5
 504 449 l 1,6,-1
 504 449 l 2,7,-1
 504 449 l 0,8,9
 55 449 l 1,10,-1
 55 512 l 1,11,-1
 504 511 l 1,0,-1
504 299 m 1,12,-1
 504 297 l 1,13,-1
 504 297 l 1,14,15
 504 267 504 267 504 237 c 0,16,-1
 504 237 l 1,17,-1
 504 237 l 2,18,-1
 504 237 l 0,19,-1
 55 237 l 1,20,-1
 55 300 l 1,21,-1
 504 299 l 1,12,-1
EndSplineSet
EndChar

StartChar: greater
Encoding: 62 62 90
Width: 535
Flags: W
LayerCount: 2
Fore
SplineSet
293 547 m 2,0,-1
 458 464 l 1,1,-1
 458 371 l 1,2,-1
 293 288 l 2,3,4
 127 206 127 206 125 206 c 0,5,6
 122 206 122 206 122 242 c 2,7,-1
 122 279 l 1,8,9
 217 326 217 326 409 418 c 1,10,-1
 333 454 l 2,11,12
 311 465 311 465 259 490 c 128,-1,13
 207 515 207 515 190 523 c 2,14,-1
 122 555 l 1,15,-1
 122 592 l 2,16,17
 122 629 122 629 125 629 c 0,18,19
 127 629 127 629 293 547 c 2,0,-1
EndSplineSet
EndChar

StartChar: less
Encoding: 60 60 91
Width: 535
Flags: W
LayerCount: 2
Fore
SplineSet
259 547 m 2,0,-1
 94 464 l 1,1,-1
 94 371 l 1,2,-1
 259 288 l 2,3,4
 425 206 425 206 427 206 c 0,5,6
 430 206 430 206 430 242 c 2,7,-1
 430 279 l 1,8,9
 335 326 335 326 143 418 c 1,10,-1
 219 454 l 2,11,12
 241 465 241 465 293 490 c 128,-1,13
 345 515 345 515 362 523 c 2,14,-1
 430 555 l 1,15,-1
 430 592 l 2,16,17
 430 629 430 629 427 629 c 0,18,19
 425 629 425 629 259 547 c 2,0,-1
EndSplineSet
EndChar

StartChar: underscore
Encoding: 95 95 92
Width: 527
Flags: W
LayerCount: 2
Fore
SplineSet
59 -77 m 1,0,-1
 59 -7 l 1,1,-1
 476 -7 l 1,2,-1
 476 -77 l 1,3,-1
 59 -77 l 1,0,-1
EndSplineSet
EndChar

StartChar: at
Encoding: 64 64 93
Width: 699
Flags: W
LayerCount: 2
Fore
SplineSet
545 461 m 0,0,1
 532 495 532 495 528 495 c 0,2,3
 519 495 519 495 368 344 c 2,4,-1
 213 189 l 1,5,-1
 231 175 l 2,6,7
 284 132 284 132 348 132 c 0,8,9
 410 132 410 132 463.5 171.5 c 128,-1,10
 517 211 517 211 543 281 c 0,11,12
 556 320 556 320 556 377 c 0,13,14
 556 430 556 430 545 461 c 0,0,1
430 599 m 0,15,16
 396 617 396 617 350 617 c 0,17,18
 292 617 292 617 246 588 c 0,19,20
 213 567 213 567 185 523.5 c 128,-1,21
 157 480 157 480 147 435 c 0,22,23
 141 408 141 408 141 378 c 0,24,25
 141 309 141 309 165 264 c 2,26,-1
 173 248 l 1,27,28
 381 458 381 458 486 562 c 1,29,-1
 472 574 l 2,30,31
 466 578 466 578 430 599 c 0,15,16
280 680 m 0,32,33
 304 687 304 687 342 687 c 0,34,35
 401 687 401 687 443 671 c 0,36,37
 475 658 475 658 506 635 c 2,38,-1
 537 612 l 1,39,-1
 564 639 l 2,40,41
 592 665 592 665 597 665 c 128,-1,42
 602 665 602 665 624 643 c 2,43,-1
 645 621 l 1,44,-1
 619 596 l 2,45,46
 586 563 586 563 586 550 c 0,47,48
 586 544 586 544 596 522 c 0,49,50
 627 460 627 460 627 376 c 0,51,52
 627 282 627 282 589 211 c 0,53,54
 569 175 569 175 530 137.5 c 128,-1,55
 491 100 491 100 456 84 c 0,56,57
 427 70 427 70 412 67.5 c 128,-1,58
 397 65 397 65 350 65 c 0,59,60
 305 65 305 65 288.5 67.5 c 128,-1,61
 272 70 272 70 251 80 c 0,62,63
 218 96 218 96 191 117 c 2,64,-1
 164 138 l 1,65,66
 133 110 133 110 103 80 c 1,67,-1
 54 129 l 1,68,-1
 119 194 l 1,69,-1
 104 226 l 2,70,71
 71 296 71 296 71 373 c 0,72,73
 71 511 71 511 161 604 c 0,74,75
 216 662 216 662 280 680 c 0,32,33
EndSplineSet
EndChar

StartChar: ampersand
Encoding: 38 38 94
Width: 650
Flags: W
LayerCount: 2
Fore
SplineSet
595 62 m 4,0,1
 540.5 62 l 4,2,3
 532.25 62 532.25 62 524 62 c 6,4,-1
 507 62 l 5,5,-1
 507 155 l 5,6,-1
 594 155 l 5,7,-1
 595 62 l 6,8,9
 595 62 l 4,0,1
226 546 m 2,10,11
 398 718 398 718 403 718 c 0,12,13
 410 718 410 718 432 694 c 2,14,-1
 455 671 l 1,15,-1
 159 375 l 1,16,17
 357 179 357 179 455 80 c 1,18,19
 437 63 437 63 403 27 c 1,20,-1
 55 375 l 1,21,-1
 226 546 l 2,10,11
EndSplineSet
EndChar

StartChar: dollar
Encoding: 36 36 95
Width: 651
Flags: W
LayerCount: 2
Fore
SplineSet
602 62 m 4,0,1
 547.5 62 l 4,2,3
 539.25 62 539.25 62 531 62 c 6,4,-1
 514 62 l 5,5,-1
 514 155 l 5,6,-1
 601 155 l 5,7,-1
 602 62 l 6,8,9
 602 62 l 4,0,1
51 68 m 1,10,-1
 51 694 l 1,11,-1
 121 694 l 1,12,-1
 121 138 l 1,13,-1
 399 138 l 1,14,-1
 399 694 l 1,15,-1
 469 694 l 1,16,-1
 469 68 l 1,17,-1
 51 68 l 1,10,-1
223 436 m 0,18,19
 240 451 240 451 259 451 c 0,20,21
 280 451 280 451 296 436 c 128,-1,22
 312 421 312 421 312 399 c 0,23,24
 312 378 312 378 296.5 362 c 128,-1,25
 281 346 281 346 260 346 c 0,26,27
 238 346 238 346 223 362 c 128,-1,28
 208 378 208 378 208 399 c 128,-1,29
 208 420 208 420 223 436 c 0,18,19
EndSplineSet
EndChar

StartChar: percent
Encoding: 37 37 96
Width: 550
Flags: W
LayerCount: 2
Fore
SplineSet
506 62 m 0,0,1
 451.5 62 l 0,2,3
 443.25 62 443.25 62 435 62 c 2,4,-1
 418 62 l 1,5,-1
 418 155 l 1,6,-1
 505 155 l 1,7,-1
 506 62 l 2,8,9
 506 62 l 0,0,1
292 651 m 2,10,-1
 298 689 l 1,11,-1
 366 689 l 1,12,-1
 366 666 l 2,13,14
 366 611 366 611 333 545 c 0,15,16
 319 517 319 517 289.5 484 c 128,-1,17
 260 451 260 451 234 433 c 0,18,19
 211 415 211 415 211 412 c 0,20,21
 211 410 211 410 274 395.5 c 128,-1,22
 337 381 337 381 353 378 c 0,23,24
 366 375 366 375 366 353 c 0,25,26
 366 298 366 298 333 230 c 0,27,28
 318 199 318 199 273.5 155 c 128,-1,29
 229 111 229 111 197 95 c 0,30,31
 131 62 131 62 78 62 c 2,32,-1
 53 62 l 1,33,-1
 53 130 l 1,34,-1
 86 134 l 2,35,36
 151 141 151 141 211 193 c 128,-1,37
 271 245 271 245 286 306 c 2,38,-1
 290 320 l 1,39,40
 251 328 251 328 172.5 345.5 c 128,-1,41
 94 363 94 363 55 372 c 1,42,-1
 54 408 l 1,43,-1
 52 443 l 1,44,-1
 86 447 l 2,45,46
 162 455 162 455 224 517 c 0,47,48
 279 572 279 572 292 651 c 2,10,-1
EndSplineSet
EndChar

StartChar: numbersign
Encoding: 35 35 97
Width: 564
Flags: W
LayerCount: 2
Fore
SplineSet
513 731 m 0,0,1
 513 729 513 729 423 392.5 c 128,-1,2
 333 56 333 56 333 54 c 0,3,4
 333 51 333 51 295 51 c 0,5,6
 259 51 259 51 259 57 c 0,7,8
 259 59 259 59 260 61 c 0,9,10
 261 65 261 65 349 393.5 c 128,-1,11
 437 722 437 722 440 728 c 0,12,13
 442 735 442 735 488 735 c 0,14,15
 513 735 513 735 513 731 c 0,0,1
310 731 m 0,16,17
 310 729 310 729 220 392.5 c 128,-1,18
 130 56 130 56 130 54 c 0,19,20
 130 51 130 51 92 51 c 0,21,22
 56 51 56 51 56 57 c 0,23,24
 56 59 56 59 57 61 c 0,25,26
 58 65 58 65 146 393.5 c 128,-1,27
 234 722 234 722 237 728 c 0,28,29
 239 735 239 735 285 735 c 0,30,31
 310 735 310 735 310 731 c 0,16,17
504 511 m 1,32,-1
 504 509 l 1,33,-1
 504 509 l 1,34,35
 504 479 504 479 504 449 c 0,36,-1
 504 449 l 1,37,-1
 504 449 l 2,38,-1
 504 449 l 0,39,-1
 55 449 l 1,40,-1
 55 512 l 1,41,-1
 504 511 l 1,32,-1
504 299 m 1,42,-1
 504 297 l 1,43,-1
 504 297 l 1,44,45
 504 267 504 267 504 237 c 0,46,-1
 504 237 l 1,47,-1
 504 237 l 2,48,-1
 504 237 l 0,49,-1
 55 237 l 1,50,-1
 55 300 l 1,51,-1
 504 299 l 1,42,-1
EndSplineSet
EndChar

StartChar: bar
Encoding: 124 124 98
Width: 179
Flags: W
LayerCount: 2
Fore
SplineSet
53 -31 m 2,0,-1
 51 832 l 1,1,-1
 121 832 l 1,2,-1
 123 -31 l 2,3,4
 123 -31 l 2,5,-1
 123 -31 l 1,6,-1
 53 -31 l 1,7,-1
 53 -31 l 2,8,9
 53 -31 l 2,0,-1
EndSplineSet
EndChar

StartChar: asciitilde
Encoding: 126 126 99
Width: 564
Flags: W
LayerCount: 2
Fore
SplineSet
504 403 m 1,0,-1
 504 401 l 1,1,-1
 504 401 l 1,2,3
 504 371 504 371 504 341 c 4,4,5
 504 341 l 5,6,-1
 504 341 l 6,7,-1
 504 341 l 4,8,9
 55 341 l 1,10,-1
 55 404 l 1,11,-1
 504 403 l 1,0,-1
EndSplineSet
EndChar

StartChar: Abreve
Encoding: 258 258 100
Width: 510
Flags: W
LayerCount: 2
Fore
SplineSet
115 882 m 0,0,1
 115 893 115 893 119.5 895 c 128,-1,2
 124 897 124 897 149 897 c 0,3,4
 175 897 175 897 180 895 c 128,-1,5
 185 893 185 893 187 880 c 0,6,7
 192 860 192 860 212.5 844 c 128,-1,8
 233 828 233 828 254 828 c 128,-1,9
 275 828 275 828 295 844 c 128,-1,10
 315 860 315 860 320 880 c 0,11,12
 322 893 322 893 327.5 895 c 128,-1,13
 333 897 333 897 359 897 c 2,14,-1
 395 897 l 1,15,-1
 391 874 l 2,16,17
 387 846 387 846 368.5 819.5 c 128,-1,18
 350 793 350 793 323 777 c 0,19,20
 291 758 291 758 255 758 c 0,21,22
 205 758 205 758 161 792 c 0,23,24
 145 804 145 804 130 833.5 c 128,-1,25
 115 863 115 863 115 882 c 0,0,1
108 690 m 2,26,-1
 110 690 l 2,27,28
 112 689 112 689 181.5 570 c 128,-1,29
 251 451 251 451 254 451 c 128,-1,30
 257 451 257 451 315 551 c 0,31,32
 373 655 373 655 385 672 c 2,33,-1
 399 694 l 1,34,-1
 425 679 l 2,35,36
 451 664 451 664 454 660 c 0,37,38
 454 655 454 655 417 588.5 c 128,-1,39
 380 522 380 522 342.5 456.5 c 128,-1,40
 305 391 305 391 305 390 c 0,41,42
 301 382 301 382 301 377 c 0,43,44
 301 362 301 362 376 233 c 2,45,-1
 457 91 l 2,46,47
 457 86 457 86 430.5 73 c 128,-1,48
 404 60 404 60 395 60 c 0,49,50
 393 60 393 60 393 61 c 0,51,52
 256 300 256 300 254 300 c 128,-1,53
 252 300 252 300 183 181 c 128,-1,54
 114 62 114 62 114 61 c 0,55,56
 112 59 112 59 110 59 c 0,57,58
 99 59 99 59 76.5 74 c 128,-1,59
 54 89 54 89 54 96 c 2,60,-1
 54 97 l 1,61,62
 59 109 59 109 135 240 c 2,63,-1
 214 375 l 1,64,-1
 132 515 l 2,65,66
 56 646 56 646 56 660 c 0,67,68
 56 663 56 663 78.5 676.5 c 128,-1,69
 101 690 101 690 108 690 c 2,26,-1
EndSplineSet
Ligature2: "'rlig' Required Ligatures in Latin lookup 0-1" A X
Ligature2: "'rlig' Required Ligatures in Latin lookup 0-1" A x
EndChar

StartChar: abreve
Encoding: 259 259 101
Width: 510
Flags: W
LayerCount: 2
Fore
SplineSet
115 882 m 0,0,1
 115 893 115 893 119.5 895 c 128,-1,2
 124 897 124 897 149 897 c 0,3,4
 175 897 175 897 180 895 c 128,-1,5
 185 893 185 893 187 880 c 0,6,7
 192 860 192 860 212.5 844 c 128,-1,8
 233 828 233 828 254 828 c 128,-1,9
 275 828 275 828 295 844 c 128,-1,10
 315 860 315 860 320 880 c 0,11,12
 322 893 322 893 327.5 895 c 128,-1,13
 333 897 333 897 359 897 c 2,14,-1
 395 897 l 1,15,-1
 391 874 l 2,16,17
 387 846 387 846 368.5 819.5 c 128,-1,18
 350 793 350 793 323 777 c 0,19,20
 291 758 291 758 255 758 c 0,21,22
 205 758 205 758 161 792 c 0,23,24
 145 804 145 804 130 833.5 c 128,-1,25
 115 863 115 863 115 882 c 0,0,1
108 690 m 2,26,-1
 110 690 l 2,27,28
 112 689 112 689 181.5 570 c 128,-1,29
 251 451 251 451 254 451 c 128,-1,30
 257 451 257 451 315 551 c 0,31,32
 373 655 373 655 385 672 c 2,33,-1
 399 694 l 1,34,-1
 425 679 l 2,35,36
 451 664 451 664 454 660 c 0,37,38
 454 655 454 655 417 588.5 c 128,-1,39
 380 522 380 522 342.5 456.5 c 128,-1,40
 305 391 305 391 305 390 c 0,41,42
 301 382 301 382 301 377 c 0,43,44
 301 362 301 362 376 233 c 2,45,-1
 457 91 l 2,46,47
 457 86 457 86 430.5 73 c 128,-1,48
 404 60 404 60 395 60 c 0,49,50
 393 60 393 60 393 61 c 0,51,52
 256 300 256 300 254 300 c 128,-1,53
 252 300 252 300 183 181 c 128,-1,54
 114 62 114 62 114 61 c 0,55,56
 112 59 112 59 110 59 c 0,57,58
 99 59 99 59 76.5 74 c 128,-1,59
 54 89 54 89 54 96 c 2,60,-1
 54 97 l 1,61,62
 59 109 59 109 135 240 c 2,63,-1
 214 375 l 1,64,-1
 132 515 l 2,65,66
 56 646 56 646 56 660 c 0,67,68
 56 663 56 663 78.5 676.5 c 128,-1,69
 101 690 101 690 108 690 c 2,26,-1
EndSplineSet
Ligature2: "'rlig' Required Ligatures in Latin lookup 0-1" a x
EndChar

StartChar: uni0299
Encoding: 665 665 102
Width: 418
Flags: W
LayerCount: 2
Fore
SplineSet
292 651 m 2,0,-1
 298 689 l 1,1,-1
 366 689 l 1,2,-1
 366 666 l 2,3,4
 366 611 366 611 333 545 c 0,5,6
 319 517 319 517 289.5 484 c 128,-1,7
 260 451 260 451 234 433 c 0,8,9
 211 415 211 415 211 412 c 0,10,11
 211 410 211 410 274 395.5 c 128,-1,12
 337 381 337 381 353 378 c 0,13,14
 366 375 366 375 366 353 c 0,15,16
 366 298 366 298 333 230 c 0,17,18
 318 199 318 199 273.5 155 c 128,-1,19
 229 111 229 111 197 95 c 0,20,21
 131 62 131 62 78 62 c 2,22,-1
 53 62 l 1,23,-1
 53 130 l 1,24,-1
 86 134 l 2,25,26
 151 141 151 141 211 193 c 128,-1,27
 271 245 271 245 286 306 c 2,28,-1
 290 320 l 1,29,30
 251 328 251 328 172.5 345.5 c 128,-1,31
 94 363 94 363 55 372 c 1,32,-1
 54 408 l 1,33,-1
 52 443 l 1,34,-1
 86 447 l 2,35,36
 162 455 162 455 224 517 c 0,37,38
 279 572 279 572 292 651 c 2,0,-1
EndSplineSet
EndChar

StartChar: Ccircumflex
Encoding: 264 264 103
Width: 692
Flags: W
LayerCount: 2
Fore
SplineSet
51 62 m 1,0,-1
 51 689 l 1,1,-1
 121 689 l 1,2,-1
 121 132 l 1,3,-1
 399 132 l 1,4,-1
 399 689 l 1,5,-1
 469 689 l 1,6,-1
 469 410 l 1,7,-1
 573 410 l 1,8,-1
 573 689 l 1,9,-1
 642 689 l 1,10,-1
 642 62 l 1,11,-1
 573 62 l 1,12,-1
 573 341 l 1,13,-1
 469 341 l 1,14,-1
 469 62 l 1,15,-1
 51 62 l 1,0,-1
EndSplineSet
Ligature2: "'rlig' Required Ligatures in Latin lookup 0-1" T j
Ligature2: "'rlig' Required Ligatures in Latin lookup 0-1" T J
Ligature2: "'rlig' Required Ligatures in Latin lookup 0-1" C H
Ligature2: "'rlig' Required Ligatures in Latin lookup 0-1" C h
Ligature2: "'rlig' Required Ligatures in Latin lookup 0-1" C X
Ligature2: "'rlig' Required Ligatures in Latin lookup 0-1" C x
EndChar

StartChar: ccircumflex
Encoding: 265 265 104
Width: 692
Flags: W
LayerCount: 2
Fore
SplineSet
51 62 m 1,0,-1
 51 689 l 1,1,-1
 121 689 l 1,2,-1
 121 132 l 1,3,-1
 399 132 l 1,4,-1
 399 689 l 1,5,-1
 469 689 l 1,6,-1
 469 410 l 1,7,-1
 573 410 l 1,8,-1
 573 689 l 1,9,-1
 642 689 l 1,10,-1
 642 62 l 1,11,-1
 573 62 l 1,12,-1
 573 341 l 1,13,-1
 469 341 l 1,14,-1
 469 62 l 1,15,-1
 51 62 l 1,0,-1
EndSplineSet
Ligature2: "'rlig' Required Ligatures in Latin lookup 0-1" t j
Ligature2: "'rlig' Required Ligatures in Latin lookup 0-1" c x
Ligature2: "'rlig' Required Ligatures in Latin lookup 0-1" c h
EndChar

StartChar: uni02A6
Encoding: 678 678 105
Width: 519
Flags: W
LayerCount: 2
Fore
SplineSet
51 62 m 1,0,-1
 51 689 l 1,1,-1
 121 689 l 1,2,-1
 121 132 l 1,3,-1
 399 132 l 1,4,-1
 399 689 l 1,5,-1
 469 689 l 1,6,-1
 469 62 l 1,7,-1
 51 62 l 1,0,-1
51 -77 m 1,8,-1
 51 -7 l 1,9,-1
 469 -7 l 1,10,-1
 469 -50 l 2,11,12
 469 -130 469 -130 498 -162 c 2,13,-1
 511 -176 l 1,14,-1
 487 -200 l 2,15,16
 467 -220 467 -220 459 -220 c 0,17,18
 456 -220 456 -220 452 -218 c 0,19,20
 440 -210 440 -210 422 -171 c 128,-1,21
 404 -132 404 -132 401 -107 c 2,22,-1
 397 -77 l 1,23,-1
 51 -77 l 1,8,-1
EndSplineSet
EndChar

StartChar: uni02A3
Encoding: 675 675 106
Width: 518
Flags: W
LayerCount: 2
Fore
SplineSet
51 68 m 1,0,-1
 51 694 l 1,1,-1
 121 694 l 1,2,-1
 121 138 l 1,3,-1
 400 138 l 1,4,-1
 396 416 l 1,5,-1
 391 694 l 1,6,-1
 463 694 l 1,7,-1
 463 565 l 2,8,9
 463 454 463 454 467 252 c 2,10,-1
 470 68 l 1,11,-1
 51 68 l 1,0,-1
233 444 m 0,12,13
 246 451 246 451 259 451 c 0,14,15
 278 451 278 451 295 434 c 0,16,17
 311 418 311 418 311 399 c 0,18,19
 311 381 311 381 297 364 c 0,20,21
 282 346 282 346 260 346 c 128,-1,22
 238 346 238 346 223 364 c 128,-1,23
 208 382 208 382 208 403 c 0,24,25
 208 433 208 433 233 444 c 0,12,13
51 -71 m 1,26,-1
 51 -2 l 1,27,-1
 469 -2 l 1,28,-1
 469 -44 l 2,29,30
 469 -120 469 -120 497 -156 c 2,31,-1
 510 -172 l 1,32,-1
 486 -195 l 2,33,34
 467 -215 467 -215 459 -215 c 0,35,36
 456 -215 456 -215 452 -213 c 0,37,38
 440 -205 440 -205 422 -165.5 c 128,-1,39
 404 -126 404 -126 401 -101 c 2,40,-1
 397 -71 l 1,41,-1
 51 -71 l 1,26,-1
EndSplineSet
EndChar

StartChar: Ebreve
Encoding: 276 276 107
Width: 651
Flags: W
LayerCount: 2
Fore
SplineSet
185 874 m 2,0,-1
 182 897 l 1,1,-1
 217 897 l 2,2,3
 243 897 243 897 248.5 895 c 128,-1,4
 254 893 254 893 256 880 c 0,5,6
 261 860 261 860 281.5 844 c 128,-1,7
 302 828 302 828 323 828 c 128,-1,8
 344 828 344 828 364 844 c 128,-1,9
 384 860 384 860 389 880 c 0,10,11
 391 893 391 893 396.5 895 c 128,-1,12
 402 897 402 897 428 897 c 2,13,-1
 463 897 l 1,14,-1
 460 874 l 2,15,16
 456 847 456 847 438 820 c 128,-1,17
 420 793 420 793 396 778 c 0,18,19
 377 766 377 766 365 763.5 c 128,-1,20
 353 761 353 761 323 761 c 128,-1,21
 293 761 293 761 280.5 763.5 c 128,-1,22
 268 766 268 766 249 778 c 0,23,24
 225 793 225 793 207 820 c 128,-1,25
 189 847 189 847 185 874 c 2,0,-1
55 654 m 0,26,27
 53 658 53 658 74.5 673.5 c 128,-1,28
 96 689 96 689 105 689 c 0,29,30
 107 689 107 689 109 687 c 2,31,-1
 143 628 l 2,32,33
 177 569 177 569 211.5 511 c 128,-1,34
 246 453 246 453 249 453 c 0,35,36
 251 453 251 453 297 529 c 0,37,38
 334 594 334 594 359 623 c 128,-1,39
 384 652 384 652 419 669 c 0,40,41
 442 680 442 680 459 682.5 c 128,-1,42
 476 685 476 685 527 687 c 2,43,-1
 601 690 l 1,44,-1
 601 62 l 1,45,-1
 531 62 l 1,46,-1
 531 619 l 1,47,-1
 512 619 l 2,48,49
 450 619 450 619 414 580 c 0,50,51
 392 553 392 553 343 468 c 0,52,53
 297 390 297 390 297 373 c 0,54,55
 297 371 297 371 298 370 c 0,56,57
 317 339 317 339 386.5 217 c 128,-1,58
 456 95 456 95 456 93 c 0,59,60
 456 89 456 89 427 73 c 0,61,62
 406 61 406 61 400 61 c 0,63,64
 396 61 396 61 394 64 c 2,65,-1
 360 122 l 2,66,67
 326 181 326 181 291 239 c 128,-1,68
 256 297 256 297 253 297 c 0,69,70
 248 297 248 297 180 175 c 0,71,72
 111 57 111 57 109 57 c 0,73,74
 103 57 103 57 78 74.5 c 128,-1,75
 53 92 53 92 54 95 c 0,76,77
 56 101 56 101 134 237 c 2,78,-1
 213 375 l 1,79,-1
 135 511 l 2,80,81
 58 646 58 646 55 654 c 0,26,27
EndSplineSet
Ligature2: "'rlig' Required Ligatures in Latin lookup 0-1" E X
Ligature2: "'rlig' Required Ligatures in Latin lookup 0-1" E x
EndChar

StartChar: ebreve
Encoding: 277 277 108
Width: 651
Flags: W
LayerCount: 2
Fore
SplineSet
185 874 m 2,0,-1
 182 897 l 1,1,-1
 217 897 l 2,2,3
 243 897 243 897 248.5 895 c 128,-1,4
 254 893 254 893 256 880 c 0,5,6
 261 860 261 860 281.5 844 c 128,-1,7
 302 828 302 828 323 828 c 128,-1,8
 344 828 344 828 364 844 c 128,-1,9
 384 860 384 860 389 880 c 0,10,11
 391 893 391 893 396.5 895 c 128,-1,12
 402 897 402 897 428 897 c 2,13,-1
 463 897 l 1,14,-1
 460 874 l 2,15,16
 456 847 456 847 438 820 c 128,-1,17
 420 793 420 793 396 778 c 0,18,19
 377 766 377 766 365 763.5 c 128,-1,20
 353 761 353 761 323 761 c 128,-1,21
 293 761 293 761 280.5 763.5 c 128,-1,22
 268 766 268 766 249 778 c 0,23,24
 225 793 225 793 207 820 c 128,-1,25
 189 847 189 847 185 874 c 2,0,-1
55 654 m 0,26,27
 53 658 53 658 74.5 673.5 c 128,-1,28
 96 689 96 689 105 689 c 0,29,30
 107 689 107 689 109 687 c 2,31,-1
 143 628 l 2,32,33
 177 569 177 569 211.5 511 c 128,-1,34
 246 453 246 453 249 453 c 0,35,36
 251 453 251 453 297 529 c 0,37,38
 334 594 334 594 359 623 c 128,-1,39
 384 652 384 652 419 669 c 0,40,41
 442 680 442 680 459 682.5 c 128,-1,42
 476 685 476 685 527 687 c 2,43,-1
 601 690 l 1,44,-1
 601 62 l 1,45,-1
 531 62 l 1,46,-1
 531 619 l 1,47,-1
 512 619 l 2,48,49
 450 619 450 619 414 580 c 0,50,51
 392 553 392 553 343 468 c 0,52,53
 297 390 297 390 297 373 c 0,54,55
 297 371 297 371 298 370 c 0,56,57
 317 339 317 339 386.5 217 c 128,-1,58
 456 95 456 95 456 93 c 0,59,60
 456 89 456 89 427 73 c 0,61,62
 406 61 406 61 400 61 c 0,63,64
 396 61 396 61 394 64 c 2,65,-1
 360 122 l 2,66,67
 326 181 326 181 291 239 c 128,-1,68
 256 297 256 297 253 297 c 0,69,70
 248 297 248 297 180 175 c 0,71,72
 111 57 111 57 109 57 c 0,73,74
 103 57 103 57 78 74.5 c 128,-1,75
 53 92 53 92 54 95 c 0,76,77
 56 101 56 101 134 237 c 2,78,-1
 213 375 l 1,79,-1
 135 511 l 2,80,81
 58 646 58 646 55 654 c 0,26,27
EndSplineSet
Ligature2: "'rlig' Required Ligatures in Latin lookup 0-1" e x
EndChar

StartChar: Eth
Encoding: 208 208 109
Width: 519
Flags: W
LayerCount: 2
Fore
SplineSet
51 62 m 1,0,-1
 51 689 l 1,1,-1
 121 689 l 1,2,-1
 121 132 l 1,3,-1
 399 132 l 1,4,-1
 399 689 l 1,5,-1
 469 689 l 1,6,-1
 469 62 l 1,7,-1
 51 62 l 1,0,-1
230 437 m 0,8,9
 241 445 241 445 255 445 c 0,10,11
 276 445 276 445 294 429.5 c 128,-1,12
 312 414 312 414 312 393 c 0,13,14
 312 370 312 370 296.5 355.5 c 128,-1,15
 281 341 281 341 261 341 c 0,16,17
 237 341 237 341 223 359 c 0,18,19
 209 378 209 378 209 396 c 0,20,21
 209 420 209 420 230 437 c 0,8,9
51 -77 m 1,22,-1
 51 -7 l 1,23,-1
 469 -7 l 1,24,-1
 469 -77 l 1,25,-1
 51 -77 l 1,22,-1
EndSplineSet
Ligature2: "'rlig' Required Ligatures in Latin lookup 0-1" D x
Ligature2: "'rlig' Required Ligatures in Latin lookup 0-1" D X
Ligature2: "'rlig' Required Ligatures in Latin lookup 0-1" D h
Ligature2: "'rlig' Required Ligatures in Latin lookup 0-1" D H
EndChar

StartChar: eth
Encoding: 240 240 110
Width: 519
Flags: W
LayerCount: 2
Fore
SplineSet
51 62 m 1,0,-1
 51 689 l 1,1,-1
 121 689 l 1,2,-1
 121 132 l 1,3,-1
 399 132 l 1,4,-1
 399 689 l 1,5,-1
 469 689 l 1,6,-1
 469 62 l 1,7,-1
 51 62 l 1,0,-1
230 437 m 0,8,9
 241 445 241 445 255 445 c 0,10,11
 276 445 276 445 294 429.5 c 128,-1,12
 312 414 312 414 312 393 c 0,13,14
 312 370 312 370 296.5 355.5 c 128,-1,15
 281 341 281 341 261 341 c 0,16,17
 237 341 237 341 223 359 c 0,18,19
 209 378 209 378 209 396 c 0,20,21
 209 420 209 420 230 437 c 0,8,9
51 -77 m 1,22,-1
 51 -7 l 1,23,-1
 469 -7 l 1,24,-1
 469 -77 l 1,25,-1
 51 -77 l 1,22,-1
EndSplineSet
Ligature2: "'rlig' Required Ligatures in Latin lookup 0-1" d h
Ligature2: "'rlig' Required Ligatures in Latin lookup 0-1" d x
EndChar

StartChar: Gdotaccent
Encoding: 288 288 111
Width: 520
Flags: W
LayerCount: 2
Fore
SplineSet
226 546 m 2,0,1
 398 718 398 718 403 718 c 0,2,3
 410 718 410 718 432 694 c 2,4,-1
 455 671 l 1,5,-1
 159 375 l 1,6,-1
 300 235 l 2,7,8
 427 107 427 107 449 72.5 c 128,-1,9
 471 38 471 38 475 -42 c 0,10,11
 479 -99 479 -99 485 -122.5 c 128,-1,12
 491 -146 491 -146 506 -163 c 2,13,-1
 518 -176 l 1,14,15
 484 -210 484 -210 467 -228 c 1,16,-1
 453 -212 l 2,17,18
 411 -163 411 -163 406 -62 c 0,19,20
 402 9 402 9 395 25 c 0,21,22
 389 40 389 40 221 208 c 2,23,-1
 55 375 l 1,24,-1
 226 546 l 2,0,1
334 412 m 0,25,26
 350 427 350 427 370 427 c 0,27,28
 391 427 391 427 407 412 c 128,-1,29
 423 397 423 397 423 375 c 0,30,31
 423 354 423 354 407.5 338.5 c 128,-1,32
 392 323 392 323 371 323 c 0,33,34
 349 323 349 323 334 339 c 128,-1,35
 319 355 319 355 319 376 c 0,36,37
 319 396 319 396 334 412 c 0,25,26
EndSplineSet
LCarets2: 1 0
Ligature2: "'rlig' Required Ligatures in Latin lookup 0-1" G Hcircumflex
Ligature2: "'rlig' Required Ligatures in Latin lookup 0-1" G hcircumflex
EndChar

StartChar: gdotaccent
Encoding: 289 289 112
Width: 520
Flags: W
LayerCount: 2
Fore
SplineSet
226 546 m 2,0,1
 398 718 398 718 403 718 c 0,2,3
 410 718 410 718 432 694 c 2,4,-1
 455 671 l 1,5,-1
 159 375 l 1,6,-1
 300 235 l 2,7,8
 427 107 427 107 449 72.5 c 128,-1,9
 471 38 471 38 475 -42 c 0,10,11
 479 -99 479 -99 485 -122.5 c 128,-1,12
 491 -146 491 -146 506 -163 c 2,13,-1
 518 -176 l 1,14,15
 484 -210 484 -210 467 -228 c 1,16,-1
 453 -212 l 2,17,18
 411 -163 411 -163 406 -62 c 0,19,20
 402 9 402 9 395 25 c 0,21,22
 389 40 389 40 221 208 c 2,23,-1
 55 375 l 1,24,-1
 226 546 l 2,0,1
334 412 m 0,25,26
 350 427 350 427 370 427 c 0,27,28
 391 427 391 427 407 412 c 128,-1,29
 423 397 423 397 423 375 c 0,30,31
 423 354 423 354 407.5 338.5 c 128,-1,32
 392 323 392 323 371 323 c 0,33,34
 349 323 349 323 334 339 c 128,-1,35
 319 355 319 355 319 376 c 0,36,37
 319 396 319 396 334 412 c 0,25,26
EndSplineSet
LCarets2: 2 0 0
Ligature2: "'rlig' Required Ligatures in Latin lookup 0-1" g h x
Ligature2: "'rlig' Required Ligatures in Latin lookup 0-1" g hcircumflex
EndChar

StartChar: uni0263
Encoding: 611 611 113
Width: 576
Flags: W
LayerCount: 2
Fore
SplineSet
226 546 m 2,0,1
 398 718 398 718 403 718 c 0,2,3
 410 718 410 718 432 694 c 2,4,-1
 455 671 l 1,5,-1
 159 375 l 1,6,-1
 300 235 l 2,7,8
 427 107 427 107 449 72.5 c 128,-1,9
 471 38 471 38 475 -42 c 0,10,11
 479 -99 479 -99 485 -122.5 c 128,-1,12
 491 -146 491 -146 506 -163 c 2,13,-1
 518 -176 l 1,14,15
 484 -210 484 -210 467 -228 c 1,16,-1
 453 -212 l 2,17,18
 411 -163 411 -163 406 -62 c 0,19,20
 402 9 402 9 395 25 c 0,21,22
 389 40 389 40 221 208 c 2,23,-1
 55 375 l 1,24,-1
 226 546 l 2,0,1
334 412 m 0,25,26
 350 427 350 427 370 427 c 0,27,28
 391 427 391 427 407 412 c 128,-1,29
 423 397 423 397 423 375 c 0,30,31
 423 354 423 354 407.5 338.5 c 128,-1,32
 392 323 392 323 371 323 c 0,33,34
 349 323 349 323 334 339 c 128,-1,35
 319 355 319 355 319 376 c 0,36,37
 319 396 319 396 334 412 c 0,25,26
EndSplineSet
EndChar

StartChar: uni0266
Encoding: 614 614 114
Width: 775
Flags: W
LayerCount: 2
Fore
SplineSet
226 552 m 2,0,1
 397 723 397 723 403 723 c 0,2,3
 411 723 411 723 432 700 c 2,4,-1
 455 677 l 1,5,6
 259 481 259 481 161 382 c 1,7,-1
 257 281 l 2,8,9
 337 198 337 198 365.5 174 c 128,-1,10
 394 150 394 150 417 143 c 0,11,12
 438 137 438 137 520 137 c 0,13,14
 601 137 601 137 622 143 c 0,15,16
 642 148 642 148 660 164 c 2,17,-1
 678 179 l 1,18,-1
 701 157 l 2,19,20
 724 137 724 137 724 127 c 0,21,22
 724 121 724 121 714 112 c 0,23,24
 684 85 684 85 684 -19 c 0,25,26
 684 -125 684 -125 714 -156 c 2,27,-1
 727 -170 l 1,28,-1
 702 -196 l 2,29,30
 681 -217 681 -217 675 -217 c 0,31,32
 673 -217 673 -217 666 -212 c 0,33,34
 654 -202 654 -202 636 -164 c 0,35,36
 622 -136 622 -136 620 -120 c 128,-1,37
 618 -104 618 -104 616 -30 c 2,38,-1
 613 67 l 1,39,40
 577 68 577 68 505 69 c 128,-1,41
 433 70 433 70 397 71 c 1,42,-1
 362 90 l 2,43,44
 329 107 329 107 191 245 c 2,45,-1
 55 381 l 1,46,-1
 226 552 l 2,0,1
334 418 m 0,47,48
 350 433 350 433 370 433 c 0,49,50
 391 433 391 433 407 418 c 128,-1,51
 423 403 423 403 423 381 c 0,52,53
 423 360 423 360 407.5 344.5 c 128,-1,54
 392 329 392 329 371 329 c 0,55,56
 349 329 349 329 334 345 c 128,-1,57
 319 361 319 361 319 382 c 0,58,59
 319 402 319 402 334 418 c 0,47,48
EndSplineSet
EndChar

StartChar: uni028E
Encoding: 654 654 115
Width: 522
Flags: W
LayerCount: 2
Fore
SplineSet
56 664 m 2,0,-1
 53 694 l 1,1,-1
 123 694 l 1,2,-1
 130 661 l 2,3,4
 137 626 137 626 167 598 c 0,5,6
 209 555 209 555 260 555 c 0,7,8
 284 555 284 555 306 562 c 0,9,10
 340 571 340 571 371.5 610.5 c 128,-1,11
 403 650 403 650 403 684 c 0,12,13
 403 691 403 691 408.5 692.5 c 128,-1,14
 414 694 414 694 437 694 c 2,15,-1
 472 694 l 1,16,-1
 472 68 l 1,17,-1
 404 68 l 1,18,-1
 400 89 l 2,19,20
 390 140 390 140 352 174 c 0,21,22
 317 206 317 206 264 206 c 0,23,24
 210 206 210 206 175 174 c 0,25,26
 157 157 157 157 140.5 127.5 c 128,-1,27
 124 98 124 98 124 81 c 0,28,29
 124 72 124 72 119 70 c 128,-1,30
 114 68 114 68 89 68 c 2,31,-1
 53 68 l 1,32,-1
 56 98 l 2,33,34
 65 169 65 169 119 220 c 128,-1,35
 173 271 173 271 246 276 c 0,36,37
 249 276 249 276 255 276.5 c 128,-1,38
 261 277 261 277 264 277 c 0,39,40
 324 277 324 277 371 247 c 0,41,42
 397 230 397 230 400 230 c 128,-1,43
 403 230 403 230 403 385 c 2,44,-1
 403 539 l 1,45,-1
 385 524 l 2,46,47
 341 486 341 486 262 486 c 0,48,49
 223 486 223 486 190 498 c 0,50,51
 137 518 137 518 100 564.5 c 128,-1,52
 63 611 63 611 56 664 c 2,0,-1
EndSplineSet
EndChar

StartChar: Gcircumflex
Encoding: 284 284 116
Width: 694
Flags: W
LayerCount: 2
Fore
SplineSet
54 580 m 2,0,-1
 51 694 l 1,1,-1
 121 694 l 1,2,-1
 124 508 l 2,3,4
 128 302 128 302 128 229 c 2,5,-1
 128 138 l 1,6,-1
 401 138 l 1,7,-1
 401 694 l 1,8,-1
 470 694 l 1,9,-1
 470 416 l 1,10,-1
 575 416 l 1,11,-1
 575 694 l 1,12,-1
 644 694 l 1,13,-1
 644 68 l 1,14,-1
 575 68 l 1,15,-1
 575 346 l 1,16,-1
 470 346 l 1,17,-1
 470 68 l 1,18,-1
 59 68 l 1,19,-1
 59 267 l 2,20,21
 59 422 59 422 54 580 c 2,0,-1
235 444 m 0,22,23
 248 451 248 451 261 451 c 0,24,25
 280 451 280 451 297 434 c 0,26,27
 313 418 313 418 313 399 c 0,28,29
 313 381 313 381 299 364 c 0,30,31
 284 346 284 346 262 346 c 0,32,33
 239 346 239 346 224 364 c 0,34,35
 210 379 210 379 210 402 c 0,36,37
 210 432 210 432 235 444 c 0,22,23
EndSplineSet
LCarets2: 1 0
Ligature2: "'rlig' Required Ligatures in Latin lookup 0-1" G h
Ligature2: "'rlig' Required Ligatures in Latin lookup 0-1" G H
Ligature2: "'rlig' Required Ligatures in Latin lookup 0-1" G X
Ligature2: "'rlig' Required Ligatures in Latin lookup 0-1" G x
Ligature2: "'rlig' Required Ligatures in Latin lookup 0-1" D j
Ligature2: "'rlig' Required Ligatures in Latin lookup 0-1" D J
Ligature2: "'rlig' Required Ligatures in Latin lookup 0-1" D jcircumflex
Ligature2: "'rlig' Required Ligatures in Latin lookup 0-1" D Jcircumflex
EndChar

StartChar: gcircumflex
Encoding: 285 285 117
Width: 694
Flags: W
LayerCount: 2
Fore
SplineSet
54 580 m 2,0,-1
 51 694 l 1,1,-1
 121 694 l 1,2,-1
 124 508 l 2,3,4
 128 302 128 302 128 229 c 2,5,-1
 128 138 l 1,6,-1
 401 138 l 1,7,-1
 401 694 l 1,8,-1
 470 694 l 1,9,-1
 470 416 l 1,10,-1
 575 416 l 1,11,-1
 575 694 l 1,12,-1
 644 694 l 1,13,-1
 644 68 l 1,14,-1
 575 68 l 1,15,-1
 575 346 l 1,16,-1
 470 346 l 1,17,-1
 470 68 l 1,18,-1
 59 68 l 1,19,-1
 59 267 l 2,20,21
 59 422 59 422 54 580 c 2,0,-1
235 444 m 0,22,23
 248 451 248 451 261 451 c 0,24,25
 280 451 280 451 297 434 c 0,26,27
 313 418 313 418 313 399 c 0,28,29
 313 381 313 381 299 364 c 0,30,31
 284 346 284 346 262 346 c 0,32,33
 239 346 239 346 224 364 c 0,34,35
 210 379 210 379 210 402 c 0,36,37
 210 432 210 432 235 444 c 0,22,23
EndSplineSet
Ligature2: "'rlig' Required Ligatures in Latin lookup 0-1" g h
Ligature2: "'rlig' Required Ligatures in Latin lookup 0-1" g x
Ligature2: "'rlig' Required Ligatures in Latin lookup 0-1" d j
Ligature2: "'rlig' Required Ligatures in Latin lookup 0-1" d jcircumflex
EndChar

StartChar: uni02A4
Encoding: 676 676 118
Width: 694
Flags: W
LayerCount: 2
Fore
SplineSet
54 580 m 2,0,-1
 51 694 l 1,1,-1
 121 694 l 1,2,-1
 124 508 l 2,3,4
 128 302 128 302 128 229 c 2,5,-1
 128 138 l 1,6,-1
 401 138 l 1,7,-1
 401 694 l 1,8,-1
 470 694 l 1,9,-1
 470 416 l 1,10,-1
 575 416 l 1,11,-1
 575 694 l 1,12,-1
 644 694 l 1,13,-1
 644 68 l 1,14,-1
 575 68 l 1,15,-1
 575 346 l 1,16,-1
 470 346 l 1,17,-1
 470 68 l 1,18,-1
 59 68 l 1,19,-1
 59 267 l 2,20,21
 59 422 59 422 54 580 c 2,0,-1
235 444 m 0,22,23
 248 451 248 451 261 451 c 0,24,25
 280 451 280 451 297 434 c 0,26,27
 313 418 313 418 313 399 c 0,28,29
 313 381 313 381 299 364 c 0,30,31
 284 346 284 346 262 346 c 0,32,33
 239 346 239 346 224 364 c 0,34,35
 210 379 210 379 210 402 c 0,36,37
 210 432 210 432 235 444 c 0,22,23
EndSplineSet
EndChar

StartChar: uni0274
Encoding: 628 628 119
Width: 935
Flags: W
LayerCount: 2
Fore
SplineSet
192 683 m 0,0,1
 218 693 218 693 311 694 c 2,2,-1
 399 694 l 1,3,-1
 399 555 l 2,4,5
 399 456 399 456 400.5 436 c 128,-1,6
 402 416 402 416 409 416 c 0,7,8
 419 416 419 416 494 546 c 0,9,10
 550 644 550 644 575 686 c 0,11,12
 578 691 578 691 582 691 c 128,-1,13
 586 691 586 691 612 677 c 0,14,15
 639 661 639 661 639 654 c 0,16,17
 639 653 639 653 637 649 c 0,18,19
 636 648 636 648 625 628 c 128,-1,20
 614 608 614 608 594.5 574.5 c 128,-1,21
 575 541 575 541 556 510 c 2,22,-1
 481 381 l 1,23,-1
 539 280 l 2,24,25
 594 184 594 184 623.5 161.5 c 128,-1,26
 653 139 653 139 721 138 c 0,27,28
 780 138 780 138 816 164 c 2,29,-1
 836 178 l 1,30,-1
 861 154 l 2,31,32
 882 134 882 134 882 128 c 0,33,34
 882 125 882 125 877 120 c 0,35,36
 864 107 864 107 832 91 c 0,37,38
 807 78 807 78 791.5 74 c 128,-1,39
 776 70 776 70 735 69 c 0,40,41
 730 69 730 69 721.5 68.5 c 128,-1,42
 713 68 713 68 709 68 c 0,43,44
 635 68 635 68 583 103 c 0,45,46
 558 119 558 119 531.5 155.5 c 128,-1,47
 505 192 505 192 462 269 c 128,-1,48
 419 346 419 346 410 346 c 0,49,50
 402 346 402 346 400.5 318 c 128,-1,51
 399 290 399 290 399 207 c 2,52,-1
 399 68 l 1,53,-1
 329 68 l 1,54,-1
 329 625 l 1,55,-1
 287 625 l 2,56,57
 239 625 239 625 211 615 c 128,-1,58
 183 605 183 605 160 579 c 0,59,60
 133 548 133 548 128 527 c 0,61,62
 121 505 121 505 121 286 c 2,63,-1
 121 68 l 1,64,-1
 51 68 l 1,65,-1
 51 293 l 2,66,67
 51 483 51 483 56.5 525 c 128,-1,68
 62 567 62 567 91 608 c 0,69,70
 131 663 131 663 192 683 c 0,0,1
EndSplineSet
EndChar

StartChar: uni029F
Encoding: 671 671 120
Width: 530
Flags: W
LayerCount: 2
Fore
SplineSet
218 583 m 0,0,1
 228 591 228 591 331 651 c 128,-1,2
 434 711 434 711 448 711 c 1,3,-1
 450 710 l 2,4,5
 456 704 456 704 467 680 c 0,6,7
 475 665 475 665 475 659 c 0,8,9
 475 655 475 655 471 651 c 0,10,11
 463 643 463 643 350 579 c 0,12,13
 201 494 201 494 200 485 c 0,14,15
 200 483 200 483 224.5 468.5 c 128,-1,16
 249 454 249 454 255 453 c 0,17,18
 263 451 263 451 370.5 389 c 128,-1,19
 478 327 478 327 478 323 c 128,-1,20
 478 319 478 319 463 292 c 128,-1,21
 448 265 448 265 446 265 c 0,22,23
 445 265 445 265 368 309 c 0,24,25
 295 352 295 352 288 352 c 128,-1,26
 281 352 281 352 169 418 c 2,27,-1
 54 484 l 1,28,-1
 73 496 l 2,29,30
 76 498 76 498 100.5 512 c 128,-1,31
 125 526 125 526 147.5 539 c 128,-1,32
 170 552 170 552 192 565.5 c 128,-1,33
 214 579 214 579 218 583 c 0,0,1
56 275 m 0,34,35
 56 281 56 281 72.5 308 c 128,-1,36
 89 335 89 335 91 335 c 0,37,38
 94 335 94 335 213 267 c 128,-1,39
 332 199 332 199 339 197 c 0,40,41
 349 195 349 195 413.5 156.5 c 128,-1,42
 478 118 478 118 478 114 c 128,-1,43
 478 110 478 110 462.5 83 c 128,-1,44
 447 56 447 56 445 56 c 0,45,46
 442 56 442 56 407 77 c 0,47,48
 375 96 375 96 364 99 c 0,49,50
 56 265 56 265 56 275 c 0,34,35
EndSplineSet
EndChar

StartChar: ntilde
Encoding: 241 241 121
Width: 692
Flags: W
LayerCount: 2
Fore
SplineSet
192 678 m 0,0,1
 218 688 218 688 256 688 c 0,2,3
 309 688 309 688 348 670 c 0,4,5
 415 639 415 639 449 568 c 0,6,7
 466 535 466 535 468 473 c 2,8,-1
 470 410 l 1,9,-1
 573 410 l 1,10,-1
 573 689 l 1,11,-1
 642 689 l 1,12,-1
 642 62 l 1,13,-1
 573 62 l 1,14,-1
 573 341 l 1,15,-1
 469 341 l 1,16,-1
 469 62 l 1,17,-1
 399 62 l 1,18,-1
 399 280 l 2,19,20
 399 499 399 499 392 523 c 0,21,22
 383 548 383 548 355 576 c 0,23,24
 314 618 314 618 264 618 c 0,25,26
 244 618 244 618 227 614 c 0,27,28
 192 607 192 607 164 576 c 0,29,30
 137 549 137 549 128 523 c 0,31,32
 121 499 121 499 121 280 c 2,33,-1
 121 62 l 1,34,-1
 51 62 l 1,35,-1
 51 287 l 2,36,37
 51 477 51 477 56.5 519 c 128,-1,38
 62 561 62 561 91 602 c 0,39,40
 129 656 129 656 192 678 c 0,0,1
EndSplineSet
Ligature2: "'rlig' Required Ligatures in Latin lookup 0-1" n j
EndChar

StartChar: Ntilde
Encoding: 209 209 122
Width: 692
Flags: W
LayerCount: 2
Fore
SplineSet
192 678 m 0,0,1
 218 688 218 688 256 688 c 0,2,3
 309 688 309 688 348 670 c 0,4,5
 415 639 415 639 449 568 c 0,6,7
 466 535 466 535 468 473 c 2,8,-1
 470 410 l 1,9,-1
 573 410 l 1,10,-1
 573 689 l 1,11,-1
 642 689 l 1,12,-1
 642 62 l 1,13,-1
 573 62 l 1,14,-1
 573 341 l 1,15,-1
 469 341 l 1,16,-1
 469 62 l 1,17,-1
 399 62 l 1,18,-1
 399 280 l 2,19,20
 399 499 399 499 392 523 c 0,21,22
 383 548 383 548 355 576 c 0,23,24
 314 618 314 618 264 618 c 0,25,26
 244 618 244 618 227 614 c 0,27,28
 192 607 192 607 164 576 c 0,29,30
 137 549 137 549 128 523 c 0,31,32
 121 499 121 499 121 280 c 2,33,-1
 121 62 l 1,34,-1
 51 62 l 1,35,-1
 51 287 l 2,36,37
 51 477 51 477 56.5 519 c 128,-1,38
 62 561 62 561 91 602 c 0,39,40
 129 656 129 656 192 678 c 0,0,1
EndSplineSet
Ligature2: "'rlig' Required Ligatures in Latin lookup 0-1" N J
Ligature2: "'rlig' Required Ligatures in Latin lookup 0-1" N j
EndChar

StartChar: Eng
Encoding: 330 330 123
Width: 692
Flags: W
LayerCount: 2
Fore
SplineSet
202 683 m 0,0,1
 222 688 222 688 308 688 c 2,2,-1
 400 689 l 1,3,-1
 400 549 l 2,4,5
 400 410 400 410 408 410 c 0,6,7
 417 410 417 410 427 426 c 128,-1,8
 437 442 437 442 501 552 c 0,9,10
 577 682 577 682 579 684 c 0,11,12
 580 685 580 685 581 685 c 0,13,14
 586 685 586 685 601 678 c 128,-1,15
 616 671 616 671 628 662 c 128,-1,16
 640 653 640 653 639 650 c 0,17,18
 637 643 637 643 560 511 c 2,19,-1
 481 376 l 1,20,-1
 557 247 l 2,21,22
 576 216 576 216 595 182 c 128,-1,23
 614 148 614 148 626 128 c 128,-1,24
 638 108 638 108 638 107 c 0,25,26
 640 103 640 103 640 102 c 0,27,28
 640 96 640 96 613 80 c 0,29,30
 587 66 587 66 583 66 c 128,-1,31
 579 66 579 66 576 71 c 0,32,33
 540 131 540 131 495 210 c 0,34,35
 420 341 420 341 410 341 c 0,36,37
 403 341 403 341 401.5 320.5 c 128,-1,38
 400 300 400 300 400 201 c 2,39,-1
 400 62 l 1,40,-1
 330 62 l 1,41,-1
 330 619 l 1,42,-1
 279 619 l 2,43,44
 191 619 191 619 154 570 c 0,45,46
 141 552 141 552 136 543 c 128,-1,47
 131 534 131 534 126.5 499.5 c 128,-1,48
 122 465 122 465 121.5 425 c 128,-1,49
 121 385 121 385 121 284 c 2,50,-1
 121 62 l 1,51,-1
 51 62 l 1,52,-1
 53 299 l 1,53,-1
 54 535 l 1,54,-1
 71 568 l 2,55,56
 91 609 91 609 126 639.5 c 128,-1,57
 161 670 161 670 202 683 c 0,0,1
EndSplineSet
Ligature2: "'rlig' Required Ligatures in Latin lookup 0-1" N X
Ligature2: "'rlig' Required Ligatures in Latin lookup 0-1" N x
EndChar

StartChar: eng
Encoding: 331 331 124
Width: 692
Flags: W
LayerCount: 2
Fore
SplineSet
202 683 m 0,0,1
 222 688 222 688 308 688 c 2,2,-1
 400 689 l 1,3,-1
 400 549 l 2,4,5
 400 410 400 410 408 410 c 0,6,7
 417 410 417 410 427 426 c 128,-1,8
 437 442 437 442 501 552 c 0,9,10
 577 682 577 682 579 684 c 0,11,12
 580 685 580 685 581 685 c 0,13,14
 586 685 586 685 601 678 c 128,-1,15
 616 671 616 671 628 662 c 128,-1,16
 640 653 640 653 639 650 c 0,17,18
 637 643 637 643 560 511 c 2,19,-1
 481 376 l 1,20,-1
 557 247 l 2,21,22
 576 216 576 216 595 182 c 128,-1,23
 614 148 614 148 626 128 c 128,-1,24
 638 108 638 108 638 107 c 0,25,26
 640 103 640 103 640 102 c 0,27,28
 640 96 640 96 613 80 c 0,29,30
 587 66 587 66 583 66 c 128,-1,31
 579 66 579 66 576 71 c 0,32,33
 540 131 540 131 495 210 c 0,34,35
 420 341 420 341 410 341 c 0,36,37
 403 341 403 341 401.5 320.5 c 128,-1,38
 400 300 400 300 400 201 c 2,39,-1
 400 62 l 1,40,-1
 330 62 l 1,41,-1
 330 619 l 1,42,-1
 279 619 l 2,43,44
 191 619 191 619 154 570 c 0,45,46
 141 552 141 552 136 543 c 128,-1,47
 131 534 131 534 126.5 499.5 c 128,-1,48
 122 465 122 465 121.5 425 c 128,-1,49
 121 385 121 385 121 284 c 2,50,-1
 121 62 l 1,51,-1
 51 62 l 1,52,-1
 53 299 l 1,53,-1
 54 535 l 1,54,-1
 71 568 l 2,55,56
 91 609 91 609 126 639.5 c 128,-1,57
 161 670 161 670 202 683 c 0,0,1
EndSplineSet
Ligature2: "'rlig' Required Ligatures in Latin lookup 0-1" n x
EndChar

StartChar: Obreve
Encoding: 334 334 125
Width: 656
Flags: W
LayerCount: 2
Fore
SplineSet
192 879 m 2,0,-1
 188 903 l 1,1,-1
 223 903 l 2,2,3
 249 903 249 903 254.5 901 c 128,-1,4
 260 899 260 899 262 886 c 0,5,6
 267 866 267 866 287.5 850 c 128,-1,7
 308 834 308 834 329 834 c 0,8,9
 351 834 351 834 372 851 c 128,-1,10
 393 868 393 868 394 887 c 0,11,12
 395 898 395 898 400 900.5 c 128,-1,13
 405 903 405 903 430 903 c 2,14,-1
 464 903 l 1,15,-1
 461 881 l 2,16,17
 451 814 451 814 402 784 c 0,18,19
 382 773 382 773 370 770 c 128,-1,20
 358 767 358 767 329 767 c 0,21,22
 299 767 299 767 287 769.5 c 128,-1,23
 275 772 275 772 256 784 c 0,24,25
 232 799 232 799 214 825.5 c 128,-1,26
 196 852 196 852 192 879 c 2,0,-1
476 554 m 0,27,28
 420 623 420 623 330 623 c 0,29,30
 304 623 304 623 279 616 c 0,31,32
 220 599 220 599 182 554 c 0,33,34
 121 480 121 480 121 379 c 0,35,36
 121 269 121 269 194 197 c 0,37,38
 226 165 226 165 254.5 153 c 128,-1,39
 283 141 283 141 329 141 c 128,-1,40
 375 141 375 141 404 153 c 128,-1,41
 433 165 433 165 465 198 c 0,42,43
 521 256 521 256 533 341 c 0,44,45
 536 364 536 364 536 386 c 0,46,47
 536 480 536 480 476 554 c 0,27,28
259 685 m 0,48,49
 294 694 294 694 328 694 c 0,50,51
 443 694 443 694 521 607 c 0,52,53
 567 554 567 554 591 493 c 0,54,55
 604 460 604 460 604 384 c 2,56,-1
 604 359 l 2,57,58
 604 306 604 306 591 270 c 0,59,60
 571 211 571 211 528.5 163 c 128,-1,61
 486 115 486 115 433 89 c 0,62,63
 407 76 407 76 391.5 73.5 c 128,-1,64
 376 71 376 71 329 71 c 128,-1,65
 282 71 282 71 266.5 73.5 c 128,-1,66
 251 76 251 76 225 89 c 0,67,68
 172 115 172 115 129.5 163 c 128,-1,69
 87 211 87 211 67 270 c 0,70,71
 54 306 54 306 54 359 c 2,72,-1
 54 384 l 2,73,74
 54 460 54 460 67 493 c 0,75,76
 96 568 96 568 146.5 618 c 128,-1,77
 197 668 197 668 259 685 c 0,48,49
EndSplineSet
Ligature2: "'rlig' Required Ligatures in Latin lookup 0-1" O X
Ligature2: "'rlig' Required Ligatures in Latin lookup 0-1" O x
EndChar

StartChar: obreve
Encoding: 335 335 126
Width: 656
Flags: W
LayerCount: 2
Fore
SplineSet
192 879 m 2,0,-1
 188 903 l 1,1,-1
 223 903 l 2,2,3
 249 903 249 903 254.5 901 c 128,-1,4
 260 899 260 899 262 886 c 0,5,6
 267 866 267 866 287.5 850 c 128,-1,7
 308 834 308 834 329 834 c 0,8,9
 351 834 351 834 372 851 c 128,-1,10
 393 868 393 868 394 887 c 0,11,12
 395 898 395 898 400 900.5 c 128,-1,13
 405 903 405 903 430 903 c 2,14,-1
 464 903 l 1,15,-1
 461 881 l 2,16,17
 451 814 451 814 402 784 c 0,18,19
 382 773 382 773 370 770 c 128,-1,20
 358 767 358 767 329 767 c 0,21,22
 299 767 299 767 287 769.5 c 128,-1,23
 275 772 275 772 256 784 c 0,24,25
 232 799 232 799 214 825.5 c 128,-1,26
 196 852 196 852 192 879 c 2,0,-1
476 554 m 0,27,28
 420 623 420 623 330 623 c 0,29,30
 304 623 304 623 279 616 c 0,31,32
 220 599 220 599 182 554 c 0,33,34
 121 480 121 480 121 379 c 0,35,36
 121 269 121 269 194 197 c 0,37,38
 226 165 226 165 254.5 153 c 128,-1,39
 283 141 283 141 329 141 c 128,-1,40
 375 141 375 141 404 153 c 128,-1,41
 433 165 433 165 465 198 c 0,42,43
 521 256 521 256 533 341 c 0,44,45
 536 364 536 364 536 386 c 0,46,47
 536 480 536 480 476 554 c 0,27,28
259 685 m 0,48,49
 294 694 294 694 328 694 c 0,50,51
 443 694 443 694 521 607 c 0,52,53
 567 554 567 554 591 493 c 0,54,55
 604 460 604 460 604 384 c 2,56,-1
 604 359 l 2,57,58
 604 306 604 306 591 270 c 0,59,60
 571 211 571 211 528.5 163 c 128,-1,61
 486 115 486 115 433 89 c 0,62,63
 407 76 407 76 391.5 73.5 c 128,-1,64
 376 71 376 71 329 71 c 128,-1,65
 282 71 282 71 266.5 73.5 c 128,-1,66
 251 76 251 76 225 89 c 0,67,68
 172 115 172 115 129.5 163 c 128,-1,69
 87 211 87 211 67 270 c 0,70,71
 54 306 54 306 54 359 c 2,72,-1
 54 384 l 2,73,74
 54 460 54 460 67 493 c 0,75,76
 96 568 96 568 146.5 618 c 128,-1,77
 197 668 197 668 259 685 c 0,48,49
EndSplineSet
Ligature2: "'rlig' Required Ligatures in Latin lookup 0-1" o x
EndChar

StartChar: uni0262
Encoding: 610 610 127
Width: 775
Flags: W
LayerCount: 2
Fore
SplineSet
226 546 m 2,0,1
 398 718 398 718 403 718 c 0,2,3
 410 718 410 718 432 694 c 2,4,-1
 455 671 l 1,5,-1
 159 375 l 1,6,-1
 261 273 l 2,7,8
 348 185 348 185 372 164.5 c 128,-1,9
 396 144 396 144 417 138 c 128,-1,10
 438 132 438 132 520 132 c 0,11,12
 601 132 601 132 622 138 c 0,13,14
 642 143 642 143 660 159 c 2,15,-1
 678 173 l 1,16,-1
 703 150 l 2,17,18
 723 132 723 132 723 123 c 0,19,20
 723 111 723 111 678 85 c 2,21,-1
 641 65 l 1,22,-1
 397 65 l 1,23,-1
 362 84 l 2,24,25
 329 101 329 101 191 239 c 2,26,-1
 55 375 l 1,27,-1
 226 546 l 2,0,1
334 412 m 0,28,29
 350 427 350 427 370 427 c 0,30,31
 391 427 391 427 407 412 c 128,-1,32
 423 397 423 397 423 375 c 0,33,34
 423 354 423 354 407.5 338.5 c 128,-1,35
 392 323 392 323 371 323 c 0,36,37
 349 323 349 323 334 339 c 128,-1,38
 319 355 319 355 319 376 c 0,39,40
 319 396 319 396 334 412 c 0,28,29
EndSplineSet
EndChar

StartChar: uni0241
Encoding: 577 577 128
Width: 775
Flags: W
LayerCount: 2
Fore
SplineSet
226 546 m 2,0,1
 398 718 398 718 403 718 c 0,2,3
 410 718 410 718 432 694 c 2,4,-1
 455 671 l 1,5,-1
 159 375 l 1,6,-1
 261 273 l 2,7,8
 343 190 343 190 369 167.5 c 128,-1,9
 395 145 395 145 418 138 c 0,10,11
 438 132 438 132 520 132 c 0,12,13
 601 132 601 132 622 138 c 0,14,15
 641 143 641 143 661 159 c 2,16,-1
 680 174 l 1,17,-1
 703 150 l 2,18,19
 722 132 722 132 722 122 c 0,20,21
 722 109 722 109 678 85 c 2,22,-1
 641 65 l 1,23,-1
 397 65 l 1,24,-1
 362 84 l 2,25,26
 329 101 329 101 191 239 c 2,27,-1
 55 375 l 1,28,-1
 226 546 l 2,0,1
EndSplineSet
EndChar

StartChar: uni0242
Encoding: 578 578 129
Width: 775
Flags: W
LayerCount: 2
Fore
SplineSet
226 546 m 2,0,1
 398 718 398 718 403 718 c 0,2,3
 410 718 410 718 432 694 c 2,4,-1
 455 671 l 1,5,-1
 159 375 l 1,6,-1
 261 273 l 2,7,8
 343 190 343 190 369 167.5 c 128,-1,9
 395 145 395 145 418 138 c 0,10,11
 438 132 438 132 520 132 c 0,12,13
 601 132 601 132 622 138 c 0,14,15
 641 143 641 143 661 159 c 2,16,-1
 680 174 l 1,17,-1
 703 150 l 2,18,19
 722 132 722 132 722 122 c 0,20,21
 722 109 722 109 678 85 c 2,22,-1
 641 65 l 1,23,-1
 397 65 l 1,24,-1
 362 84 l 2,25,26
 329 101 329 101 191 239 c 2,27,-1
 55 375 l 1,28,-1
 226 546 l 2,0,1
EndSplineSet
EndChar

StartChar: uni0279
Encoding: 633 633 130
Width: 692
Flags: W
LayerCount: 2
Fore
SplineSet
398 484 m 1,0,-1
 399 689 l 1,1,-1
 469 689 l 1,2,-1
 469 410 l 1,3,-1
 573 410 l 1,4,-1
 573 689 l 1,5,-1
 642 689 l 1,6,-1
 642 62 l 1,7,-1
 573 62 l 1,8,-1
 573 341 l 1,9,-1
 469 341 l 1,10,-1
 467 203 l 1,11,-1
 466 65 l 1,12,13
 238 335 238 335 123 469 c 1,14,15
 122 401 122 401 122 265.5 c 128,-1,16
 122 130 122 130 121 62 c 1,17,-1
 51 62 l 1,18,-1
 51 372 l 2,19,20
 51 683 51 683 53 683 c 0,21,22
 58 683 58 683 226 482 c 2,23,-1
 396 280 l 1,24,-1
 398 484 l 1,0,-1
EndSplineSet
EndChar

StartChar: scircumflex
Encoding: 349 349 131
Width: 743
Flags: W
LayerCount: 2
Fore
SplineSet
51 68 m 1,0,-1
 51 694 l 1,1,-1
 121 694 l 1,2,-1
 121 138 l 1,3,-1
 400 138 l 1,4,5
 400 230 400 230 398 416 c 128,-1,6
 396 602 396 602 396 694 c 1,7,-1
 463 694 l 1,8,-1
 463 635 l 2,9,10
 463 581 463 581 467 495 c 2,11,-1
 470 416 l 1,12,-1
 567 416 l 1,13,-1
 567 694 l 1,14,-1
 635 694 l 1,15,-1
 640 302 l 2,16,17
 643 -10 643 -10 647.5 -71.5 c 128,-1,18
 652 -133 652 -133 672 -156 c 2,19,-1
 685 -170 l 1,20,-1
 661 -195 l 2,21,22
 642 -214 642 -214 633 -214 c 0,23,24
 620 -214 620 -214 596 -167 c 2,25,-1
 576 -127 l 1,26,27
 576 -48 576 -48 574 109.5 c 128,-1,28
 572 267 572 267 572 346 c 1,29,-1
 469 346 l 1,30,-1
 469 68 l 1,31,-1
 51 68 l 1,0,-1
EndSplineSet
Ligature2: "'rlig' Required Ligatures in Latin lookup 0-1" s x
Ligature2: "'rlig' Required Ligatures in Latin lookup 0-1" s h
Ligature2: "'rlig' Required Ligatures in Latin lookup 0-1" s j
EndChar

StartChar: thorn
Encoding: 254 254 132
Width: 527
Flags: W
LayerCount: 2
Fore
SplineSet
54 632 m 2,0,-1
 51 689 l 1,1,-1
 121 689 l 1,2,-1
 124 557 l 2,3,4
 128 413 128 413 128 279 c 2,5,-1
 128 132 l 1,6,-1
 401 132 l 1,7,-1
 401 689 l 1,8,-1
 470 689 l 1,9,-1
 470 62 l 1,10,-1
 59 62 l 1,11,-1
 59 319 l 2,12,13
 59 554 59 554 54 632 c 2,0,-1
59 -77 m 1,14,-1
 59 -7 l 1,15,-1
 476 -7 l 1,16,-1
 476 -77 l 1,17,-1
 59 -77 l 1,14,-1
EndSplineSet
Ligature2: "'rlig' Required Ligatures in Latin lookup 0-1" t x
Ligature2: "'rlig' Required Ligatures in Latin lookup 0-1" t h
EndChar

StartChar: Thorn
Encoding: 222 222 133
Width: 527
Flags: W
LayerCount: 2
Fore
SplineSet
54 632 m 2,0,-1
 51 689 l 1,1,-1
 121 689 l 1,2,-1
 124 557 l 2,3,4
 128 413 128 413 128 279 c 2,5,-1
 128 132 l 1,6,-1
 401 132 l 1,7,-1
 401 689 l 1,8,-1
 470 689 l 1,9,-1
 470 62 l 1,10,-1
 59 62 l 1,11,-1
 59 319 l 2,12,13
 59 554 59 554 54 632 c 2,0,-1
59 -77 m 1,14,-1
 59 -7 l 1,15,-1
 476 -7 l 1,16,-1
 476 -77 l 1,17,-1
 59 -77 l 1,14,-1
EndSplineSet
Ligature2: "'rlig' Required Ligatures in Latin lookup 0-1" T X
Ligature2: "'rlig' Required Ligatures in Latin lookup 0-1" T x
Ligature2: "'rlig' Required Ligatures in Latin lookup 0-1" T H
Ligature2: "'rlig' Required Ligatures in Latin lookup 0-1" T h
EndChar

StartChar: uni0280
Encoding: 640 640 134
Width: 309
Flags: W
LayerCount: 2
Fore
SplineSet
126 622 m 2,0,1
 198 694 198 694 205 694 c 0,2,3
 213 694 213 694 234 671 c 2,4,-1
 256 648 l 1,5,6
 224 615 224 615 158 549 c 1,7,8
 191 517 191 517 257 451 c 1,9,-1
 205 399 l 1,10,11
 154 449 154 449 54 549 c 1,12,-1
 126 622 l 2,0,1
126 274 m 2,13,14
 198 346 198 346 205 346 c 0,15,16
 213 346 213 346 234 323 c 2,17,-1
 256 300 l 1,18,19
 224 267 224 267 158 201 c 1,20,21
 191 169 191 169 257 103 c 1,22,-1
 205 51 l 1,23,24
 154 101 154 101 54 201 c 1,25,-1
 126 274 l 2,13,14
EndSplineSet
EndChar

StartChar: uni0281
Encoding: 641 641 135
Width: 531
Flags: W
LayerCount: 2
Fore
SplineSet
127 628 m 2,0,1
 199 700 199 700 206 700 c 0,2,3
 214 700 214 700 235 677 c 2,4,-1
 257 654 l 1,5,6
 214 609 214 609 159 555 c 1,7,8
 209 507 209 507 257 457 c 1,9,-1
 235 433 l 2,10,11
 214 410 214 410 206 410 c 0,12,13
 200 410 200 410 127 483 c 2,14,-1
 55 555 l 1,15,-1
 127 628 l 2,0,1
127 280 m 2,16,17
 199 352 199 352 206 352 c 128,-1,18
 213 352 213 352 235 328 c 2,19,-1
 256 305 l 1,20,21
 240 289 240 289 208 256.5 c 128,-1,22
 176 224 176 224 160 207 c 1,23,-1
 185 181 l 2,24,25
 208 157 208 157 233 147.5 c 128,-1,26
 258 138 258 138 297 138 c 0,27,28
 300 138 300 138 307 138.5 c 128,-1,29
 314 139 314 139 318 139 c 0,30,31
 352 141 352 141 365.5 144 c 128,-1,32
 379 147 379 147 398 159 c 2,33,-1
 428 177 l 1,34,35
 452 152 452 152 477 128 c 1,36,-1
 454 109 l 2,37,38
 426 86 426 86 397.5 77.5 c 128,-1,39
 369 69 369 69 318 69 c 2,40,-1
 296 69 l 2,41,42
 227 71 227 71 196.5 84.5 c 128,-1,43
 166 98 166 98 110 153 c 2,44,-1
 55 207 l 1,45,-1
 127 280 l 2,16,17
EndSplineSet
EndChar

StartChar: Ubreve
Encoding: 364 364 136
Width: 660
Flags: W
LayerCount: 2
Fore
SplineSet
194 879 m 2,0,-1
 189 903 l 1,1,-1
 222 903 l 2,2,3
 247 903 247 903 252.5 901 c 128,-1,4
 258 899 258 899 260 886 c 0,5,6
 265 866 265 866 285.5 850 c 128,-1,7
 306 834 306 834 327 834 c 128,-1,8
 348 834 348 834 368 850 c 128,-1,9
 388 866 388 866 393 886 c 0,10,11
 395 899 395 899 400 901 c 128,-1,12
 405 903 405 903 431 903 c 0,13,14
 456 903 456 903 461 900.5 c 128,-1,15
 466 898 466 898 466 887 c 0,16,17
 466 868 466 868 450.5 839 c 128,-1,18
 435 810 435 810 419 798 c 0,19,20
 376 765 376 765 334 765 c 2,21,-1
 321 765 l 2,22,23
 283 767 283 767 256 786 c 0,24,25
 207 820 207 820 194 879 c 2,0,-1
151 684 m 0,26,27
 171 706 171 706 175 706 c 0,28,29
 178 706 178 706 201 683 c 2,30,-1
 224 660 l 1,31,-1
 202 635 l 2,32,33
 178 607 178 607 156.5 559.5 c 128,-1,34
 135 512 135 512 129 474 c 0,35,36
 125 447 125 447 125 356 c 2,37,-1
 125 304 l 1,38,-1
 126 177 l 1,39,-1
 148 157 l 2,40,41
 162 144 162 144 171.5 141 c 128,-1,42
 181 138 181 138 202 138 c 0,43,44
 259 138 259 138 285 170 c 0,45,46
 294 181 294 181 296 198 c 128,-1,47
 298 215 298 215 298 283 c 2,48,-1
 298 381 l 1,49,-1
 367 381 l 1,50,-1
 367 283 l 2,51,52
 367 215 367 215 369 198 c 128,-1,53
 371 181 371 181 380 170 c 0,54,55
 406 138 406 138 463 138 c 0,56,57
 484 138 484 138 493 141 c 128,-1,58
 502 144 502 144 517 157 c 2,59,-1
 538 178 l 1,60,-1
 538 304 l 2,61,62
 536 442 536 442 530 474 c 0,63,64
 523 513 523 513 501.5 561 c 128,-1,65
 480 609 480 609 458 635 c 0,66,67
 437 658 437 658 437 662 c 0,68,69
 437 668 437 668 456 687 c 128,-1,70
 475 706 475 706 481 706 c 0,71,72
 497 706 497 706 532.5 651 c 128,-1,73
 568 596 568 596 585 546 c 0,74,75
 596 513 596 513 599 482.5 c 128,-1,76
 602 452 602 452 606 347 c 0,77,78
 609 265 609 265 609 208 c 0,79,80
 609 179 609 179 608 175 c 0,81,82
 603 151 603 151 584 125.5 c 128,-1,83
 565 100 565 100 540 86 c 0,84,85
 520 74 520 74 507 71 c 128,-1,86
 494 68 494 68 465 68 c 0,87,88
 391 68 391 68 349 99 c 2,89,-1
 332 111 l 1,90,-1
 316 99 l 2,91,92
 274 68 274 68 201 68 c 0,93,94
 103 68 103 68 67 147 c 0,95,96
 59 165 59 165 56.5 180 c 128,-1,97
 54 195 54 195 54 239 c 0,98,99
 54 295 54 295 55 339 c 0,100,101
 56 455 56 455 59 483 c 128,-1,102
 62 511 62 511 74 546 c 0,103,104
 102 630 102 630 151 684 c 0,26,27
EndSplineSet
Ligature2: "'rlig' Required Ligatures in Latin lookup 0-1" U X
Ligature2: "'rlig' Required Ligatures in Latin lookup 0-1" U x
EndChar

StartChar: ubreve
Encoding: 365 365 137
Width: 660
Flags: W
LayerCount: 2
Fore
SplineSet
194 879 m 2,0,-1
 189 903 l 1,1,-1
 222 903 l 2,2,3
 247 903 247 903 252.5 901 c 128,-1,4
 258 899 258 899 260 886 c 0,5,6
 265 866 265 866 285.5 850 c 128,-1,7
 306 834 306 834 327 834 c 128,-1,8
 348 834 348 834 368 850 c 128,-1,9
 388 866 388 866 393 886 c 0,10,11
 395 899 395 899 400 901 c 128,-1,12
 405 903 405 903 431 903 c 0,13,14
 456 903 456 903 461 900.5 c 128,-1,15
 466 898 466 898 466 887 c 0,16,17
 466 868 466 868 450.5 839 c 128,-1,18
 435 810 435 810 419 798 c 0,19,20
 376 765 376 765 334 765 c 2,21,-1
 321 765 l 2,22,23
 283 767 283 767 256 786 c 0,24,25
 207 820 207 820 194 879 c 2,0,-1
151 684 m 0,26,27
 171 706 171 706 175 706 c 0,28,29
 178 706 178 706 201 683 c 2,30,-1
 224 660 l 1,31,-1
 202 635 l 2,32,33
 178 607 178 607 156.5 559.5 c 128,-1,34
 135 512 135 512 129 474 c 0,35,36
 125 447 125 447 125 356 c 2,37,-1
 125 304 l 1,38,-1
 126 177 l 1,39,-1
 148 157 l 2,40,41
 162 144 162 144 171.5 141 c 128,-1,42
 181 138 181 138 202 138 c 0,43,44
 259 138 259 138 285 170 c 0,45,46
 294 181 294 181 296 198 c 128,-1,47
 298 215 298 215 298 283 c 2,48,-1
 298 381 l 1,49,-1
 367 381 l 1,50,-1
 367 283 l 2,51,52
 367 215 367 215 369 198 c 128,-1,53
 371 181 371 181 380 170 c 0,54,55
 406 138 406 138 463 138 c 0,56,57
 484 138 484 138 493 141 c 128,-1,58
 502 144 502 144 517 157 c 2,59,-1
 538 178 l 1,60,-1
 538 304 l 2,61,62
 536 442 536 442 530 474 c 0,63,64
 523 513 523 513 501.5 561 c 128,-1,65
 480 609 480 609 458 635 c 0,66,67
 437 658 437 658 437 662 c 0,68,69
 437 668 437 668 456 687 c 128,-1,70
 475 706 475 706 481 706 c 0,71,72
 497 706 497 706 532.5 651 c 128,-1,73
 568 596 568 596 585 546 c 0,74,75
 596 513 596 513 599 482.5 c 128,-1,76
 602 452 602 452 606 347 c 0,77,78
 609 265 609 265 609 208 c 0,79,80
 609 179 609 179 608 175 c 0,81,82
 603 151 603 151 584 125.5 c 128,-1,83
 565 100 565 100 540 86 c 0,84,85
 520 74 520 74 507 71 c 128,-1,86
 494 68 494 68 465 68 c 0,87,88
 391 68 391 68 349 99 c 2,89,-1
 332 111 l 1,90,-1
 316 99 l 2,91,92
 274 68 274 68 201 68 c 0,93,94
 103 68 103 68 67 147 c 0,95,96
 59 165 59 165 56.5 180 c 128,-1,97
 54 195 54 195 54 239 c 0,98,99
 54 295 54 295 55 339 c 0,100,101
 56 455 56 455 59 483 c 128,-1,102
 62 511 62 511 74 546 c 0,103,104
 102 630 102 630 151 684 c 0,26,27
EndSplineSet
Ligature2: "'rlig' Required Ligatures in Latin lookup 0-1" u x
EndChar

StartChar: Lacute
Encoding: 313 313 138
Width: 522
Flags: W
LayerCount: 2
Fore
SplineSet
51 619 m 1,0,-1
 51 689 l 1,1,-1
 469 689 l 1,2,-1
 469 666 l 2,3,4
 469 645 469 645 460 611.5 c 128,-1,5
 451 578 451 578 440 556 c 0,6,7
 394 467 394 467 290.5 404.5 c 128,-1,8
 187 342 187 342 85 341 c 2,9,-1
 51 341 l 1,10,-1
 51 410 l 1,11,-1
 76 410 l 2,12,13
 144 411 144 411 222 447.5 c 128,-1,14
 300 484 300 484 341 535 c 0,15,16
 355 553 355 553 370.5 580 c 128,-1,17
 386 607 386 607 387 615 c 0,18,19
 387 619 387 619 219 619 c 2,20,-1
 51 619 l 1,0,-1
408 231 m 0,21,22
 413 236 413 236 418 236 c 0,23,24
 427 236 427 236 448 212 c 2,25,-1
 469 188 l 1,26,-1
 456 177 l 2,27,28
 439 164 439 164 379 135 c 0,29,30
 251 72 251 72 114 64 c 2,31,-1
 51 61 l 1,32,-1
 51 132 l 1,33,-1
 79 132 l 2,34,35
 149 132 149 132 252 161 c 0,36,37
 283 170 283 170 340.5 195.5 c 128,-1,38
 398 221 398 221 408 231 c 0,21,22
EndSplineSet
Ligature2: "'rlig' Required Ligatures in Latin lookup 0-1" grave
EndChar

StartChar: lacute
Encoding: 314 314 139
Width: 522
Flags: W
LayerCount: 2
Fore
SplineSet
51 619 m 1,0,-1
 51 689 l 1,1,-1
 469 689 l 1,2,-1
 469 666 l 2,3,4
 469 645 469 645 460 611.5 c 128,-1,5
 451 578 451 578 440 556 c 0,6,7
 394 467 394 467 290.5 404.5 c 128,-1,8
 187 342 187 342 85 341 c 2,9,-1
 51 341 l 1,10,-1
 51 410 l 1,11,-1
 76 410 l 2,12,13
 144 411 144 411 222 447.5 c 128,-1,14
 300 484 300 484 341 535 c 0,15,16
 355 553 355 553 370.5 580 c 128,-1,17
 386 607 386 607 387 615 c 0,18,19
 387 619 387 619 219 619 c 2,20,-1
 51 619 l 1,0,-1
408 231 m 0,21,22
 413 236 413 236 418 236 c 0,23,24
 427 236 427 236 448 212 c 2,25,-1
 469 188 l 1,26,-1
 456 177 l 2,27,28
 439 164 439 164 379 135 c 0,29,30
 251 72 251 72 114 64 c 2,31,-1
 51 61 l 1,32,-1
 51 132 l 1,33,-1
 79 132 l 2,34,35
 149 132 149 132 252 161 c 0,36,37
 283 170 283 170 340.5 195.5 c 128,-1,38
 398 221 398 221 408 231 c 0,21,22
EndSplineSet
Ligature2: "'rlig' Required Ligatures in Latin lookup 0-1" grave
EndChar

StartChar: uni013B
Encoding: 315 315 140
Width: 522
Flags: W
LayerCount: 2
Fore
SplineSet
56 664 m 2,0,-1
 53 694 l 1,1,-1
 123 694 l 1,2,-1
 130 661 l 2,3,4
 137 626 137 626 167 598 c 0,5,6
 209 555 209 555 260 555 c 0,7,8
 284 555 284 555 306 562 c 0,9,10
 340 571 340 571 371.5 610.5 c 128,-1,11
 403 650 403 650 403 684 c 0,12,13
 403 691 403 691 408.5 692.5 c 128,-1,14
 414 694 414 694 437 694 c 2,15,-1
 472 694 l 1,16,-1
 472 68 l 1,17,-1
 404 68 l 1,18,-1
 400 89 l 2,19,20
 390 140 390 140 352 174 c 0,21,22
 317 206 317 206 264 206 c 0,23,24
 210 206 210 206 175 174 c 0,25,26
 157 157 157 157 140.5 127.5 c 128,-1,27
 124 98 124 98 124 81 c 0,28,29
 124 72 124 72 119 70 c 128,-1,30
 114 68 114 68 89 68 c 2,31,-1
 53 68 l 1,32,-1
 56 98 l 2,33,34
 65 169 65 169 119 220 c 128,-1,35
 173 271 173 271 246 276 c 0,36,37
 249 276 249 276 255 276.5 c 128,-1,38
 261 277 261 277 264 277 c 0,39,40
 324 277 324 277 371 247 c 0,41,42
 397 230 397 230 400 230 c 128,-1,43
 403 230 403 230 403 385 c 2,44,-1
 403 539 l 1,45,-1
 385 524 l 2,46,47
 341 486 341 486 262 486 c 0,48,49
 223 486 223 486 190 498 c 0,50,51
 137 518 137 518 100 564.5 c 128,-1,52
 63 611 63 611 56 664 c 2,0,-1
EndSplineSet
Ligature2: "'rlig' Required Ligatures in Latin lookup 0-1" L j
EndChar

StartChar: uni013C
Encoding: 316 316 141
Width: 522
Flags: W
LayerCount: 2
Fore
SplineSet
56 664 m 2,0,-1
 53 694 l 1,1,-1
 123 694 l 1,2,-1
 130 661 l 2,3,4
 137 626 137 626 167 598 c 0,5,6
 209 555 209 555 260 555 c 0,7,8
 284 555 284 555 306 562 c 0,9,10
 340 571 340 571 371.5 610.5 c 128,-1,11
 403 650 403 650 403 684 c 0,12,13
 403 691 403 691 408.5 692.5 c 128,-1,14
 414 694 414 694 437 694 c 2,15,-1
 472 694 l 1,16,-1
 472 68 l 1,17,-1
 404 68 l 1,18,-1
 400 89 l 2,19,20
 390 140 390 140 352 174 c 0,21,22
 317 206 317 206 264 206 c 0,23,24
 210 206 210 206 175 174 c 0,25,26
 157 157 157 157 140.5 127.5 c 128,-1,27
 124 98 124 98 124 81 c 0,28,29
 124 72 124 72 119 70 c 128,-1,30
 114 68 114 68 89 68 c 2,31,-1
 53 68 l 1,32,-1
 56 98 l 2,33,34
 65 169 65 169 119 220 c 128,-1,35
 173 271 173 271 246 276 c 0,36,37
 249 276 249 276 255 276.5 c 128,-1,38
 261 277 261 277 264 277 c 0,39,40
 324 277 324 277 371 247 c 0,41,42
 397 230 397 230 400 230 c 128,-1,43
 403 230 403 230 403 385 c 2,44,-1
 403 539 l 1,45,-1
 385 524 l 2,46,47
 341 486 341 486 262 486 c 0,48,49
 223 486 223 486 190 498 c 0,50,51
 137 518 137 518 100 564.5 c 128,-1,52
 63 611 63 611 56 664 c 2,0,-1
EndSplineSet
Ligature2: "'rlig' Required Ligatures in Latin lookup 0-1" l j
EndChar

StartChar: Lcaron
Encoding: 317 317 142
Width: 530
Flags: W
LayerCount: 2
Fore
SplineSet
218 583 m 0,0,1
 228 591 228 591 331 651 c 128,-1,2
 434 711 434 711 448 711 c 1,3,-1
 450 710 l 2,4,5
 456 704 456 704 467 680 c 0,6,7
 475 665 475 665 475 659 c 0,8,9
 475 655 475 655 471 651 c 0,10,11
 463 643 463 643 350 579 c 0,12,13
 201 494 201 494 200 485 c 0,14,15
 200 483 200 483 224.5 468.5 c 128,-1,16
 249 454 249 454 255 453 c 0,17,18
 263 451 263 451 370.5 389 c 128,-1,19
 478 327 478 327 478 323 c 128,-1,20
 478 319 478 319 463 292 c 128,-1,21
 448 265 448 265 446 265 c 0,22,23
 445 265 445 265 368 309 c 0,24,25
 295 352 295 352 288 352 c 128,-1,26
 281 352 281 352 169 418 c 2,27,-1
 54 484 l 1,28,-1
 73 496 l 2,29,30
 76 498 76 498 100.5 512 c 128,-1,31
 125 526 125 526 147.5 539 c 128,-1,32
 170 552 170 552 192 565.5 c 128,-1,33
 214 579 214 579 218 583 c 0,0,1
56 275 m 0,34,35
 56 281 56 281 72.5 308 c 128,-1,36
 89 335 89 335 91 335 c 0,37,38
 94 335 94 335 213 267 c 128,-1,39
 332 199 332 199 339 197 c 0,40,41
 349 195 349 195 413.5 156.5 c 128,-1,42
 478 118 478 118 478 114 c 128,-1,43
 478 110 478 110 462.5 83 c 128,-1,44
 447 56 447 56 445 56 c 0,45,46
 442 56 442 56 407 77 c 0,47,48
 375 96 375 96 364 99 c 0,49,50
 56 265 56 265 56 275 c 0,34,35
EndSplineSet
Ligature2: "'rlig' Required Ligatures in Latin lookup 0-1" L grave grave
EndChar

StartChar: lcaron
Encoding: 318 318 143
Width: 530
Flags: W
LayerCount: 2
Fore
SplineSet
218 583 m 0,0,1
 228 591 228 591 331 651 c 128,-1,2
 434 711 434 711 448 711 c 1,3,-1
 450 710 l 2,4,5
 456 704 456 704 467 680 c 0,6,7
 475 665 475 665 475 659 c 0,8,9
 475 655 475 655 471 651 c 0,10,11
 463 643 463 643 350 579 c 0,12,13
 201 494 201 494 200 485 c 0,14,15
 200 483 200 483 224.5 468.5 c 128,-1,16
 249 454 249 454 255 453 c 0,17,18
 263 451 263 451 370.5 389 c 128,-1,19
 478 327 478 327 478 323 c 128,-1,20
 478 319 478 319 463 292 c 128,-1,21
 448 265 448 265 446 265 c 0,22,23
 445 265 445 265 368 309 c 0,24,25
 295 352 295 352 288 352 c 128,-1,26
 281 352 281 352 169 418 c 2,27,-1
 54 484 l 1,28,-1
 73 496 l 2,29,30
 76 498 76 498 100.5 512 c 128,-1,31
 125 526 125 526 147.5 539 c 128,-1,32
 170 552 170 552 192 565.5 c 128,-1,33
 214 579 214 579 218 583 c 0,0,1
56 275 m 0,34,35
 56 281 56 281 72.5 308 c 128,-1,36
 89 335 89 335 91 335 c 0,37,38
 94 335 94 335 213 267 c 128,-1,39
 332 199 332 199 339 197 c 0,40,41
 349 195 349 195 413.5 156.5 c 128,-1,42
 478 118 478 118 478 114 c 128,-1,43
 478 110 478 110 462.5 83 c 128,-1,44
 447 56 447 56 445 56 c 0,45,46
 442 56 442 56 407 77 c 0,47,48
 375 96 375 96 364 99 c 0,49,50
 56 265 56 265 56 275 c 0,34,35
EndSplineSet
Ligature2: "'rlig' Required Ligatures in Latin lookup 0-1" l grave grave
EndChar

StartChar: Lslash
Encoding: 321 321 144
Width: 772
Flags: W
LayerCount: 2
Fore
SplineSet
297 626 m 0,0,1
 432 705 432 705 447 705 c 0,2,3
 449 705 449 705 449 704 c 0,4,5
 475 663 475 663 475 650 c 0,6,7
 475 644 475 644 337 566 c 128,-1,8
 199 488 199 488 199 485 c 0,9,10
 199 480 199 480 338 402 c 0,11,12
 477 323 477 323 477 317 c 0,13,14
 477 313 477 313 462 286 c 128,-1,15
 447 259 447 259 445 259 c 0,16,17
 441 259 441 259 250.5 371 c 128,-1,18
 60 483 60 483 60 485 c 0,19,20
 60 490 60 490 105 515 c 0,21,22
 115 521 115 521 183.5 560.5 c 128,-1,23
 252 600 252 600 297 626 c 0,0,1
55 274 m 2,24,25
 53 276 53 276 70 305.5 c 128,-1,26
 87 335 87 335 89 335 c 0,27,28
 96 335 96 335 263 236 c 2,29,-1
 434 138 l 1,30,-1
 515 138 l 2,31,32
 582 138 582 138 609.5 143 c 128,-1,33
 637 148 637 148 657 165 c 2,34,-1
 676 180 l 1,35,-1
 699 156 l 2,36,37
 718 138 718 138 718 128 c 0,38,39
 718 115 718 115 674 91 c 2,40,-1
 637 71 l 1,41,42
 600 70 600 70 525.5 69 c 128,-1,43
 451 68 451 68 414 67 c 1,44,-1
 235 170 l 2,45,46
 194 194 194 194 147.5 220.5 c 128,-1,47
 101 247 101 247 78 260 c 2,48,-1
 55 274 l 2,24,25
EndSplineSet
Ligature2: "'rlig' Required Ligatures in Latin lookup 0-1" L grave grave grave
EndChar

StartChar: lslash
Encoding: 322 322 145
Width: 772
Flags: W
LayerCount: 2
Fore
SplineSet
297 626 m 0,0,1
 432 705 432 705 447 705 c 0,2,3
 449 705 449 705 449 704 c 0,4,5
 475 663 475 663 475 650 c 0,6,7
 475 644 475 644 337 566 c 128,-1,8
 199 488 199 488 199 485 c 0,9,10
 199 480 199 480 338 402 c 0,11,12
 477 323 477 323 477 317 c 0,13,14
 477 313 477 313 462 286 c 128,-1,15
 447 259 447 259 445 259 c 0,16,17
 441 259 441 259 250.5 371 c 128,-1,18
 60 483 60 483 60 485 c 0,19,20
 60 490 60 490 105 515 c 0,21,22
 115 521 115 521 183.5 560.5 c 128,-1,23
 252 600 252 600 297 626 c 0,0,1
55 274 m 2,24,25
 53 276 53 276 70 305.5 c 128,-1,26
 87 335 87 335 89 335 c 0,27,28
 96 335 96 335 263 236 c 2,29,-1
 434 138 l 1,30,-1
 515 138 l 2,31,32
 582 138 582 138 609.5 143 c 128,-1,33
 637 148 637 148 657 165 c 2,34,-1
 676 180 l 1,35,-1
 699 156 l 2,36,37
 718 138 718 138 718 128 c 0,38,39
 718 115 718 115 674 91 c 2,40,-1
 637 71 l 1,41,42
 600 70 600 70 525.5 69 c 128,-1,43
 451 68 451 68 414 67 c 1,44,-1
 235 170 l 2,45,46
 194 194 194 194 147.5 220.5 c 128,-1,47
 101 247 101 247 78 260 c 2,48,-1
 55 274 l 2,24,25
EndSplineSet
Ligature2: "'rlig' Required Ligatures in Latin lookup 0-1" l grave grave grave
EndChar

StartChar: Hcircumflex
Encoding: 292 292 146
Width: 520
Flags: W
LayerCount: 2
Fore
SplineSet
278 603 m 0,0,1
 391 718 391 718 397 718 c 0,2,3
 404 718 404 718 426 694 c 2,4,-1
 449 671 l 1,5,-1
 330 551 l 2,6,7
 206 427 206 427 185 403 c 2,8,-1
 160 375 l 1,9,-1
 300 234 l 2,10,11
 427 106 427 106 449 72 c 128,-1,12
 471 38 471 38 475 -42 c 0,13,14
 479 -99 479 -99 485 -122.5 c 128,-1,15
 491 -146 491 -146 506 -163 c 2,16,-1
 518 -176 l 1,17,18
 484 -210 484 -210 467 -228 c 1,19,-1
 453 -212 l 2,20,21
 411 -163 411 -163 406 -62 c 0,22,23
 402 9 402 9 395 25 c 0,24,25
 389 40 389 40 221 208 c 2,26,-1
 55 375 l 1,27,-1
 110 432 l 2,28,29
 127 449 127 449 278 603 c 0,0,1
EndSplineSet
LCarets2: 1 0
Ligature2: "'rlig' Required Ligatures in Latin lookup 0-1" K H
Ligature2: "'rlig' Required Ligatures in Latin lookup 0-1" K h
Ligature2: "'rlig' Required Ligatures in Latin lookup 0-1" H X
Ligature2: "'rlig' Required Ligatures in Latin lookup 0-1" H x
EndChar

StartChar: hcircumflex
Encoding: 293 293 147
Width: 520
Flags: W
LayerCount: 2
Fore
SplineSet
278 603 m 0,0,1
 391 718 391 718 397 718 c 0,2,3
 404 718 404 718 426 694 c 2,4,-1
 449 671 l 1,5,-1
 330 551 l 2,6,7
 206 427 206 427 185 403 c 2,8,-1
 160 375 l 1,9,-1
 300 234 l 2,10,11
 427 106 427 106 449 72 c 128,-1,12
 471 38 471 38 475 -42 c 0,13,14
 479 -99 479 -99 485 -122.5 c 128,-1,15
 491 -146 491 -146 506 -163 c 2,16,-1
 518 -176 l 1,17,18
 484 -210 484 -210 467 -228 c 1,19,-1
 453 -212 l 2,20,21
 411 -163 411 -163 406 -62 c 0,22,23
 402 9 402 9 395 25 c 0,24,25
 389 40 389 40 221 208 c 2,26,-1
 55 375 l 1,27,-1
 110 432 l 2,28,29
 127 449 127 449 278 603 c 0,0,1
EndSplineSet
LCarets2: 1 0
Ligature2: "'rlig' Required Ligatures in Latin lookup 0-1" k h
Ligature2: "'rlig' Required Ligatures in Latin lookup 0-1" h x
EndChar

StartChar: Ycircumflex
Encoding: 374 374 148
Width: 694
Flags: W
LayerCount: 2
Fore
SplineSet
207 879 m 2,0,-1
 203 903 l 1,1,-1
 238 903 l 2,2,3
 264 903 264 903 269.5 901 c 128,-1,4
 275 899 275 899 277 886 c 0,5,6
 282 866 282 866 302.5 850 c 128,-1,7
 323 834 323 834 344 834 c 128,-1,8
 365 834 365 834 385.5 850 c 128,-1,9
 406 866 406 866 411 886 c 0,10,11
 413 899 413 899 418 901 c 128,-1,12
 423 903 423 903 449 903 c 0,13,14
 474 903 474 903 478.5 901 c 128,-1,15
 483 899 483 899 483 887 c 0,16,17
 483 869 483 869 469 841 c 0,18,19
 450 805 450 805 417 784.5 c 128,-1,20
 384 764 384 764 345 764 c 128,-1,21
 306 764 306 764 271 785 c 0,22,23
 247 800 247 800 229 826.5 c 128,-1,24
 211 853 211 853 207 879 c 2,0,-1
537 470 m 0,25,26
 525 501 525 501 521 501 c 0,27,28
 514 501 514 501 372.5 359 c 128,-1,29
 231 217 231 217 223 203 c 0,30,31
 220 197 220 197 220 194 c 0,32,33
 220 187 220 187 242 172 c 0,34,35
 291 138 291 138 347 138 c 0,36,37
 386 138 386 138 421 154 c 0,38,39
 448 166 448 166 479.5 198 c 128,-1,40
 511 230 511 230 525 259 c 0,41,42
 552 314 552 314 552 382 c 0,43,44
 552 431 552 431 537 470 c 0,25,26
423 606 m 0,45,46
 390 623 390 623 346 623 c 0,47,48
 286 623 286 623 240 593 c 0,49,50
 206 572 206 572 178 527 c 128,-1,51
 150 482 150 482 141 435 c 0,52,53
 137 416 137 416 137 398 c 0,54,55
 137 381 137 381 143 345 c 0,56,57
 154 290 154 290 163 274 c 2,58,-1
 173 257 l 1,59,60
 276 360 276 360 480 568 c 1,61,-1
 466 580 l 2,62,63
 452 591 452 591 423 606 c 0,45,46
274 686 m 0,64,65
 298 693 298 693 336 693 c 0,66,67
 395 693 395 693 437 677 c 0,68,69
 471 664 471 664 501 641 c 2,70,-1
 531 618 l 1,71,-1
 558 644 l 2,72,73
 587 671 587 671 590 671 c 0,74,75
 597 671 597 671 618 650 c 2,76,-1
 640 628 l 1,77,-1
 574 562 l 1,78,-1
 589 530 l 2,79,80
 621 466 621 466 621 380 c 0,81,82
 621 286 621 286 583 217 c 0,83,84
 563 181 563 181 524.5 143.5 c 128,-1,85
 486 106 486 106 451 90 c 0,86,87
 423 77 423 77 407.5 74 c 128,-1,88
 392 71 392 71 347 71 c 0,89,90
 305 71 305 71 288.5 73.5 c 128,-1,91
 272 76 272 76 251 86 c 0,92,93
 218 102 218 102 191 123 c 2,94,-1
 164 143 l 1,95,96
 136 119 136 119 103 86 c 1,97,98
 78 110 78 110 54 135 c 1,99,-1
 119 200 l 1,100,-1
 104 232 l 2,101,102
 72 302 72 302 72 385 c 0,103,104
 72 415 72 415 77 457 c 0,105,106
 88 540 88 540 155 610 c 0,107,108
 210 668 210 668 274 686 c 0,64,65
EndSplineSet
Ligature2: "'rlig' Required Ligatures in Latin lookup 0-1" Y X
Ligature2: "'rlig' Required Ligatures in Latin lookup 0-1" Y x
EndChar

StartChar: ycircumflex
Encoding: 375 375 149
Width: 694
Flags: W
LayerCount: 2
Fore
SplineSet
207 879 m 2,0,-1
 203 903 l 1,1,-1
 238 903 l 2,2,3
 264 903 264 903 269.5 901 c 128,-1,4
 275 899 275 899 277 886 c 0,5,6
 282 866 282 866 302.5 850 c 128,-1,7
 323 834 323 834 344 834 c 128,-1,8
 365 834 365 834 385.5 850 c 128,-1,9
 406 866 406 866 411 886 c 0,10,11
 413 899 413 899 418 901 c 128,-1,12
 423 903 423 903 449 903 c 0,13,14
 474 903 474 903 478.5 901 c 128,-1,15
 483 899 483 899 483 887 c 0,16,17
 483 869 483 869 469 841 c 0,18,19
 450 805 450 805 417 784.5 c 128,-1,20
 384 764 384 764 345 764 c 128,-1,21
 306 764 306 764 271 785 c 0,22,23
 247 800 247 800 229 826.5 c 128,-1,24
 211 853 211 853 207 879 c 2,0,-1
537 470 m 0,25,26
 525 501 525 501 521 501 c 0,27,28
 514 501 514 501 372.5 359 c 128,-1,29
 231 217 231 217 223 203 c 0,30,31
 220 197 220 197 220 194 c 0,32,33
 220 187 220 187 242 172 c 0,34,35
 291 138 291 138 347 138 c 0,36,37
 386 138 386 138 421 154 c 0,38,39
 448 166 448 166 479.5 198 c 128,-1,40
 511 230 511 230 525 259 c 0,41,42
 552 314 552 314 552 382 c 0,43,44
 552 431 552 431 537 470 c 0,25,26
423 606 m 0,45,46
 390 623 390 623 346 623 c 0,47,48
 286 623 286 623 240 593 c 0,49,50
 206 572 206 572 178 527 c 128,-1,51
 150 482 150 482 141 435 c 0,52,53
 137 416 137 416 137 398 c 0,54,55
 137 381 137 381 143 345 c 0,56,57
 154 290 154 290 163 274 c 2,58,-1
 173 257 l 1,59,60
 276 360 276 360 480 568 c 1,61,-1
 466 580 l 2,62,63
 452 591 452 591 423 606 c 0,45,46
274 686 m 0,64,65
 298 693 298 693 336 693 c 0,66,67
 395 693 395 693 437 677 c 0,68,69
 471 664 471 664 501 641 c 2,70,-1
 531 618 l 1,71,-1
 558 644 l 2,72,73
 587 671 587 671 590 671 c 0,74,75
 597 671 597 671 618 650 c 2,76,-1
 640 628 l 1,77,-1
 574 562 l 1,78,-1
 589 530 l 2,79,80
 621 466 621 466 621 380 c 0,81,82
 621 286 621 286 583 217 c 0,83,84
 563 181 563 181 524.5 143.5 c 128,-1,85
 486 106 486 106 451 90 c 0,86,87
 423 77 423 77 407.5 74 c 128,-1,88
 392 71 392 71 347 71 c 0,89,90
 305 71 305 71 288.5 73.5 c 128,-1,91
 272 76 272 76 251 86 c 0,92,93
 218 102 218 102 191 123 c 2,94,-1
 164 143 l 1,95,96
 136 119 136 119 103 86 c 1,97,98
 78 110 78 110 54 135 c 1,99,-1
 119 200 l 1,100,-1
 104 232 l 2,101,102
 72 302 72 302 72 385 c 0,103,104
 72 415 72 415 77 457 c 0,105,106
 88 540 88 540 155 610 c 0,107,108
 210 668 210 668 274 686 c 0,64,65
EndSplineSet
Ligature2: "'rlig' Required Ligatures in Latin lookup 0-1" y x
EndChar

StartChar: uni0259
Encoding: 601 601 150
Width: 699
Flags: W
LayerCount: 2
Fore
SplineSet
545 466 m 0,0,1
 532 500 532 500 528 500 c 0,2,3
 519 500 519 500 368 349 c 2,4,-1
 213 194 l 1,5,-1
 231 180 l 2,6,7
 293 132 293 132 348 132 c 0,8,9
 406 132 406 132 463.5 176 c 0,10,11
 521 219 521 219 543 286 c 0,12,13
 556 325 556 325 556 382 c 0,14,15
 556 435 556 435 545 466 c 0,0,1
430 604 m 0,16,17
 396 622 396 622 350 622 c 0,18,19
 292 622 292 622 246 593 c 0,20,21
 213 572 213 572 185 528.5 c 128,-1,22
 157 485 157 485 147 440 c 0,23,24
 141 413 141 413 141 383 c 0,25,26
 141 314 141 314 165 269 c 2,27,-1
 173 253 l 1,28,29
 381 463 381 463 486 567 c 1,30,-1
 472 579 l 2,31,32
 466 583 466 583 430 604 c 0,16,17
280 685 m 0,33,34
 304 692 304 692 342 692 c 0,35,36
 401 692 401 692 443 676 c 0,37,38
 475 663 475 663 506 640 c 2,39,-1
 537 617 l 1,40,-1
 564 644 l 2,41,42
 590 670 590 670 597 670 c 0,43,44
 603 670 603 670 624 648 c 2,45,-1
 645 626 l 1,46,-1
 619 601 l 2,47,48
 586 569 586 569 586 555 c 0,49,50
 586 549 586 549 596 527 c 0,51,52
 627 465 627 465 627 381 c 0,53,54
 627 284 627 284 589 216 c 0,55,56
 569 180 569 180 530 142.5 c 128,-1,57
 491 105 491 105 456 89 c 0,58,59
 427 75 427 75 412 70 c 128,-1,60
 397 65 397 65 350 65 c 0,61,62
 305 65 305 65 288.5 70 c 128,-1,63
 272 75 272 75 251 85 c 0,64,65
 218 101 218 101 191 122 c 2,66,-1
 164 143 l 1,67,68
 133 115 133 115 103 85 c 1,69,-1
 54 134 l 1,70,-1
 119 199 l 1,71,-1
 104 231 l 2,72,73
 71 301 71 301 71 378 c 0,74,75
 71 516 71 516 161 609 c 0,76,77
 216 667 216 667 280 685 c 0,33,34
EndSplineSet
EndChar

StartChar: uni018F
Encoding: 399 399 151
Width: 699
Flags: W
LayerCount: 2
Fore
SplineSet
545 466 m 0,0,1
 532 500 532 500 528 500 c 0,2,3
 519 500 519 500 368 349 c 2,4,-1
 213 194 l 1,5,-1
 231 180 l 2,6,7
 293 132 293 132 348 132 c 0,8,9
 406 132 406 132 463.5 176 c 0,10,11
 521 219 521 219 543 286 c 0,12,13
 556 325 556 325 556 382 c 0,14,15
 556 435 556 435 545 466 c 0,0,1
430 604 m 0,16,17
 396 622 396 622 350 622 c 0,18,19
 292 622 292 622 246 593 c 0,20,21
 213 572 213 572 185 528.5 c 128,-1,22
 157 485 157 485 147 440 c 0,23,24
 141 413 141 413 141 383 c 0,25,26
 141 314 141 314 165 269 c 2,27,-1
 173 253 l 1,28,29
 381 463 381 463 486 567 c 1,30,-1
 472 579 l 2,31,32
 466 583 466 583 430 604 c 0,16,17
280 685 m 0,33,34
 304 692 304 692 342 692 c 0,35,36
 401 692 401 692 443 676 c 0,37,38
 475 663 475 663 506 640 c 2,39,-1
 537 617 l 1,40,-1
 564 644 l 2,41,42
 590 670 590 670 597 670 c 0,43,44
 603 670 603 670 624 648 c 2,45,-1
 645 626 l 1,46,-1
 619 601 l 2,47,48
 586 569 586 569 586 555 c 0,49,50
 586 549 586 549 596 527 c 0,51,52
 627 465 627 465 627 381 c 0,53,54
 627 284 627 284 589 216 c 0,55,56
 569 180 569 180 530 142.5 c 128,-1,57
 491 105 491 105 456 89 c 0,58,59
 427 75 427 75 412 70 c 128,-1,60
 397 65 397 65 350 65 c 0,61,62
 305 65 305 65 288.5 70 c 128,-1,63
 272 75 272 75 251 85 c 0,64,65
 218 101 218 101 191 122 c 2,66,-1
 164 143 l 1,67,68
 133 115 133 115 103 85 c 1,69,-1
 54 134 l 1,70,-1
 119 199 l 1,71,-1
 104 231 l 2,72,73
 71 301 71 301 71 378 c 0,74,75
 71 516 71 516 161 609 c 0,76,77
 216 667 216 667 280 685 c 0,33,34
EndSplineSet
EndChar

StartChar: Ecircumflex
Encoding: 202 202 152
Width: 699
Flags: W
LayerCount: 2
Fore
SplineSet
545 466 m 0,0,1
 532 500 532 500 528 500 c 0,2,3
 519 500 519 500 368 349 c 2,4,-1
 213 194 l 1,5,-1
 231 180 l 2,6,7
 293 132 293 132 348 132 c 0,8,9
 406 132 406 132 463.5 176 c 0,10,11
 521 219 521 219 543 286 c 0,12,13
 556 325 556 325 556 382 c 0,14,15
 556 435 556 435 545 466 c 0,0,1
430 604 m 0,16,17
 396 622 396 622 350 622 c 0,18,19
 292 622 292 622 246 593 c 0,20,21
 213 572 213 572 185 528.5 c 128,-1,22
 157 485 157 485 147 440 c 0,23,24
 141 413 141 413 141 383 c 0,25,26
 141 314 141 314 165 269 c 2,27,-1
 173 253 l 1,28,29
 381 463 381 463 486 567 c 1,30,-1
 472 579 l 2,31,32
 466 583 466 583 430 604 c 0,16,17
280 685 m 0,33,34
 304 692 304 692 342 692 c 0,35,36
 401 692 401 692 443 676 c 0,37,38
 475 663 475 663 506 640 c 2,39,-1
 537 617 l 1,40,-1
 564 644 l 2,41,42
 590 670 590 670 597 670 c 0,43,44
 603 670 603 670 624 648 c 2,45,-1
 645 626 l 1,46,-1
 619 601 l 2,47,48
 586 569 586 569 586 555 c 0,49,50
 586 549 586 549 596 527 c 0,51,52
 627 465 627 465 627 381 c 0,53,54
 627 284 627 284 589 216 c 0,55,56
 569 180 569 180 530 142.5 c 128,-1,57
 491 105 491 105 456 89 c 0,58,59
 427 75 427 75 412 70 c 128,-1,60
 397 65 397 65 350 65 c 0,61,62
 305 65 305 65 288.5 70 c 128,-1,63
 272 75 272 75 251 85 c 0,64,65
 218 101 218 101 191 122 c 2,66,-1
 164 143 l 1,67,68
 133 115 133 115 103 85 c 1,69,-1
 54 134 l 1,70,-1
 119 199 l 1,71,-1
 104 231 l 2,72,73
 71 301 71 301 71 378 c 0,74,75
 71 516 71 516 161 609 c 0,76,77
 216 667 216 667 280 685 c 0,33,34
EndSplineSet
EndChar

StartChar: ecircumflex
Encoding: 234 234 153
Width: 699
Flags: W
LayerCount: 2
Fore
SplineSet
545 466 m 0,0,1
 532 500 532 500 528 500 c 0,2,3
 519 500 519 500 368 349 c 2,4,-1
 213 194 l 1,5,-1
 231 180 l 2,6,7
 293 132 293 132 348 132 c 0,8,9
 406 132 406 132 463.5 176 c 0,10,11
 521 219 521 219 543 286 c 0,12,13
 556 325 556 325 556 382 c 0,14,15
 556 435 556 435 545 466 c 0,0,1
430 604 m 0,16,17
 396 622 396 622 350 622 c 0,18,19
 292 622 292 622 246 593 c 0,20,21
 213 572 213 572 185 528.5 c 128,-1,22
 157 485 157 485 147 440 c 0,23,24
 141 413 141 413 141 383 c 0,25,26
 141 314 141 314 165 269 c 2,27,-1
 173 253 l 1,28,29
 381 463 381 463 486 567 c 1,30,-1
 472 579 l 2,31,32
 466 583 466 583 430 604 c 0,16,17
280 685 m 0,33,34
 304 692 304 692 342 692 c 0,35,36
 401 692 401 692 443 676 c 0,37,38
 475 663 475 663 506 640 c 2,39,-1
 537 617 l 1,40,-1
 564 644 l 2,41,42
 590 670 590 670 597 670 c 0,43,44
 603 670 603 670 624 648 c 2,45,-1
 645 626 l 1,46,-1
 619 601 l 2,47,48
 586 569 586 569 586 555 c 0,49,50
 586 549 586 549 596 527 c 0,51,52
 627 465 627 465 627 381 c 0,53,54
 627 284 627 284 589 216 c 0,55,56
 569 180 569 180 530 142.5 c 128,-1,57
 491 105 491 105 456 89 c 0,58,59
 427 75 427 75 412 70 c 128,-1,60
 397 65 397 65 350 65 c 0,61,62
 305 65 305 65 288.5 70 c 128,-1,63
 272 75 272 75 251 85 c 0,64,65
 218 101 218 101 191 122 c 2,66,-1
 164 143 l 1,67,68
 133 115 133 115 103 85 c 1,69,-1
 54 134 l 1,70,-1
 119 199 l 1,71,-1
 104 231 l 2,72,73
 71 301 71 301 71 378 c 0,74,75
 71 516 71 516 161 609 c 0,76,77
 216 667 216 667 280 685 c 0,33,34
EndSplineSet
EndChar

StartChar: uni01B7
Encoding: 439 439 154
Width: 693
Flags: W
LayerCount: 2
Fore
SplineSet
51 68 m 1,0,-1
 51 694 l 1,1,-1
 121 694 l 1,2,-1
 121 138 l 1,3,-1
 399 138 l 1,4,-1
 399 694 l 1,5,-1
 469 694 l 1,6,-1
 469 416 l 1,7,-1
 573 416 l 1,8,-1
 573 694 l 1,9,-1
 642 694 l 1,10,-1
 642 304 l 2,11,12
 642 -9 642 -9 646 -71 c 128,-1,13
 650 -133 650 -133 672 -156 c 2,14,-1
 685 -170 l 1,15,-1
 661 -195 l 2,16,17
 642 -214 642 -214 633 -214 c 0,18,19
 620 -214 620 -214 596 -167 c 2,20,-1
 576 -127 l 1,21,22
 576 -48 576 -48 574 109.5 c 128,-1,23
 572 267 572 267 572 346 c 1,24,-1
 469 346 l 1,25,-1
 469 68 l 1,26,-1
 51 68 l 1,0,-1
233 444 m 0,27,28
 246 451 246 451 259 451 c 0,29,30
 278 451 278 451 295 434 c 0,31,32
 311 418 311 418 311 399 c 0,33,34
 311 381 311 381 297 364 c 0,35,36
 282 346 282 346 260 346 c 128,-1,37
 238 346 238 346 223 364 c 128,-1,38
 208 382 208 382 208 403 c 0,39,40
 208 433 208 433 233 444 c 0,27,28
EndSplineSet
Ligature2: "'rlig' Required Ligatures in Latin lookup 0-1" Z h
Ligature2: "'rlig' Required Ligatures in Latin lookup 0-1" Z H
EndChar

StartChar: uni0292
Encoding: 658 658 155
Width: 693
Flags: W
LayerCount: 2
Fore
SplineSet
51 68 m 1,0,-1
 51 694 l 1,1,-1
 121 694 l 1,2,-1
 121 138 l 1,3,-1
 399 138 l 1,4,-1
 399 694 l 1,5,-1
 469 694 l 1,6,-1
 469 416 l 1,7,-1
 573 416 l 1,8,-1
 573 694 l 1,9,-1
 642 694 l 1,10,-1
 642 304 l 2,11,12
 642 -9 642 -9 646 -71 c 128,-1,13
 650 -133 650 -133 672 -156 c 2,14,-1
 685 -170 l 1,15,-1
 661 -195 l 2,16,17
 642 -214 642 -214 633 -214 c 0,18,19
 620 -214 620 -214 596 -167 c 2,20,-1
 576 -127 l 1,21,22
 576 -48 576 -48 574 109.5 c 128,-1,23
 572 267 572 267 572 346 c 1,24,-1
 469 346 l 1,25,-1
 469 68 l 1,26,-1
 51 68 l 1,0,-1
233 444 m 0,27,28
 246 451 246 451 259 451 c 0,29,30
 278 451 278 451 295 434 c 0,31,32
 311 418 311 418 311 399 c 0,33,34
 311 381 311 381 297 364 c 0,35,36
 282 346 282 346 260 346 c 128,-1,37
 238 346 238 346 223 364 c 128,-1,38
 208 382 208 382 208 403 c 0,39,40
 208 433 208 433 233 444 c 0,27,28
EndSplineSet
Ligature2: "'rlig' Required Ligatures in Latin lookup 0-1" z h
EndChar

StartChar: Jcircumflex
Encoding: 308 308 156
Width: 693
Flags: W
LayerCount: 2
Fore
SplineSet
51 68 m 1,0,-1
 51 694 l 1,1,-1
 121 694 l 1,2,-1
 121 138 l 1,3,-1
 399 138 l 1,4,-1
 399 694 l 1,5,-1
 469 694 l 1,6,-1
 469 416 l 1,7,-1
 573 416 l 1,8,-1
 573 694 l 1,9,-1
 642 694 l 1,10,-1
 642 304 l 2,11,12
 642 -9 642 -9 646 -71 c 128,-1,13
 650 -133 650 -133 672 -156 c 2,14,-1
 685 -170 l 1,15,-1
 661 -195 l 2,16,17
 642 -214 642 -214 633 -214 c 0,18,19
 620 -214 620 -214 596 -167 c 2,20,-1
 576 -127 l 1,21,22
 576 -48 576 -48 574 109.5 c 128,-1,23
 572 267 572 267 572 346 c 1,24,-1
 469 346 l 1,25,-1
 469 68 l 1,26,-1
 51 68 l 1,0,-1
233 444 m 0,27,28
 246 451 246 451 259 451 c 0,29,30
 278 451 278 451 295 434 c 0,31,32
 311 418 311 418 311 399 c 0,33,34
 311 381 311 381 297 364 c 0,35,36
 282 346 282 346 260 346 c 128,-1,37
 238 346 238 346 223 364 c 128,-1,38
 208 382 208 382 208 403 c 0,39,40
 208 433 208 433 233 444 c 0,27,28
EndSplineSet
LCarets2: 1 0
Ligature2: "'rlig' Required Ligatures in Latin lookup 0-1" Z J
Ligature2: "'rlig' Required Ligatures in Latin lookup 0-1" Z j
Ligature2: "'rlig' Required Ligatures in Latin lookup 0-1" J X
Ligature2: "'rlig' Required Ligatures in Latin lookup 0-1" J x
Ligature2: "'rlig' Required Ligatures in Latin lookup 0-1" J h
Ligature2: "'rlig' Required Ligatures in Latin lookup 0-1" J H
EndChar

StartChar: jcircumflex
Encoding: 309 309 157
Width: 693
Flags: W
LayerCount: 2
Fore
SplineSet
51 68 m 1,0,-1
 51 694 l 1,1,-1
 121 694 l 1,2,-1
 121 138 l 1,3,-1
 399 138 l 1,4,-1
 399 694 l 1,5,-1
 469 694 l 1,6,-1
 469 416 l 1,7,-1
 573 416 l 1,8,-1
 573 694 l 1,9,-1
 642 694 l 1,10,-1
 642 304 l 2,11,12
 642 -9 642 -9 646 -71 c 128,-1,13
 650 -133 650 -133 672 -156 c 2,14,-1
 685 -170 l 1,15,-1
 661 -195 l 2,16,17
 642 -214 642 -214 633 -214 c 0,18,19
 620 -214 620 -214 596 -167 c 2,20,-1
 576 -127 l 1,21,22
 576 -48 576 -48 574 109.5 c 128,-1,23
 572 267 572 267 572 346 c 1,24,-1
 469 346 l 1,25,-1
 469 68 l 1,26,-1
 51 68 l 1,0,-1
233 444 m 0,27,28
 246 451 246 451 259 451 c 0,29,30
 278 451 278 451 295 434 c 0,31,32
 311 418 311 418 311 399 c 0,33,34
 311 381 311 381 297 364 c 0,35,36
 282 346 282 346 260 346 c 128,-1,37
 238 346 238 346 223 364 c 128,-1,38
 208 382 208 382 208 403 c 0,39,40
 208 433 208 433 233 444 c 0,27,28
EndSplineSet
LCarets2: 1 0
Ligature2: "'rlig' Required Ligatures in Latin lookup 0-1" z j
Ligature2: "'rlig' Required Ligatures in Latin lookup 0-1" j x
Ligature2: "'rlig' Required Ligatures in Latin lookup 0-1" j h
EndChar

StartChar: Ibreve
Encoding: 300 300 158
Width: 179
Flags: W
LayerCount: 2
Fore
SplineSet
-49 882 m 0,0,1
 -49 893 -49 893 -45 895 c 128,-1,2
 -41 897 -41 897 -15 897 c 128,-1,3
 11 897 11 897 16 895 c 128,-1,4
 21 893 21 893 23 880 c 0,5,6
 28 860 28 860 48.5 844 c 128,-1,7
 69 828 69 828 90 828 c 128,-1,8
 111 828 111 828 131.5 844 c 128,-1,9
 152 860 152 860 157 880 c 0,10,11
 159 893 159 893 164 895 c 128,-1,12
 169 897 169 897 195 897 c 128,-1,13
 221 897 221 897 225 895 c 128,-1,14
 229 893 229 893 229 882 c 0,15,16
 229 867 229 867 217.5 840 c 128,-1,17
 206 813 206 813 193 800 c 0,18,19
 155 759 155 759 91 759 c 0,20,21
 26 759 26 759 -12 800 c 0,22,23
 -25 814 -25 814 -37 840.5 c 128,-1,24
 -49 867 -49 867 -49 882 c 0,0,1
55 62 m 1,25,-1
 55 689 l 1,26,-1
 125 689 l 1,27,-1
 125 62 l 1,28,-1
 55 62 l 1,25,-1
EndSplineSet
LCarets2: 1 0
Ligature2: "'rlig' Required Ligatures in Latin lookup 0-1" I X
Ligature2: "'rlig' Required Ligatures in Latin lookup 0-1" I x
EndChar

StartChar: ibreve
Encoding: 301 301 159
Width: 179
Flags: W
LayerCount: 2
Fore
SplineSet
-49 882 m 0,0,1
 -49 893 -49 893 -45 895 c 128,-1,2
 -41 897 -41 897 -15 897 c 128,-1,3
 11 897 11 897 16 895 c 128,-1,4
 21 893 21 893 23 880 c 0,5,6
 28 860 28 860 48.5 844 c 128,-1,7
 69 828 69 828 90 828 c 128,-1,8
 111 828 111 828 131.5 844 c 128,-1,9
 152 860 152 860 157 880 c 0,10,11
 159 893 159 893 164 895 c 128,-1,12
 169 897 169 897 195 897 c 128,-1,13
 221 897 221 897 225 895 c 128,-1,14
 229 893 229 893 229 882 c 0,15,16
 229 867 229 867 217.5 840 c 128,-1,17
 206 813 206 813 193 800 c 0,18,19
 155 759 155 759 91 759 c 0,20,21
 26 759 26 759 -12 800 c 0,22,23
 -25 814 -25 814 -37 840.5 c 128,-1,24
 -49 867 -49 867 -49 882 c 0,0,1
55 62 m 1,25,-1
 55 689 l 1,26,-1
 125 689 l 1,27,-1
 125 62 l 1,28,-1
 55 62 l 1,25,-1
EndSplineSet
Ligature2: "'rlig' Required Ligatures in Latin lookup 0-1" i x
EndChar

StartChar: uni0194
Encoding: 404 404 160
Width: 576
Flags: W
LayerCount: 2
Fore
SplineSet
226 546 m 2,0,1
 398 718 398 718 403 718 c 0,2,3
 410 718 410 718 432 694 c 2,4,-1
 455 671 l 1,5,-1
 159 375 l 1,6,-1
 300 235 l 2,7,8
 427 107 427 107 449 72.5 c 128,-1,9
 471 38 471 38 475 -42 c 0,10,11
 479 -99 479 -99 485 -122.5 c 128,-1,12
 491 -146 491 -146 506 -163 c 2,13,-1
 518 -176 l 1,14,15
 484 -210 484 -210 467 -228 c 1,16,-1
 453 -212 l 2,17,18
 411 -163 411 -163 406 -62 c 0,19,20
 402 9 402 9 395 25 c 0,21,22
 389 40 389 40 221 208 c 2,23,-1
 55 375 l 1,24,-1
 226 546 l 2,0,1
334 412 m 0,25,26
 350 427 350 427 370 427 c 0,27,28
 391 427 391 427 407 412 c 128,-1,29
 423 397 423 397 423 375 c 0,30,31
 423 354 423 354 407.5 338.5 c 128,-1,32
 392 323 392 323 371 323 c 0,33,34
 349 323 349 323 334 339 c 128,-1,35
 319 355 319 355 319 376 c 0,36,37
 319 396 319 396 334 412 c 0,25,26
EndSplineSet
EndChar

StartChar: Hbar
Encoding: 294 294 161
Width: 775
Flags: W
LayerCount: 2
Fore
SplineSet
226 552 m 2,0,1
 397 723 397 723 403 723 c 0,2,3
 411 723 411 723 432 700 c 2,4,-1
 455 677 l 1,5,6
 259 481 259 481 161 382 c 1,7,-1
 257 281 l 2,8,9
 337 198 337 198 365.5 174 c 128,-1,10
 394 150 394 150 417 143 c 0,11,12
 438 137 438 137 520 137 c 0,13,14
 601 137 601 137 622 143 c 0,15,16
 642 148 642 148 660 164 c 2,17,-1
 678 179 l 1,18,-1
 701 157 l 2,19,20
 724 137 724 137 724 127 c 0,21,22
 724 121 724 121 714 112 c 0,23,24
 684 85 684 85 684 -19 c 0,25,26
 684 -125 684 -125 714 -156 c 2,27,-1
 727 -170 l 1,28,-1
 702 -196 l 2,29,30
 681 -217 681 -217 675 -217 c 0,31,32
 673 -217 673 -217 666 -212 c 0,33,34
 654 -202 654 -202 636 -164 c 0,35,36
 622 -136 622 -136 620 -120 c 128,-1,37
 618 -104 618 -104 616 -30 c 2,38,-1
 613 67 l 1,39,40
 577 68 577 68 505 69 c 128,-1,41
 433 70 433 70 397 71 c 1,42,-1
 362 90 l 2,43,44
 329 107 329 107 191 245 c 2,45,-1
 55 381 l 1,46,-1
 226 552 l 2,0,1
334 418 m 0,47,48
 350 433 350 433 370 433 c 0,49,50
 391 433 391 433 407 418 c 128,-1,51
 423 403 423 403 423 381 c 0,52,53
 423 360 423 360 407.5 344.5 c 128,-1,54
 392 329 392 329 371 329 c 0,55,56
 349 329 349 329 334 345 c 128,-1,57
 319 361 319 361 319 382 c 0,58,59
 319 402 319 402 334 418 c 0,47,48
EndSplineSet
LCarets2: 1 0
Ligature2: "'rlig' Required Ligatures in Latin lookup 0-1" G Gdotaccent
Ligature2: "'rlig' Required Ligatures in Latin lookup 0-1" G gdotaccent
EndChar

StartChar: hbar
Encoding: 295 295 162
Width: 775
Flags: W
LayerCount: 2
Fore
SplineSet
226 552 m 2,0,1
 397 723 397 723 403 723 c 0,2,3
 411 723 411 723 432 700 c 2,4,-1
 455 677 l 1,5,6
 259 481 259 481 161 382 c 1,7,-1
 257 281 l 2,8,9
 337 198 337 198 365.5 174 c 128,-1,10
 394 150 394 150 417 143 c 0,11,12
 438 137 438 137 520 137 c 0,13,14
 601 137 601 137 622 143 c 0,15,16
 642 148 642 148 660 164 c 2,17,-1
 678 179 l 1,18,-1
 701 157 l 2,19,20
 724 137 724 137 724 127 c 0,21,22
 724 121 724 121 714 112 c 0,23,24
 684 85 684 85 684 -19 c 0,25,26
 684 -125 684 -125 714 -156 c 2,27,-1
 727 -170 l 1,28,-1
 702 -196 l 2,29,30
 681 -217 681 -217 675 -217 c 0,31,32
 673 -217 673 -217 666 -212 c 0,33,34
 654 -202 654 -202 636 -164 c 0,35,36
 622 -136 622 -136 620 -120 c 128,-1,37
 618 -104 618 -104 616 -30 c 2,38,-1
 613 67 l 1,39,40
 577 68 577 68 505 69 c 128,-1,41
 433 70 433 70 397 71 c 1,42,-1
 362 90 l 2,43,44
 329 107 329 107 191 245 c 2,45,-1
 55 381 l 1,46,-1
 226 552 l 2,0,1
334 418 m 0,47,48
 350 433 350 433 370 433 c 0,49,50
 391 433 391 433 407 418 c 128,-1,51
 423 403 423 403 423 381 c 0,52,53
 423 360 423 360 407.5 344.5 c 128,-1,54
 392 329 392 329 371 329 c 0,55,56
 349 329 349 329 334 345 c 128,-1,57
 319 361 319 361 319 382 c 0,58,59
 319 402 319 402 334 418 c 0,47,48
EndSplineSet
LCarets2: 1 0
Ligature2: "'rlig' Required Ligatures in Latin lookup 0-1" g gdotaccent
EndChar

StartChar: uni02A7
Encoding: 679 679 163
Width: 692
Flags: W
LayerCount: 2
Fore
SplineSet
51 62 m 1,0,-1
 51 689 l 1,1,-1
 121 689 l 1,2,-1
 121 132 l 1,3,-1
 399 132 l 1,4,-1
 399 689 l 1,5,-1
 469 689 l 1,6,-1
 469 410 l 1,7,-1
 573 410 l 1,8,-1
 573 689 l 1,9,-1
 642 689 l 1,10,-1
 642 62 l 1,11,-1
 573 62 l 1,12,-1
 573 341 l 1,13,-1
 469 341 l 1,14,-1
 469 62 l 1,15,-1
 51 62 l 1,0,-1
EndSplineSet
EndChar

StartChar: uni0182
Encoding: 386 386 164
Width: 418
Flags: W
LayerCount: 2
Fore
SplineSet
292 651 m 2,0,-1
 298 689 l 1,1,-1
 366 689 l 1,2,-1
 366 666 l 2,3,4
 366 611 366 611 333 545 c 0,5,6
 319 517 319 517 289.5 484 c 128,-1,7
 260 451 260 451 234 433 c 0,8,9
 211 415 211 415 211 412 c 0,10,11
 211 410 211 410 274 395.5 c 128,-1,12
 337 381 337 381 353 378 c 0,13,14
 366 375 366 375 366 353 c 0,15,16
 366 298 366 298 333 230 c 0,17,18
 318 199 318 199 273.5 155 c 128,-1,19
 229 111 229 111 197 95 c 0,20,21
 131 62 131 62 78 62 c 2,22,-1
 53 62 l 1,23,-1
 53 130 l 1,24,-1
 86 134 l 2,25,26
 151 141 151 141 211 193 c 128,-1,27
 271 245 271 245 286 306 c 2,28,-1
 290 320 l 1,29,30
 251 328 251 328 172.5 345.5 c 128,-1,31
 94 363 94 363 55 372 c 1,32,-1
 54 408 l 1,33,-1
 52 443 l 1,34,-1
 86 447 l 2,35,36
 162 455 162 455 224 517 c 0,37,38
 279 572 279 572 292 651 c 2,0,-1
EndSplineSet
Ligature2: "'rlig' Required Ligatures in Latin lookup 0-1" B X
Ligature2: "'rlig' Required Ligatures in Latin lookup 0-1" B x
EndChar

StartChar: uni0183
Encoding: 387 387 165
Width: 418
Flags: W
LayerCount: 2
Fore
SplineSet
292 651 m 2,0,-1
 298 689 l 1,1,-1
 366 689 l 1,2,-1
 366 666 l 2,3,4
 366 611 366 611 333 545 c 0,5,6
 319 517 319 517 289.5 484 c 128,-1,7
 260 451 260 451 234 433 c 0,8,9
 211 415 211 415 211 412 c 0,10,11
 211 410 211 410 274 395.5 c 128,-1,12
 337 381 337 381 353 378 c 0,13,14
 366 375 366 375 366 353 c 0,15,16
 366 298 366 298 333 230 c 0,17,18
 318 199 318 199 273.5 155 c 128,-1,19
 229 111 229 111 197 95 c 0,20,21
 131 62 131 62 78 62 c 2,22,-1
 53 62 l 1,23,-1
 53 130 l 1,24,-1
 86 134 l 2,25,26
 151 141 151 141 211 193 c 128,-1,27
 271 245 271 245 286 306 c 2,28,-1
 290 320 l 1,29,30
 251 328 251 328 172.5 345.5 c 128,-1,31
 94 363 94 363 55 372 c 1,32,-1
 54 408 l 1,33,-1
 52 443 l 1,34,-1
 86 447 l 2,35,36
 162 455 162 455 224 517 c 0,37,38
 279 572 279 572 292 651 c 2,0,-1
EndSplineSet
Ligature2: "'rlig' Required Ligatures in Latin lookup 0-1" b x
EndChar

StartChar: uni0156
Encoding: 342 342 166
Width: 692
Flags: W
LayerCount: 2
Fore
SplineSet
398 484 m 1,0,-1
 399 689 l 1,1,-1
 469 689 l 1,2,-1
 469 410 l 1,3,-1
 573 410 l 1,4,-1
 573 689 l 1,5,-1
 642 689 l 1,6,-1
 642 62 l 1,7,-1
 573 62 l 1,8,-1
 573 341 l 1,9,-1
 469 341 l 1,10,-1
 467 203 l 1,11,-1
 466 65 l 1,12,13
 238 335 238 335 123 469 c 1,14,15
 122 401 122 401 122 265.5 c 128,-1,16
 122 130 122 130 121 62 c 1,17,-1
 51 62 l 1,18,-1
 51 372 l 2,19,20
 51 683 51 683 53 683 c 0,21,22
 58 683 58 683 226 482 c 2,23,-1
 396 280 l 1,24,-1
 398 484 l 1,0,-1
EndSplineSet
Ligature2: "'rlig' Required Ligatures in Latin lookup 0-1" R J
Ligature2: "'rlig' Required Ligatures in Latin lookup 0-1" R j
EndChar

StartChar: uni0157
Encoding: 343 343 167
Width: 692
Flags: W
LayerCount: 2
Fore
SplineSet
398 484 m 1,0,-1
 399 689 l 1,1,-1
 469 689 l 1,2,-1
 469 410 l 1,3,-1
 573 410 l 1,4,-1
 573 689 l 1,5,-1
 642 689 l 1,6,-1
 642 62 l 1,7,-1
 573 62 l 1,8,-1
 573 341 l 1,9,-1
 469 341 l 1,10,-1
 467 203 l 1,11,-1
 466 65 l 1,12,13
 238 335 238 335 123 469 c 1,14,15
 122 401 122 401 122 265.5 c 128,-1,16
 122 130 122 130 121 62 c 1,17,-1
 51 62 l 1,18,-1
 51 372 l 2,19,20
 51 683 51 683 53 683 c 0,21,22
 58 683 58 683 226 482 c 2,23,-1
 396 280 l 1,24,-1
 398 484 l 1,0,-1
EndSplineSet
Ligature2: "'rlig' Required Ligatures in Latin lookup 0-1" r j
EndChar

StartChar: Racute
Encoding: 340 340 168
Width: 309
Flags: W
LayerCount: 2
Fore
SplineSet
126 622 m 2,0,1
 198 694 198 694 205 694 c 0,2,3
 213 694 213 694 234 671 c 2,4,-1
 256 648 l 1,5,6
 224 615 224 615 158 549 c 1,7,8
 191 517 191 517 257 451 c 1,9,-1
 205 399 l 1,10,11
 154 449 154 449 54 549 c 1,12,-1
 126 622 l 2,0,1
126 274 m 2,13,14
 198 346 198 346 205 346 c 0,15,16
 213 346 213 346 234 323 c 2,17,-1
 256 300 l 1,18,19
 224 267 224 267 158 201 c 1,20,21
 191 169 191 169 257 103 c 1,22,-1
 205 51 l 1,23,24
 154 101 154 101 54 201 c 1,25,-1
 126 274 l 2,13,14
EndSplineSet
Ligature2: "'rlig' Required Ligatures in Latin lookup 0-1" R X
Ligature2: "'rlig' Required Ligatures in Latin lookup 0-1" R x
EndChar

StartChar: racute
Encoding: 341 341 169
Width: 309
Flags: W
LayerCount: 2
Fore
SplineSet
126 622 m 2,0,1
 198 694 198 694 205 694 c 0,2,3
 213 694 213 694 234 671 c 2,4,-1
 256 648 l 1,5,6
 224 615 224 615 158 549 c 1,7,8
 191 517 191 517 257 451 c 1,9,-1
 205 399 l 1,10,11
 154 449 154 449 54 549 c 1,12,-1
 126 622 l 2,0,1
126 274 m 2,13,14
 198 346 198 346 205 346 c 0,15,16
 213 346 213 346 234 323 c 2,17,-1
 256 300 l 1,18,19
 224 267 224 267 158 201 c 1,20,21
 191 169 191 169 257 103 c 1,22,-1
 205 51 l 1,23,24
 154 101 154 101 54 201 c 1,25,-1
 126 274 l 2,13,14
EndSplineSet
Ligature2: "'rlig' Required Ligatures in Latin lookup 0-1" r x
EndChar

StartChar: Rcaron
Encoding: 344 344 170
Width: 531
Flags: W
LayerCount: 2
Fore
SplineSet
127 628 m 2,0,1
 199 700 199 700 206 700 c 0,2,3
 214 700 214 700 235 677 c 2,4,-1
 257 654 l 1,5,6
 214 609 214 609 159 555 c 1,7,8
 209 507 209 507 257 457 c 1,9,-1
 235 433 l 2,10,11
 214 410 214 410 206 410 c 0,12,13
 200 410 200 410 127 483 c 2,14,-1
 55 555 l 1,15,-1
 127 628 l 2,0,1
127 280 m 2,16,17
 199 352 199 352 206 352 c 128,-1,18
 213 352 213 352 235 328 c 2,19,-1
 256 305 l 1,20,21
 240 289 240 289 208 256.5 c 128,-1,22
 176 224 176 224 160 207 c 1,23,-1
 185 181 l 2,24,25
 208 157 208 157 233 147.5 c 128,-1,26
 258 138 258 138 297 138 c 0,27,28
 300 138 300 138 307 138.5 c 128,-1,29
 314 139 314 139 318 139 c 0,30,31
 352 141 352 141 365.5 144 c 128,-1,32
 379 147 379 147 398 159 c 2,33,-1
 428 177 l 1,34,35
 452 152 452 152 477 128 c 1,36,-1
 454 109 l 2,37,38
 426 86 426 86 397.5 77.5 c 128,-1,39
 369 69 369 69 318 69 c 2,40,-1
 296 69 l 2,41,42
 227 71 227 71 196.5 84.5 c 128,-1,43
 166 98 166 98 110 153 c 2,44,-1
 55 207 l 1,45,-1
 127 280 l 2,16,17
EndSplineSet
Ligature2: "'rlig' Required Ligatures in Latin lookup 0-1" R H
Ligature2: "'rlig' Required Ligatures in Latin lookup 0-1" R h
EndChar

StartChar: rcaron
Encoding: 345 345 171
Width: 531
Flags: W
LayerCount: 2
Fore
SplineSet
127 628 m 2,0,1
 199 700 199 700 206 700 c 0,2,3
 214 700 214 700 235 677 c 2,4,-1
 257 654 l 1,5,6
 214 609 214 609 159 555 c 1,7,8
 209 507 209 507 257 457 c 1,9,-1
 235 433 l 2,10,11
 214 410 214 410 206 410 c 0,12,13
 200 410 200 410 127 483 c 2,14,-1
 55 555 l 1,15,-1
 127 628 l 2,0,1
127 280 m 2,16,17
 199 352 199 352 206 352 c 128,-1,18
 213 352 213 352 235 328 c 2,19,-1
 256 305 l 1,20,21
 240 289 240 289 208 256.5 c 128,-1,22
 176 224 176 224 160 207 c 1,23,-1
 185 181 l 2,24,25
 208 157 208 157 233 147.5 c 128,-1,26
 258 138 258 138 297 138 c 0,27,28
 300 138 300 138 307 138.5 c 128,-1,29
 314 139 314 139 318 139 c 0,30,31
 352 141 352 141 365.5 144 c 128,-1,32
 379 147 379 147 398 159 c 2,33,-1
 428 177 l 1,34,35
 452 152 452 152 477 128 c 1,36,-1
 454 109 l 2,37,38
 426 86 426 86 397.5 77.5 c 128,-1,39
 369 69 369 69 318 69 c 2,40,-1
 296 69 l 2,41,42
 227 71 227 71 196.5 84.5 c 128,-1,43
 166 98 166 98 110 153 c 2,44,-1
 55 207 l 1,45,-1
 127 280 l 2,16,17
EndSplineSet
Ligature2: "'rlig' Required Ligatures in Latin lookup 0-1" r h
EndChar

StartChar: acute
Encoding: 180 180 172
Width: 355
Flags: W
LayerCount: 2
Fore
SplineSet
137 673 m 2,0,-1
 137 700 l 1,1,-1
 218 700 l 1,2,-1
 218 673 l 2,3,4
 218 653 218 653 214 571 c 2,5,-1
 211 497 l 1,6,-1
 144 497 l 1,7,-1
 141 571 l 2,8,9
 137 653 137 653 137 673 c 2,0,-1
EndSplineSet
EndChar

StartChar: Scircumflex
Encoding: 348 348 173
Width: 743
Flags: W
LayerCount: 2
Fore
SplineSet
51 68 m 1,0,-1
 51 694 l 1,1,-1
 121 694 l 1,2,-1
 121 138 l 1,3,-1
 400 138 l 1,4,5
 400 230 400 230 398 416 c 128,-1,6
 396 602 396 602 396 694 c 1,7,-1
 463 694 l 1,8,-1
 463 635 l 2,9,10
 463 581 463 581 467 495 c 2,11,-1
 470 416 l 1,12,-1
 567 416 l 1,13,-1
 567 694 l 1,14,-1
 635 694 l 1,15,-1
 640 302 l 2,16,17
 643 -10 643 -10 647.5 -71.5 c 128,-1,18
 652 -133 652 -133 672 -156 c 2,19,-1
 685 -170 l 1,20,-1
 661 -195 l 2,21,22
 642 -214 642 -214 633 -214 c 0,23,24
 620 -214 620 -214 596 -167 c 2,25,-1
 576 -127 l 1,26,27
 576 -48 576 -48 574 109.5 c 128,-1,28
 572 267 572 267 572 346 c 1,29,-1
 469 346 l 1,30,-1
 469 68 l 1,31,-1
 51 68 l 1,0,-1
EndSplineSet
Ligature2: "'rlig' Required Ligatures in Latin lookup 0-1" S J
Ligature2: "'rlig' Required Ligatures in Latin lookup 0-1" S j
Ligature2: "'rlig' Required Ligatures in Latin lookup 0-1" S x
Ligature2: "'rlig' Required Ligatures in Latin lookup 0-1" S X
Ligature2: "'rlig' Required Ligatures in Latin lookup 0-1" S h
Ligature2: "'rlig' Required Ligatures in Latin lookup 0-1" S H
EndChar

StartChar: cent
Encoding: 162 162 174
Width: 651
Flags: W
LayerCount: 2
Fore
SplineSet
608 62 m 4,0,1
 553.5 62 l 4,2,3
 545.25 62 545.25 62 537 62 c 6,4,-1
 520 62 l 5,5,-1
 520 155 l 5,6,-1
 607 155 l 5,7,-1
 608 62 l 6,8,9
 608 62 l 4,0,1
51 62 m 1,10,-1
 51 689 l 1,11,-1
 121 689 l 1,12,-1
 121 132 l 1,13,-1
 399 132 l 1,14,-1
 399 689 l 1,15,-1
 469 689 l 1,16,-1
 469 62 l 1,17,-1
 51 62 l 1,10,-1
51 -77 m 1,18,-1
 51 -7 l 1,19,-1
 469 -7 l 1,20,-1
 469 -50 l 2,21,22
 469 -130 469 -130 498 -162 c 2,23,-1
 511 -176 l 1,24,-1
 487 -200 l 2,25,26
 467 -220 467 -220 459 -220 c 0,27,28
 456 -220 456 -220 452 -218 c 0,29,30
 440 -210 440 -210 422 -171 c 128,-1,31
 404 -132 404 -132 401 -107 c 2,32,-1
 397 -77 l 1,33,-1
 51 -77 l 1,18,-1
EndSplineSet
EndChar

StartChar: sterling
Encoding: 163 163 175
Width: 791
Flags: W
LayerCount: 2
Fore
SplineSet
746 62 m 0,0,1
 691.5 62 l 0,2,3
 683.25 62 683.25 62 675 62 c 2,4,-1
 658 62 l 1,5,-1
 658 155 l 1,6,-1
 745 155 l 1,7,-1
 746 62 l 2,8,9
 746 62 l 0,0,1
54 655 m 0,10,11
 53 657 53 657 64.5 665.5 c 128,-1,12
 76 674 76 674 91 681.5 c 128,-1,13
 106 689 106 689 113 689 c 0,14,15
 115 689 115 689 117 687 c 2,16,-1
 151 628 l 2,17,18
 185 569 185 569 219.5 511 c 128,-1,19
 254 453 254 453 257 453 c 0,20,21
 259 453 259 453 305 529 c 0,22,23
 342 594 342 594 367.5 623 c 128,-1,24
 393 652 393 652 428 669 c 0,25,26
 451 680 451 680 467 682.5 c 128,-1,27
 483 685 483 685 535 687 c 2,28,-1
 609 690 l 1,29,-1
 609 62 l 1,30,-1
 539 62 l 1,31,-1
 539 619 l 1,32,-1
 520 619 l 2,33,34
 458 619 458 619 422 580 c 0,35,36
 407 563 407 563 354.5 473.5 c 128,-1,37
 302 384 302 384 302 375 c 0,38,39
 302 368 302 368 380 232 c 0,40,41
 458 98 458 98 458 92 c 0,42,43
 458 89 458 89 430 73 c 0,44,45
 409 61 409 61 402 61 c 0,46,47
 398 61 398 61 396 64 c 2,48,-1
 362 122 l 2,49,50
 328 181 328 181 293 239 c 128,-1,51
 258 297 258 297 255 297 c 0,52,53
 251 297 251 297 183 175 c 0,54,55
 114 57 114 57 111 57 c 0,56,57
 105 57 105 57 80 74.5 c 128,-1,58
 55 92 55 92 56 95 c 0,59,60
 58 101 58 101 136 237 c 2,61,-1
 215 375 l 1,62,-1
 136 513 l 2,63,64
 58 651 58 651 54 655 c 0,10,11
EndSplineSet
EndChar

StartChar: yen
Encoding: 165 165 176
Width: 412
Flags: W
LayerCount: 2
Fore
SplineSet
368 62 m 0,0,1
 313.5 62 l 0,2,3
 305.25 62 305.25 62 297 62 c 2,4,-1
 280 62 l 1,5,-1
 280 155 l 1,6,-1
 367 155 l 1,7,-1
 368 62 l 2,8,9
 368 62 l 0,0,1
58 882 m 0,10,11
 58 893 58 893 62 895 c 128,-1,12
 66 897 66 897 92 897 c 128,-1,13
 118 897 118 897 123 895 c 128,-1,14
 128 893 128 893 130 880 c 0,15,16
 135 860 135 860 155.5 844 c 128,-1,17
 176 828 176 828 197 828 c 128,-1,18
 218 828 218 828 238.5 844 c 128,-1,19
 259 860 259 860 264 880 c 0,20,21
 266 893 266 893 271 895 c 128,-1,22
 276 897 276 897 302 897 c 128,-1,23
 328 897 328 897 332 895 c 128,-1,24
 336 893 336 893 336 882 c 0,25,26
 336 867 336 867 324.5 840 c 128,-1,27
 313 813 313 813 300 800 c 0,28,29
 262 759 262 759 198 759 c 0,30,31
 133 759 133 759 95 800 c 0,32,33
 82 814 82 814 70 840.5 c 128,-1,34
 58 867 58 867 58 882 c 0,10,11
162 62 m 1,35,-1
 162 689 l 1,36,-1
 232 689 l 1,37,-1
 232 62 l 1,38,-1
 162 62 l 1,35,-1
EndSplineSet
EndChar

StartChar: exclamdown
Encoding: 161 161 177
Width: 192
Flags: W
LayerCount: 2
Fore
SplineSet
54 62 m 1,0,-1
 54 387 l 1,1,-1
 141 387 l 1,2,-1
 141 62 l 1,3,-1
 54 62 l 1,0,-1
54 462 m 1,4,-1
 54 555 l 1,5,-1
 141 555 l 1,6,-1
 141 462 l 1,7,-1
 54 462 l 1,4,-1
EndSplineSet
EndChar

StartChar: uni00AD
Encoding: 173 173 178
Width: 564
Flags: W
LayerCount: 2
Fore
SplineSet
504 403 m 1,0,-1
 504 401 l 1,1,-1
 504 401 l 1,2,3
 504 371 504 371 504 341 c 4,4,5
 504 341 l 5,6,-1
 504 341 l 6,7,-1
 504 341 l 4,8,9
 55 341 l 1,10,-1
 55 404 l 1,11,-1
 504 403 l 1,0,-1
EndSplineSet
EndChar
